<svg width="119" height="47" viewBox="0 0 119 47" fill="none" xmlns="http://www.w3.org/2000/svg">
<path d="M0.688 0.688C1.584 0.730666 2.75733 0.773332 4.208 0.815998C5.65867 0.858664 7.088 0.879997 8.496 0.879997C10.5013 0.879997 12.4213 0.858664 14.256 0.815998C16.0907 0.773332 17.392 0.751999 18.16 0.751999C22.64 0.751999 26.0107 1.69066 28.272 3.568C30.5333 5.44533 31.664 7.856 31.664 10.8C31.664 12.2933 31.344 13.7653 30.704 15.216C30.1067 16.624 29.0827 17.9253 27.632 19.12C26.224 20.272 24.3253 21.2107 21.936 21.936V22.064C25.3067 22.4907 27.9307 23.3013 29.808 24.496C31.728 25.648 33.072 27.0133 33.84 28.592C34.608 30.1707 34.992 31.8347 34.992 33.584C34.992 36.016 34.3733 38.1707 33.136 40.048C31.9413 41.8827 30.192 43.3333 27.888 44.4C25.584 45.4667 22.832 46 19.632 46C18.6933 46 17.2853 45.9787 15.408 45.936C13.5307 45.8507 11.2693 45.808 8.624 45.808C7.13067 45.808 5.65867 45.8293 4.208 45.872C2.75733 45.872 1.584 45.9147 0.688 46V44.72C2.13867 44.6347 3.22667 44.464 3.952 44.208C4.72 43.952 5.232 43.44 5.488 42.672C5.744 41.904 5.872 40.752 5.872 39.216V7.472C5.872 5.89333 5.744 4.74133 5.488 4.016C5.232 3.248 4.72 2.736 3.952 2.48C3.22667 2.18133 2.13867 2.01066 0.688 1.968V0.688ZM16.56 1.968C14.5973 1.968 13.3173 2.33067 12.72 3.056C12.1227 3.78133 11.824 5.25333 11.824 7.472V39.216C11.824 40.7093 11.952 41.84 12.208 42.608C12.464 43.376 12.9333 43.888 13.616 44.144C14.2987 44.4 15.3013 44.528 16.624 44.528C20.8053 44.528 23.8347 43.568 25.712 41.648C27.632 39.6853 28.592 36.912 28.592 33.328C28.592 30.0427 27.696 27.504 25.904 25.712C24.1547 23.92 21.2533 23.024 17.2 23.024H10.608C10.608 23.024 10.608 22.8533 10.608 22.512C10.608 22.128 10.608 21.936 10.608 21.936H16.112C18.6293 21.936 20.5707 21.4667 21.936 20.528C23.3013 19.5467 24.24 18.2667 24.752 16.688C25.264 15.0667 25.52 13.3387 25.52 11.504C25.52 8.34666 24.816 5.97866 23.408 4.4C22.0427 2.77866 19.76 1.968 16.56 1.968ZM79.42 0.688V1.968C77.9693 2.01066 76.86 2.224 76.092 2.608C75.3667 2.992 74.876 3.61066 74.62 4.464C74.364 5.31733 74.236 6.53333 74.236 8.112V27.376C74.236 30.3627 74.044 32.9653 73.66 35.184C73.276 37.4027 72.5933 39.3227 71.612 40.944C70.5453 42.736 68.988 44.1867 66.94 45.296C64.892 46.3627 62.5453 46.896 59.9 46.896C57.852 46.896 55.8893 46.64 54.012 46.128C52.1773 45.6587 50.556 44.7627 49.148 43.44C47.9107 42.2453 46.9293 40.9867 46.204 39.664C45.5213 38.3413 45.052 36.72 44.796 34.8C44.54 32.88 44.412 30.4693 44.412 27.568V7.472C44.412 5.89333 44.284 4.74133 44.028 4.016C43.772 3.248 43.26 2.736 42.492 2.48C41.7667 2.18133 40.6787 2.01066 39.228 1.968V0.688C40.124 0.730666 41.2973 0.773332 42.748 0.815998C44.1987 0.858664 45.756 0.879997 47.42 0.879997C48.9133 0.879997 50.3853 0.858664 51.836 0.815998C53.3293 0.773332 54.5667 0.730666 55.548 0.688V1.968C54.0973 2.01066 52.988 2.18133 52.22 2.48C51.4947 2.736 51.004 3.248 50.748 4.016C50.492 4.74133 50.364 5.89333 50.364 7.472V28.656C50.364 30.832 50.4707 32.9013 50.684 34.864C50.8973 36.784 51.324 38.4907 51.964 39.984C52.6467 41.4347 53.6707 42.5867 55.036 43.44C56.4013 44.2507 58.2147 44.656 60.476 44.656C63.7187 44.656 66.2147 43.952 67.964 42.544C69.756 41.0933 70.9933 39.1093 71.676 36.592C72.4013 34.0747 72.764 31.2373 72.764 28.08V8.112C72.764 6.53333 72.572 5.31733 72.188 4.464C71.8467 3.61066 71.2493 2.992 70.396 2.608C69.5427 2.224 68.3907 2.01066 66.94 1.968V0.688C67.708 0.730666 68.7107 0.773332 69.948 0.815998C71.228 0.858664 72.4013 0.879997 73.468 0.879997C74.5773 0.879997 75.6653 0.858664 76.732 0.815998C77.8413 0.773332 78.7373 0.730666 79.42 0.688ZM118.757 0.688V1.968C117.946 2.13867 117.136 2.672 116.325 3.568C115.514 4.42133 114.618 5.78667 113.637 7.664L100.709 33.264H99.621L84.645 5.616C83.7917 4.03733 83.0663 3.056 82.469 2.672C81.9143 2.24533 81.4023 2.032 80.933 2.032V0.688C81.7863 0.730666 82.661 0.773332 83.557 0.815998C84.4957 0.858664 85.4983 0.879997 86.565 0.879997C87.973 0.879997 89.4663 0.879997 91.045 0.879997C92.6663 0.837331 94.1597 0.773332 95.525 0.688V2.032C94.4583 2.032 93.5197 2.16 92.709 2.416C91.8983 2.672 91.365 3.14133 91.109 3.824C90.853 4.50667 91.045 5.46667 91.685 6.704L102.501 27.44L101.989 27.824L110.501 10.864C111.696 8.51733 112.272 6.704 112.229 5.424C112.229 4.144 111.738 3.26933 110.757 2.8C109.776 2.288 108.389 2.01066 106.597 1.968V0.688C107.834 0.730666 109.093 0.773332 110.373 0.815998C111.653 0.858664 112.848 0.879997 113.957 0.879997C115.066 0.879997 115.984 0.858664 116.709 0.815998C117.434 0.773332 118.117 0.730666 118.757 0.688ZM103.589 26.544V39.216C103.589 40.752 103.717 41.904 103.973 42.672C104.229 43.44 104.72 43.952 105.445 44.208C106.213 44.464 107.322 44.6347 108.773 44.72V46C107.792 45.9147 106.554 45.872 105.061 45.872C103.61 45.8293 102.138 45.808 100.645 45.808C98.981 45.808 97.4237 45.8293 95.973 45.872C94.5223 45.872 93.349 45.9147 92.453 46V44.72C93.9037 44.6347 94.9917 44.464 95.717 44.208C96.485 43.952 96.997 43.44 97.253 42.672C97.509 41.904 97.637 40.752 97.637 39.216V26.096L101.093 30.064L103.589 26.544Z" fill="white"/>
</svg>
