<svg width="41" height="44" viewBox="0 0 41 44" fill="none" xmlns="http://www.w3.org/2000/svg">
<path d="M0 1.45665C0 1.07033 0.143407 0.69982 0.398673 0.426644C0.653938 0.153468 1.00015 0 1.36115 0H5.44461C5.74824 8.97633e-05 6.04311 0.108814 6.28235 0.308883C6.52159 0.508951 6.69146 0.788877 6.76493 1.10414L7.86747 5.82661H39.4734C39.6733 5.82681 39.8707 5.87411 40.0515 5.96515C40.2324 6.05618 40.3923 6.18872 40.5199 6.35335C40.6475 6.51798 40.7396 6.71066 40.7898 6.9177C40.8399 7.12474 40.8469 7.34106 40.8101 7.55129L36.7266 30.8578C36.6683 31.1916 36.5027 31.493 36.2587 31.7101C36.0146 31.9271 35.7073 32.0461 35.39 32.0464H10.8892C10.5719 32.0461 10.2646 31.9271 10.0206 31.7101C9.7765 31.493 9.61096 31.1916 9.55258 30.8578L5.47184 7.59499L4.38291 2.91331H1.36115C1.00015 2.91331 0.653938 2.75984 0.398673 2.48666C0.143407 2.21349 0 1.84298 0 1.45665ZM8.4446 8.73992L12.019 29.1331H34.2602L37.8346 8.73992H8.4446ZM13.6115 32.0464C12.1675 32.0464 10.7827 32.6603 9.76161 33.753C8.74055 34.8457 8.16692 36.3277 8.16692 37.873C8.16692 39.4183 8.74055 40.9003 9.76161 41.993C10.7827 43.0857 12.1675 43.6996 13.6115 43.6996C15.0555 43.6996 16.4404 43.0857 17.4615 41.993C18.4825 40.9003 19.0561 39.4183 19.0561 37.873C19.0561 36.3277 18.4825 34.8457 17.4615 33.753C16.4404 32.6603 15.0555 32.0464 13.6115 32.0464ZM32.6677 32.0464C31.2237 32.0464 29.8388 32.6603 28.8178 33.753C27.7967 34.8457 27.2231 36.3277 27.2231 37.873C27.2231 39.4183 27.7967 40.9003 28.8178 41.993C29.8388 43.0857 31.2237 43.6996 32.6677 43.6996C34.1117 43.6996 35.4965 43.0857 36.5176 41.993C37.5387 40.9003 38.1123 39.4183 38.1123 37.873C38.1123 36.3277 37.5387 34.8457 36.5176 33.753C35.4965 32.6603 34.1117 32.0464 32.6677 32.0464ZM13.6115 34.9597C14.3335 34.9597 15.026 35.2666 15.5365 35.813C16.047 36.3593 16.3338 37.1003 16.3338 37.873C16.3338 38.6457 16.047 39.3867 15.5365 39.933C15.026 40.4794 14.3335 40.7863 13.6115 40.7863C12.8895 40.7863 12.1971 40.4794 11.6866 39.933C11.176 39.3867 10.8892 38.6457 10.8892 37.873C10.8892 37.1003 11.176 36.3593 11.6866 35.813C12.1971 35.2666 12.8895 34.9597 13.6115 34.9597ZM32.6677 34.9597C33.3897 34.9597 34.0821 35.2666 34.5926 35.813C35.1032 36.3593 35.39 37.1003 35.39 37.873C35.39 38.6457 35.1032 39.3867 34.5926 39.933C34.0821 40.4794 33.3897 40.7863 32.6677 40.7863C31.9457 40.7863 31.2533 40.4794 30.7427 39.933C30.2322 39.3867 29.9454 38.6457 29.9454 37.873C29.9454 37.1003 30.2322 36.3593 30.7427 35.813C31.2533 35.2666 31.9457 34.9597 32.6677 34.9597Z" fill="white"/>
</svg>
