<svg width="200" height="200" viewBox="0 0 200 200" fill="none" xmlns="http://www.w3.org/2000/svg">
<circle cx="100" cy="100" r="100" fill="#CECECE"/>
<path d="M99.753 143C94.1676 143 89.6406 142.282 89.6406 141.397V59.6034C89.6406 58.7178 94.1676 58 99.753 58C105.338 58 109.865 58.7178 109.865 59.6034V141.397C109.865 142.282 105.338 143 99.753 143Z" fill="black"/>
<path d="M52.0002 100.5C52.0002 95.529 52.8068 91.5 53.8019 91.5L145.704 91.5C146.699 91.5 147.506 95.529 147.506 100.5C147.506 105.471 146.699 109.5 145.704 109.5L53.8019 109.5C52.8068 109.5 52.0002 105.471 52.0002 100.5Z" fill="black"/>
</svg>
