<svg width="414" height="104" viewBox="0 0 414 104" fill="none" xmlns="http://www.w3.org/2000/svg">
<g filter="url(#filter0_d_321_137)">
<g filter="url(#filter1_d_321_137)">
<rect x="10" y="9" width="390" height="80" rx="14" fill="#CECECE"/>
</g>
<path d="M34.84 64C33.9333 64 33.2533 63.72 32.8 63.16C32.3467 62.6267 32.12 61.8 32.12 60.68C32.12 59.5867 32.48 57.1867 33.2 53.48C33.9467 49.7467 34.7467 46.2533 35.6 43L33.84 41C34.56 40.4133 35.2533 39.96 35.92 39.64C36.6133 39.2933 37.24 39.12 37.8 39.12C38.5467 39.12 39.0933 39.3333 39.44 39.76C39.7867 40.16 39.96 40.68 39.96 41.32C39.96 42.1467 39.8133 43.0533 39.52 44.04C39.2533 45 38.8533 46.1333 38.32 47.44L38.72 47.64C39.5467 45.6667 40.3867 44.04 41.24 42.76C42.12 41.48 43 40.5333 43.88 39.92C44.7867 39.28 45.6933 38.96 46.6 38.96C47.48 38.96 48.1333 39.16 48.56 39.56C49.0133 39.9333 49.24 40.52 49.24 41.32C49.24 42.2 48.8933 42.9067 48.2 43.44C47.5067 43.9733 46.6 44.24 45.48 44.24C44.0667 44.24 42.6933 45.04 41.36 46.64C40.0267 48.24 38.9467 50.32 38.12 52.88C37.2933 55.44 36.88 58.08 36.88 60.8C36.88 61.7867 37.04 62.48 37.36 62.88C36.56 63.6267 35.72 64 34.84 64ZM59.0663 64C56.2396 64 54.0263 63.1333 52.4263 61.4C50.8263 59.6667 50.0263 57.28 50.0263 54.24C50.0263 51.36 50.6529 48.76 51.9062 46.44C53.1596 44.12 54.8929 42.3067 57.1063 41C59.3196 39.6667 61.7863 39 64.5063 39C66.6129 39 68.2529 39.5067 69.4263 40.52C70.6263 41.5333 71.2263 42.9333 71.2263 44.72C71.2263 46.6133 70.5463 48.24 69.1863 49.6C67.8263 50.9333 65.8396 51.96 63.2263 52.68C60.6396 53.3733 57.5063 53.72 53.8263 53.72L54.3063 51.48C58.2796 51.5067 61.3596 50.92 63.5463 49.72C65.7596 48.4933 66.8663 46.7867 66.8663 44.6C66.8663 43.6667 66.5863 42.92 66.0263 42.36C65.4663 41.8 64.7329 41.52 63.8263 41.52C62.2529 41.52 60.7863 42.1067 59.4263 43.28C58.0663 44.4267 56.9863 46 56.1863 48C55.3863 49.9733 54.9863 52.1333 54.9863 54.48C54.9863 56.6133 55.3863 58.2933 56.1863 59.52C56.9863 60.72 58.0796 61.32 59.4663 61.32C61.1996 61.32 62.6129 60.7733 63.7063 59.68C64.7996 58.5867 65.3996 57.1333 65.5063 55.32C66.5463 55.32 67.3463 55.52 67.9063 55.92C68.4663 56.2933 68.7463 56.8933 68.7463 57.72C68.7463 58.7867 68.3196 59.8133 67.4662 60.8C66.6129 61.76 65.4396 62.5333 63.9463 63.12C62.4796 63.7067 60.8529 64 59.0663 64ZM85.4419 64C82.5085 64 80.2019 63.1467 78.5219 61.44C76.8685 59.7333 76.0419 57.36 76.0419 54.32C76.0419 51.44 76.6819 48.84 77.9619 46.52C79.2419 44.1733 80.9885 42.3333 83.2019 41C85.4152 39.6667 87.8419 39 90.4819 39C92.1619 39 93.4819 39.28 94.4419 39.84C95.4285 40.3733 95.9219 41.12 95.9219 42.08C95.9219 42.88 95.6019 43.56 94.9619 44.12C94.3485 44.6533 93.5752 44.92 92.6419 44.92C91.6552 44.92 90.7619 44.6933 89.9619 44.24C89.1619 43.7867 88.5085 43.0533 88.0019 42.04C86.6419 42.6267 85.4285 43.5333 84.3619 44.76C83.2952 45.9867 82.4552 47.4533 81.8419 49.16C81.2552 50.84 80.9619 52.64 80.9619 54.56C80.9619 56.6667 81.3485 58.32 82.1219 59.52C82.9219 60.72 84.0152 61.32 85.4019 61.32C86.5219 61.32 87.5219 61.04 88.4019 60.48C89.2819 59.92 89.9752 59.16 90.4819 58.2C90.9885 57.2133 91.2819 56.12 91.3619 54.92C92.4019 54.92 93.2019 55.12 93.7619 55.52C94.3219 55.92 94.6019 56.5333 94.6019 57.36C94.6019 58.56 94.1885 59.6667 93.3619 60.68C92.5352 61.6933 91.4152 62.4933 90.0019 63.08C88.6152 63.6933 87.0952 64 85.4419 64ZM109.887 64C107.06 64 104.847 63.1333 103.247 61.4C101.647 59.6667 100.847 57.28 100.847 54.24C100.847 51.36 101.473 48.76 102.727 46.44C103.98 44.12 105.713 42.3067 107.927 41C110.14 39.6667 112.607 39 115.327 39C117.433 39 119.073 39.5067 120.247 40.52C121.447 41.5333 122.047 42.9333 122.047 44.72C122.047 46.6133 121.367 48.24 120.007 49.6C118.647 50.9333 116.66 51.96 114.047 52.68C111.46 53.3733 108.327 53.72 104.647 53.72L105.127 51.48C109.1 51.5067 112.18 50.92 114.367 49.72C116.58 48.4933 117.687 46.7867 117.687 44.6C117.687 43.6667 117.407 42.92 116.847 42.36C116.287 41.8 115.553 41.52 114.647 41.52C113.073 41.52 111.607 42.1067 110.247 43.28C108.887 44.4267 107.807 46 107.007 48C106.207 49.9733 105.807 52.1333 105.807 54.48C105.807 56.6133 106.207 58.2933 107.007 59.52C107.807 60.72 108.9 61.32 110.287 61.32C112.02 61.32 113.433 60.7733 114.527 59.68C115.62 58.5867 116.22 57.1333 116.327 55.32C117.367 55.32 118.167 55.52 118.727 55.92C119.287 56.2933 119.567 56.8933 119.567 57.72C119.567 58.7867 119.14 59.8133 118.287 60.8C117.433 61.76 116.26 62.5333 114.767 63.12C113.3 63.7067 111.673 64 109.887 64ZM130.622 64C129.689 64 128.996 63.7733 128.542 63.32C128.116 62.8667 127.902 62.1467 127.902 61.16C127.902 59.9867 128.249 57.5733 128.942 53.92C129.662 50.24 130.476 46.6 131.382 43L129.582 41C130.222 40.44 130.969 39.9867 131.822 39.64C132.702 39.2933 133.489 39.12 134.182 39.12C134.982 39.12 135.542 39.28 135.862 39.6C136.182 39.92 136.342 40.4933 136.342 41.32C136.342 42.0133 136.222 42.8 135.982 43.68C135.769 44.56 135.476 45.3733 135.102 46.12L135.502 46.32C138.196 41.44 141.689 39 145.982 39C147.716 39 148.996 39.44 149.822 40.32C150.676 41.1733 151.102 42.5067 151.102 44.32C151.102 45.3867 150.982 46.4933 150.742 47.64C150.529 48.7867 150.209 50.2267 149.782 51.96C149.276 53.9867 148.902 55.6533 148.662 56.96C148.422 58.24 148.302 59.52 148.302 60.8C148.302 61.76 148.476 62.4533 148.822 62.88C148.022 63.6267 147.169 64 146.262 64C145.356 64 144.676 63.7733 144.222 63.32C143.796 62.8667 143.582 62.1467 143.582 61.16C143.582 60.1467 143.689 59.0133 143.902 57.76C144.142 56.48 144.476 54.8267 144.902 52.8C145.302 51.12 145.596 49.72 145.782 48.6C145.996 47.4533 146.102 46.4667 146.102 45.64C146.102 43.48 145.289 42.4 143.662 42.4C141.769 42.4 139.969 43.3067 138.262 45.12C136.582 46.9067 135.222 49.2267 134.182 52.08C133.169 54.9333 132.662 57.84 132.662 60.8C132.662 61.7867 132.822 62.48 133.142 62.88C132.342 63.6267 131.502 64 130.622 64ZM162.455 64C161.628 64 160.975 63.76 160.495 63.28C160.015 62.8 159.775 61.9067 159.775 60.6C159.775 59.2933 159.948 57.8 160.295 56.12C160.641 54.44 161.148 52.28 161.815 49.64C162.428 47.24 162.881 45.3333 163.175 43.92C163.468 42.48 163.615 41.24 163.615 40.2C163.615 39.24 163.481 38.16 163.215 36.96L163.135 36.64C163.588 36.16 164.188 35.7867 164.935 35.52C165.681 35.2267 166.415 35.08 167.135 35.08C167.908 35.08 168.468 35.2533 168.815 35.6C169.161 35.9467 169.335 36.52 169.335 37.32C169.335 37.96 169.201 38.7867 168.935 39.8C168.695 40.8133 168.295 42.24 167.735 44.08C166.721 47.44 165.921 50.3733 165.335 52.88C164.775 55.36 164.508 57.8667 164.535 60.4L165.815 62.56C165.335 63.04 164.788 63.4 164.175 63.64C163.588 63.88 163.015 64 162.455 64ZM160.415 45.48C159.748 45.48 159.268 45.36 158.975 45.12C158.681 44.8533 158.535 44.4533 158.535 43.92C158.535 43.2267 158.748 42.5733 159.175 41.96C159.921 42.2 161.135 42.32 162.815 42.32C163.828 42.32 165.161 42.1733 166.815 41.88C167.508 41.7733 168.228 41.68 168.975 41.6C169.721 41.4933 170.401 41.44 171.015 41.44C171.708 41.44 172.188 41.5733 172.455 41.84C172.721 42.1067 172.855 42.5067 172.855 43.04C172.855 43.7333 172.641 44.36 172.215 44.92C171.815 44.8133 171.268 44.7333 170.575 44.68C169.908 44.6 169.281 44.56 168.695 44.56C168.135 44.56 167.495 44.6133 166.775 44.72C166.055 44.8 165.361 44.8933 164.695 45C162.775 45.32 161.348 45.48 160.415 45.48ZM178.386 64C177.586 64 176.973 63.7333 176.546 63.2C176.12 62.6933 175.906 61.9067 175.906 60.84C175.906 59.8 176.2 57.32 176.786 53.4C177.373 49.4533 178.04 45.28 178.786 40.88C178.946 39.9467 179.106 39.0533 179.266 38.2C179.426 37.32 179.573 36.4933 179.706 35.72L177.946 33.72C178.56 33.1867 179.293 32.7733 180.146 32.48C181.026 32.16 181.826 32 182.546 32C183.293 32 183.826 32.1733 184.146 32.52C184.466 32.84 184.626 33.4 184.626 34.2C184.626 34.5467 184.52 35.28 184.306 36.4C184.093 37.52 183.84 38.7733 183.546 40.16C182.666 44.4533 181.946 48.2667 181.386 51.6C180.853 54.9067 180.586 57.8533 180.586 60.44C180.586 60.9467 180.653 61.4267 180.786 61.88C180.946 62.3067 181.146 62.64 181.386 62.88C180.986 63.2267 180.533 63.4933 180.026 63.68C179.52 63.8933 178.973 64 178.386 64ZM189.586 71C187.906 71 186.653 70.7067 185.826 70.12C185 69.5333 184.586 68.7333 184.586 67.72C184.586 67.3467 184.666 66.9467 184.826 66.52C184.986 66.12 185.173 65.76 185.386 65.44C185.946 66.08 186.6 66.6 187.346 67C188.093 67.4 189.146 67.6 190.506 67.6C192.64 67.6 195.04 66.7333 197.706 65C200.4 63.2933 202.733 60.5333 204.706 56.72C206.706 52.9067 207.706 48.0667 207.706 42.2C207.706 41.1067 207.68 40.3733 207.626 40C208.24 39.6267 208.746 39.3733 209.146 39.24C209.546 39.08 209.973 39 210.426 39C211.786 39 212.466 39.8 212.466 41.4C212.466 45.72 211.506 50.1867 209.586 54.8C207.666 59.4133 204.96 63.2667 201.466 66.36C198 69.4533 194.04 71 189.586 71ZM200.026 64C197.786 64 196.133 63.4 195.066 62.2C194 61 193.32 59.5467 193.026 57.84C192.76 56.1067 192.586 53.7867 192.506 50.88C192.48 48.96 192.413 47.3867 192.306 46.16C192.2 44.9067 191.96 43.7333 191.586 42.64C191.24 41.5467 190.693 40.6667 189.946 40C190.8 39.3333 191.72 39 192.706 39C194.12 39 195.146 39.5067 195.786 40.52C196.453 41.5067 196.853 42.7333 196.986 44.2C197.146 45.64 197.226 47.6133 197.226 50.12C197.253 52.8133 197.346 54.9467 197.506 56.52C197.693 58.0933 198.173 59.44 198.946 60.56C199.746 61.6533 200.973 62.2 202.626 62.2L200.026 64ZM236.836 64C235.582 64 234.609 63.7467 233.916 63.24C233.222 62.7333 232.729 61.9067 232.436 60.76C232.142 59.5867 231.996 57.9333 231.996 55.8C231.996 54.52 232.009 53.5733 232.036 52.96C232.062 50.6133 232.036 48.72 231.956 47.28C231.902 45.84 231.689 44.48 231.316 43.2C230.969 41.8933 230.382 40.8267 229.556 40C230.409 39.3333 231.356 39 232.396 39C233.516 39 234.369 39.3867 234.956 40.16C235.569 40.9333 235.996 42.2 236.236 43.96C236.476 45.6933 236.596 48.16 236.596 51.36C236.596 52.7733 236.596 54.0133 236.596 55.08C236.596 56.12 236.596 57.0133 236.596 57.76C236.596 58.4533 236.596 59.0267 236.596 59.48C236.622 59.9067 236.622 60.2667 236.596 60.56H236.996C240.142 56.1067 242.436 52.48 243.876 49.68C245.342 46.88 246.076 44.76 246.076 43.32C246.076 42.0133 245.796 40.9067 245.236 40C245.929 39.6267 246.502 39.3733 246.956 39.24C247.436 39.08 247.929 39 248.436 39C249.129 39 249.676 39.2667 250.076 39.8C250.476 40.3333 250.676 41.0533 250.676 41.96C250.676 43.0267 250.329 44.44 249.636 46.2C248.942 47.9333 247.889 50.04 246.476 52.52C245.062 54.9733 243.276 57.8267 241.116 61.08L241.716 62.28C241.209 62.7867 240.489 63.2 239.556 63.52C238.622 63.84 237.716 64 236.836 64ZM259.645 64C258.738 64 258.058 63.7733 257.605 63.32C257.151 62.8667 256.925 62.1467 256.925 61.16C256.925 60.0667 257.178 58.12 257.685 55.32C258.218 52.52 259.111 48.3067 260.365 42.68L258.605 40.68C259.245 40.1733 259.978 39.7733 260.805 39.48C261.658 39.16 262.431 39 263.125 39C263.925 39 264.485 39.1733 264.805 39.52C265.151 39.84 265.325 40.4 265.325 41.2C265.325 41.3333 265.245 41.7333 265.085 42.4C264.951 43.0667 264.778 43.8133 264.565 44.64C263.738 48.0267 263.045 51.0933 262.485 53.84C261.951 56.5867 261.685 58.9067 261.685 60.8C261.685 61.8133 261.925 62.52 262.405 62.92C261.525 63.64 260.605 64 259.645 64ZM263.205 35.6C262.351 35.6 261.671 35.4 261.165 35C260.658 34.5733 260.405 34.0133 260.405 33.32C260.405 32.7867 260.551 32.2933 260.845 31.84C261.165 31.3867 261.591 31.0267 262.125 30.76C262.658 30.4667 263.271 30.32 263.965 30.32C264.845 30.32 265.525 30.5333 266.005 30.96C266.511 31.36 266.765 31.8933 266.765 32.56C266.765 33.4133 266.431 34.1333 265.765 34.72C265.098 35.3067 264.245 35.6 263.205 35.6ZM280.473 64C277.646 64 275.433 63.1333 273.833 61.4C272.233 59.6667 271.433 57.28 271.433 54.24C271.433 51.36 272.059 48.76 273.312 46.44C274.566 44.12 276.299 42.3067 278.513 41C280.726 39.6667 283.193 39 285.913 39C288.019 39 289.659 39.5067 290.833 40.52C292.033 41.5333 292.633 42.9333 292.633 44.72C292.633 46.6133 291.953 48.24 290.593 49.6C289.233 50.9333 287.246 51.96 284.633 52.68C282.046 53.3733 278.913 53.72 275.233 53.72L275.713 51.48C279.686 51.5067 282.766 50.92 284.953 49.72C287.166 48.4933 288.273 46.7867 288.273 44.6C288.273 43.6667 287.993 42.92 287.433 42.36C286.873 41.8 286.139 41.52 285.233 41.52C283.659 41.52 282.193 42.1067 280.833 43.28C279.473 44.4267 278.393 46 277.593 48C276.793 49.9733 276.393 52.1333 276.393 54.48C276.393 56.6133 276.793 58.2933 277.593 59.52C278.393 60.72 279.486 61.32 280.873 61.32C282.606 61.32 284.019 60.7733 285.113 59.68C286.206 58.5867 286.806 57.1333 286.913 55.32C287.953 55.32 288.753 55.52 289.313 55.92C289.873 56.2933 290.153 56.8933 290.153 57.72C290.153 58.7867 289.726 59.8133 288.872 60.8C288.019 61.76 286.846 62.5333 285.353 63.12C283.886 63.7067 282.259 64 280.473 64ZM302.808 64C302.035 64 301.448 63.84 301.048 63.52C300.648 63.2267 300.355 62.7333 300.168 62.04C300.008 61.32 299.928 60.2933 299.928 58.96C299.928 57.5467 299.941 56.48 299.968 55.76C299.995 52.8267 299.968 50.5067 299.888 48.8C299.808 47.0933 299.581 45.4533 299.208 43.88C298.835 42.3067 298.221 41.0133 297.368 40C298.221 39.3333 299.168 39 300.208 39C301.328 39 302.181 39.3867 302.768 40.16C303.381 40.9333 303.808 42.2 304.048 43.96C304.288 45.6933 304.408 48.16 304.408 51.36V56.4C304.408 58.72 304.395 60.1067 304.368 60.56H304.768C307.515 57.12 309.528 53.96 310.808 51.08C312.088 48.1733 312.888 45.9333 313.208 44.36C313.235 44.3067 313.248 44.2667 313.248 44.24C313.248 44.1867 313.248 44.1467 313.248 44.12C313.248 43.8533 313.141 43.5333 312.928 43.16C312.715 42.76 312.501 42.3867 312.288 42.04C312.021 41.6933 311.848 41.4133 311.768 41.2C312.275 40.8267 312.715 40.5733 313.088 40.44C313.488 40.28 313.901 40.2 314.328 40.2C315.101 40.2 315.701 40.4533 316.128 40.96C316.581 41.4667 316.808 42.1733 316.808 43.08C316.808 44.28 316.515 45.6 315.928 47.04C315.341 48.4533 314.341 50.44 312.928 53C312.795 53.2133 312.661 53.44 312.528 53.68C312.395 53.92 312.261 54.1733 312.128 54.44C310.688 57.0267 309.461 59 308.448 60.36C307.435 61.72 306.488 62.6667 305.608 63.2C304.755 63.7333 303.821 64 302.808 64ZM316.648 64C315.688 64 314.941 63.7733 314.408 63.32C313.875 62.8667 313.488 62.2533 313.248 61.48C313.035 60.68 312.888 59.6533 312.808 58.4L311.568 41.24C311.888 40.8933 312.288 40.64 312.768 40.48C313.248 40.2933 313.768 40.2 314.328 40.2L315.368 42.6L316.008 60.56H316.408C319.101 56.1333 321.061 52.52 322.288 49.72C323.541 46.8933 324.168 44.76 324.168 43.32C324.168 42.0133 323.901 40.9067 323.368 40C324.035 39.6267 324.595 39.3733 325.048 39.24C325.528 39.08 326.035 39 326.568 39C327.261 39 327.795 39.2667 328.168 39.8C328.568 40.3333 328.768 41.0533 328.768 41.96C328.768 43.0267 328.461 44.44 327.848 46.2C327.261 47.9333 326.355 50.04 325.128 52.52C323.901 55 322.355 57.8533 320.488 61.08L321.128 62.28C320.648 62.7867 319.981 63.2 319.128 63.52C318.275 63.84 317.448 64 316.648 64ZM343.051 64C340.224 64 338.011 63.1333 336.411 61.4C334.811 59.6667 334.011 57.28 334.011 54.24C334.011 51.36 334.637 48.76 335.891 46.44C337.144 44.12 338.877 42.3067 341.091 41C343.304 39.6667 345.771 39 348.491 39C350.597 39 352.237 39.5067 353.411 40.52C354.611 41.5333 355.211 42.9333 355.211 44.72C355.211 46.6133 354.531 48.24 353.171 49.6C351.811 50.9333 349.824 51.96 347.211 52.68C344.624 53.3733 341.491 53.72 337.811 53.72L338.291 51.48C342.264 51.5067 345.344 50.92 347.531 49.72C349.744 48.4933 350.851 46.7867 350.851 44.6C350.851 43.6667 350.571 42.92 350.011 42.36C349.451 41.8 348.717 41.52 347.811 41.52C346.237 41.52 344.771 42.1067 343.411 43.28C342.051 44.4267 340.971 46 340.171 48C339.371 49.9733 338.971 52.1333 338.971 54.48C338.971 56.6133 339.371 58.2933 340.171 59.52C340.971 60.72 342.064 61.32 343.451 61.32C345.184 61.32 346.597 60.7733 347.691 59.68C348.784 58.5867 349.384 57.1333 349.491 55.32C350.531 55.32 351.331 55.52 351.891 55.92C352.451 56.2933 352.731 56.8933 352.731 57.72C352.731 58.7867 352.304 59.8133 351.451 60.8C350.597 61.76 349.424 62.5333 347.931 63.12C346.464 63.7067 344.837 64 343.051 64ZM367.186 64C365.746 64 364.466 63.6133 363.346 62.84C362.253 62.0667 361.4 60.9733 360.786 59.56C360.2 58.12 359.906 56.4667 359.906 54.6C359.906 51.9067 360.586 49.4533 361.946 47.24C363.306 45 365.16 43.24 367.506 41.96C369.853 40.6533 372.44 40 375.266 40C376.706 40 377.96 40.1067 379.026 40.32C379.346 40.8267 379.506 41.4533 379.506 42.2C376.546 42.2 373.96 42.72 371.746 43.76C369.533 44.8 367.826 46.2533 366.626 48.12C365.426 49.96 364.826 52.08 364.826 54.48C364.826 56.2933 365.2 57.7067 365.946 58.72C366.693 59.7333 367.746 60.24 369.106 60.24C370.573 60.24 372.013 59.5867 373.426 58.28C374.84 56.9733 375.933 55.2133 376.706 53L376.346 58.44L375.546 58.12C374.586 59.9867 373.373 61.44 371.906 62.48C370.466 63.4933 368.893 64 367.186 64ZM378.306 64C377.48 64 376.853 63.7333 376.426 63.2C376 62.6933 375.786 61.9067 375.786 60.84C375.786 59.8267 376.066 57.4667 376.626 53.76C377.186 50.0267 377.866 45.7333 378.666 40.88C378.853 39.9467 379.013 39.0533 379.146 38.2C379.306 37.32 379.453 36.4933 379.586 35.72L377.826 33.72C378.466 33.1867 379.213 32.7733 380.066 32.48C380.92 32.16 381.706 32 382.426 32C383.173 32 383.706 32.1733 384.026 32.52C384.346 32.84 384.506 33.4 384.506 34.2C384.506 34.7333 384.386 35.56 384.146 36.68C383.933 37.8 383.68 39.0267 383.386 40.36C382.506 44.2533 381.8 47.7733 381.266 50.92C380.733 54.04 380.466 57.2133 380.466 60.44C380.466 60.92 380.533 61.3867 380.666 61.84C380.826 62.2933 381.04 62.64 381.306 62.88C380.88 63.2267 380.413 63.4933 379.906 63.68C379.426 63.8933 378.893 64 378.306 64Z" fill="#363A3A"/>
</g>
<defs>
<filter id="filter0_d_321_137" x="6" y="9" width="398" height="88" filterUnits="userSpaceOnUse" color-interpolation-filters="sRGB">
<feFlood flood-opacity="0" result="BackgroundImageFix"/>
<feColorMatrix in="SourceAlpha" type="matrix" values="0 0 0 0 0 0 0 0 0 0 0 0 0 0 0 0 0 0 127 0" result="hardAlpha"/>
<feOffset dy="4"/>
<feGaussianBlur stdDeviation="2"/>
<feComposite in2="hardAlpha" operator="out"/>
<feColorMatrix type="matrix" values="0 0 0 0 0 0 0 0 0 0 0 0 0 0 0 0 0 0 0.25 0"/>
<feBlend mode="normal" in2="BackgroundImageFix" result="effect1_dropShadow_321_137"/>
<feBlend mode="normal" in="SourceGraphic" in2="effect1_dropShadow_321_137" result="shape"/>
</filter>
<filter id="filter1_d_321_137" x="0.1" y="0.1" width="413.8" height="103.8" filterUnits="userSpaceOnUse" color-interpolation-filters="sRGB">
<feFlood flood-opacity="0" result="BackgroundImageFix"/>
<feColorMatrix in="SourceAlpha" type="matrix" values="0 0 0 0 0 0 0 0 0 0 0 0 0 0 0 0 0 0 127 0" result="hardAlpha"/>
<feMorphology radius="2" operator="erode" in="SourceAlpha" result="effect1_dropShadow_321_137"/>
<feOffset dx="2" dy="3"/>
<feGaussianBlur stdDeviation="6.95"/>
<feComposite in2="hardAlpha" operator="out"/>
<feColorMatrix type="matrix" values="0 0 0 0 0 0 0 0 0 0 0 0 0 0 0 0 0 0 0.25 0"/>
<feBlend mode="normal" in2="BackgroundImageFix" result="effect1_dropShadow_321_137"/>
<feBlend mode="normal" in="SourceGraphic" in2="effect1_dropShadow_321_137" result="shape"/>
</filter>
</defs>
</svg>
