<svg width="283" height="26" viewBox="0 0 283 26" fill="none" xmlns="http://www.w3.org/2000/svg">
<path d="M3.536 4.528V9.424H9.296V11.656H3.536V16.768H10.016V19H0.8V2.296H10.016V4.528H3.536ZM23.5379 9.16V11.464H13.6739V9.16H23.5379ZM43.433 5.56C44.473 5.56 45.401 5.776 46.217 6.208C47.049 6.64 47.697 7.28 48.161 8.128C48.641 8.976 48.881 10 48.881 11.2V19H46.169V11.608C46.169 10.424 45.873 9.52 45.281 8.896C44.689 8.256 43.881 7.936 42.857 7.936C41.833 7.936 41.017 8.256 40.409 8.896C39.817 9.52 39.521 10.424 39.521 11.608V19H36.809V11.608C36.809 10.424 36.513 9.52 35.921 8.896C35.329 8.256 34.521 7.936 33.497 7.936C32.473 7.936 31.657 8.256 31.049 8.896C30.457 9.52 30.161 10.424 30.161 11.608V19H27.425V5.776H30.161V7.288C30.609 6.744 31.177 6.32 31.865 6.016C32.553 5.712 33.289 5.56 34.073 5.56C35.129 5.56 36.073 5.784 36.905 6.232C37.737 6.68 38.377 7.328 38.825 8.176C39.225 7.376 39.849 6.744 40.697 6.28C41.545 5.8 42.457 5.56 43.433 5.56ZM51.4505 12.328C51.4505 11 51.7225 9.824 52.2665 8.8C52.8265 7.776 53.5785 6.984 54.5225 6.424C55.4825 5.848 56.5385 5.56 57.6905 5.56C58.7305 5.56 59.6345 5.768 60.4025 6.184C61.1865 6.584 61.8105 7.088 62.2745 7.696V5.776H65.0345V19H62.2745V17.032C61.8105 17.656 61.1785 18.176 60.3785 18.592C59.5785 19.008 58.6665 19.216 57.6425 19.216C56.5065 19.216 55.4665 18.928 54.5225 18.352C53.5785 17.76 52.8265 16.944 52.2665 15.904C51.7225 14.848 51.4505 13.656 51.4505 12.328ZM62.2745 12.376C62.2745 11.464 62.0825 10.672 61.6985 10C61.3305 9.328 60.8425 8.816 60.2345 8.464C59.6265 8.112 58.9705 7.936 58.2665 7.936C57.5625 7.936 56.9065 8.112 56.2985 8.464C55.6905 8.8 55.1945 9.304 54.8105 9.976C54.4425 10.632 54.2585 11.416 54.2585 12.328C54.2585 13.24 54.4425 14.04 54.8105 14.728C55.1945 15.416 55.6905 15.944 56.2985 16.312C56.9225 16.664 57.5785 16.84 58.2665 16.84C58.9705 16.84 59.6265 16.664 60.2345 16.312C60.8425 15.96 61.3305 15.448 61.6985 14.776C62.0825 14.088 62.2745 13.288 62.2745 12.376ZM70.0201 4.024C69.5241 4.024 69.1081 3.856 68.7721 3.52C68.4361 3.184 68.2681 2.768 68.2681 2.272C68.2681 1.776 68.4361 1.36 68.7721 1.024C69.1081 0.687999 69.5241 0.519999 70.0201 0.519999C70.5001 0.519999 70.9081 0.687999 71.2441 1.024C71.5801 1.36 71.7481 1.776 71.7481 2.272C71.7481 2.768 71.5801 3.184 71.2441 3.52C70.9081 3.856 70.5001 4.024 70.0201 4.024ZM71.3641 5.776V19H68.6281V5.776H71.3641ZM77.6923 1.24V19H74.9563V1.24H77.6923ZM82.3884 19.168C81.8924 19.168 81.4764 19 81.1404 18.664C80.8044 18.328 80.6364 17.912 80.6364 17.416C80.6364 16.92 80.8044 16.504 81.1404 16.168C81.4764 15.832 81.8924 15.664 82.3884 15.664C82.8684 15.664 83.2764 15.832 83.6124 16.168C83.9484 16.504 84.1164 16.92 84.1164 17.416C84.1164 17.912 83.9484 18.328 83.6124 18.664C83.2764 19 82.8684 19.168 82.3884 19.168ZM82.3884 9.088C81.8924 9.088 81.4764 8.92 81.1404 8.584C80.8044 8.248 80.6364 7.832 80.6364 7.336C80.6364 6.84 80.8044 6.424 81.1404 6.088C81.4764 5.752 81.8924 5.584 82.3884 5.584C82.8684 5.584 83.2764 5.752 83.6124 6.088C83.9484 6.424 84.1164 6.84 84.1164 7.336C84.1164 7.832 83.9484 8.248 83.6124 8.584C83.2764 8.92 82.8684 9.088 82.3884 9.088ZM99.0656 12.304L103.338 19H100.242L97.3856 14.512L94.6976 19H91.8416L96.1136 12.496L91.8416 5.776H94.9376L97.7936 10.264L100.482 5.776H103.338L99.0656 12.304ZM117.282 5.776L109.17 25.216H106.338L109.026 18.784L103.818 5.776H106.866L110.586 15.856L114.45 5.776H117.282ZM121.771 16.768H127.771V19H118.603V16.768L124.627 8.008H118.603V5.776H127.771V8.008L121.771 16.768ZM142.956 3.496C144.78 3.496 146.356 3.832 147.684 4.504C149.012 5.176 150.02 6.12 150.708 7.336C151.412 8.536 151.764 9.936 151.764 11.536C151.764 12.816 151.54 14.04 151.092 15.208C150.66 16.376 150.028 17.328 149.196 18.064C148.38 18.8 147.412 19.168 146.292 19.168C145.476 19.168 144.836 18.992 144.372 18.64C143.908 18.272 143.62 17.76 143.508 17.104C143.012 17.744 142.388 18.248 141.636 18.616C140.884 18.984 140.1 19.168 139.284 19.168C138.052 19.168 137.084 18.8 136.38 18.064C135.692 17.312 135.348 16.296 135.348 15.016C135.348 13.8 135.596 12.664 136.092 11.608C136.604 10.552 137.316 9.712 138.228 9.088C139.14 8.448 140.164 8.128 141.3 8.128C142.692 8.128 143.668 8.6 144.228 9.544L144.444 8.344H146.82L145.62 15.208C145.572 15.544 145.548 15.84 145.548 16.096C145.548 16.512 145.628 16.824 145.788 17.032C145.964 17.24 146.268 17.344 146.7 17.344C147.308 17.344 147.828 17.048 148.26 16.456C148.692 15.848 149.012 15.104 149.22 14.224C149.444 13.344 149.556 12.488 149.556 11.656C149.556 9.624 148.964 8.072 147.78 7C146.596 5.928 144.876 5.392 142.62 5.392C140.732 5.392 139.036 5.84 137.532 6.736C136.044 7.632 134.876 8.864 134.028 10.432C133.18 12 132.756 13.744 132.756 15.664C132.756 17.712 133.364 19.272 134.58 20.344C135.796 21.416 137.532 21.952 139.788 21.952C141.308 21.952 142.636 21.672 143.772 21.112L144.132 22.936C142.676 23.56 141.044 23.872 139.236 23.872C137.492 23.872 135.964 23.544 134.652 22.888C133.34 22.232 132.324 21.296 131.604 20.08C130.884 18.88 130.524 17.48 130.524 15.88C130.524 13.592 131.052 11.504 132.108 9.616C133.18 7.728 134.66 6.24 136.548 5.152C138.436 4.048 140.572 3.496 142.956 3.496ZM140.124 17.056C140.796 17.056 141.404 16.864 141.948 16.48C142.508 16.08 142.948 15.56 143.268 14.92C143.588 14.264 143.748 13.568 143.748 12.832C143.748 12.064 143.532 11.44 143.1 10.96C142.684 10.464 142.092 10.216 141.324 10.216C140.636 10.216 140.028 10.432 139.5 10.864C138.988 11.28 138.588 11.824 138.3 12.496C138.028 13.168 137.892 13.872 137.892 14.608C137.892 15.36 138.076 15.96 138.444 16.408C138.812 16.84 139.372 17.056 140.124 17.056ZM160.581 5.56C161.605 5.56 162.509 5.768 163.293 6.184C164.093 6.584 164.717 7.088 165.165 7.696V5.776H167.925V19.216C167.925 20.432 167.669 21.512 167.157 22.456C166.645 23.416 165.901 24.168 164.925 24.712C163.965 25.256 162.813 25.528 161.469 25.528C159.677 25.528 158.189 25.104 157.005 24.256C155.821 23.424 155.149 22.288 154.989 20.848H157.701C157.909 21.536 158.349 22.088 159.021 22.504C159.709 22.936 160.525 23.152 161.469 23.152C162.573 23.152 163.461 22.816 164.133 22.144C164.821 21.472 165.165 20.496 165.165 19.216V17.008C164.701 17.632 164.069 18.16 163.269 18.592C162.485 19.008 161.589 19.216 160.581 19.216C159.429 19.216 158.373 18.928 157.413 18.352C156.469 17.76 155.717 16.944 155.157 15.904C154.613 14.848 154.341 13.656 154.341 12.328C154.341 11 154.613 9.824 155.157 8.8C155.717 7.776 156.469 6.984 157.413 6.424C158.373 5.848 159.429 5.56 160.581 5.56ZM165.165 12.376C165.165 11.464 164.973 10.672 164.589 10C164.221 9.328 163.733 8.816 163.125 8.464C162.517 8.112 161.861 7.936 161.157 7.936C160.453 7.936 159.797 8.112 159.189 8.464C158.581 8.8 158.085 9.304 157.701 9.976C157.333 10.632 157.149 11.416 157.149 12.328C157.149 13.24 157.333 14.04 157.701 14.728C158.085 15.416 158.581 15.944 159.189 16.312C159.813 16.664 160.469 16.84 161.157 16.84C161.861 16.84 162.517 16.664 163.125 16.312C163.733 15.96 164.221 15.448 164.589 14.776C164.973 14.088 165.165 13.288 165.165 12.376ZM187.527 5.56C188.567 5.56 189.495 5.776 190.311 6.208C191.143 6.64 191.791 7.28 192.255 8.128C192.735 8.976 192.975 10 192.975 11.2V19H190.263V11.608C190.263 10.424 189.967 9.52 189.375 8.896C188.783 8.256 187.975 7.936 186.951 7.936C185.927 7.936 185.111 8.256 184.503 8.896C183.911 9.52 183.615 10.424 183.615 11.608V19H180.903V11.608C180.903 10.424 180.607 9.52 180.015 8.896C179.423 8.256 178.615 7.936 177.591 7.936C176.567 7.936 175.751 8.256 175.143 8.896C174.551 9.52 174.255 10.424 174.255 11.608V19H171.519V5.776H174.255V7.288C174.703 6.744 175.271 6.32 175.959 6.016C176.647 5.712 177.383 5.56 178.167 5.56C179.223 5.56 180.167 5.784 180.999 6.232C181.831 6.68 182.471 7.328 182.919 8.176C183.319 7.376 183.943 6.744 184.791 6.28C185.639 5.8 186.551 5.56 187.527 5.56ZM195.544 12.328C195.544 11 195.816 9.824 196.36 8.8C196.92 7.776 197.672 6.984 198.616 6.424C199.576 5.848 200.632 5.56 201.784 5.56C202.824 5.56 203.728 5.768 204.496 6.184C205.28 6.584 205.904 7.088 206.368 7.696V5.776H209.128V19H206.368V17.032C205.904 17.656 205.272 18.176 204.472 18.592C203.672 19.008 202.76 19.216 201.736 19.216C200.6 19.216 199.56 18.928 198.616 18.352C197.672 17.76 196.92 16.944 196.36 15.904C195.816 14.848 195.544 13.656 195.544 12.328ZM206.368 12.376C206.368 11.464 206.176 10.672 205.792 10C205.424 9.328 204.936 8.816 204.328 8.464C203.72 8.112 203.064 7.936 202.36 7.936C201.656 7.936 201 8.112 200.392 8.464C199.784 8.8 199.288 9.304 198.904 9.976C198.536 10.632 198.352 11.416 198.352 12.328C198.352 13.24 198.536 14.04 198.904 14.728C199.288 15.416 199.784 15.944 200.392 16.312C201.016 16.664 201.672 16.84 202.36 16.84C203.064 16.84 203.72 16.664 204.328 16.312C204.936 15.96 205.424 15.448 205.792 14.776C206.176 14.088 206.368 13.288 206.368 12.376ZM214.114 4.024C213.618 4.024 213.202 3.856 212.866 3.52C212.53 3.184 212.362 2.768 212.362 2.272C212.362 1.776 212.53 1.36 212.866 1.024C213.202 0.687999 213.618 0.519999 214.114 0.519999C214.594 0.519999 215.002 0.687999 215.338 1.024C215.674 1.36 215.842 1.776 215.842 2.272C215.842 2.768 215.674 3.184 215.338 3.52C215.002 3.856 214.594 4.024 214.114 4.024ZM215.458 5.776V19H212.722V5.776H215.458ZM221.786 1.24V19H219.05V1.24H221.786ZM226.482 19.168C225.986 19.168 225.57 19 225.234 18.664C224.898 18.328 224.73 17.912 224.73 17.416C224.73 16.92 224.898 16.504 225.234 16.168C225.57 15.832 225.986 15.664 226.482 15.664C226.962 15.664 227.37 15.832 227.706 16.168C228.042 16.504 228.21 16.92 228.21 17.416C228.21 17.912 228.042 18.328 227.706 18.664C227.37 19 226.962 19.168 226.482 19.168ZM230.255 12.376C230.255 11.016 230.527 9.824 231.071 8.8C231.631 7.76 232.399 6.96 233.375 6.4C234.351 5.84 235.471 5.56 236.735 5.56C238.335 5.56 239.655 5.944 240.695 6.712C241.751 7.464 242.463 8.544 242.831 9.952H239.879C239.639 9.296 239.255 8.784 238.727 8.416C238.199 8.048 237.535 7.864 236.735 7.864C235.615 7.864 234.719 8.264 234.047 9.064C233.391 9.848 233.063 10.952 233.063 12.376C233.063 13.8 233.391 14.912 234.047 15.712C234.719 16.512 235.615 16.912 236.735 16.912C238.319 16.912 239.367 16.216 239.879 14.824H242.831C242.447 16.168 241.727 17.24 240.671 18.04C239.615 18.824 238.303 19.216 236.735 19.216C235.471 19.216 234.351 18.936 233.375 18.376C232.399 17.8 231.631 17 231.071 15.976C230.527 14.936 230.255 13.736 230.255 12.376ZM251.294 19.216C250.046 19.216 248.918 18.936 247.91 18.376C246.902 17.8 246.11 17 245.534 15.976C244.958 14.936 244.67 13.736 244.67 12.376C244.67 11.032 244.966 9.84 245.558 8.8C246.15 7.76 246.958 6.96 247.982 6.4C249.006 5.84 250.15 5.56 251.414 5.56C252.678 5.56 253.822 5.84 254.846 6.4C255.87 6.96 256.678 7.76 257.27 8.8C257.862 9.84 258.158 11.032 258.158 12.376C258.158 13.72 257.854 14.912 257.246 15.952C256.638 16.992 255.806 17.8 254.75 18.376C253.71 18.936 252.558 19.216 251.294 19.216ZM251.294 16.84C251.998 16.84 252.654 16.672 253.262 16.336C253.886 16 254.39 15.496 254.774 14.824C255.158 14.152 255.35 13.336 255.35 12.376C255.35 11.416 255.166 10.608 254.798 9.952C254.43 9.28 253.942 8.776 253.334 8.44C252.726 8.104 252.07 7.936 251.366 7.936C250.662 7.936 250.006 8.104 249.398 8.44C248.806 8.776 248.334 9.28 247.982 9.952C247.63 10.608 247.454 11.416 247.454 12.376C247.454 13.8 247.814 14.904 248.534 15.688C249.27 16.456 250.19 16.84 251.294 16.84ZM276.871 5.56C277.911 5.56 278.839 5.776 279.655 6.208C280.487 6.64 281.135 7.28 281.599 8.128C282.079 8.976 282.319 10 282.319 11.2V19H279.607V11.608C279.607 10.424 279.311 9.52 278.719 8.896C278.127 8.256 277.319 7.936 276.295 7.936C275.271 7.936 274.455 8.256 273.847 8.896C273.255 9.52 272.959 10.424 272.959 11.608V19H270.247V11.608C270.247 10.424 269.951 9.52 269.359 8.896C268.767 8.256 267.959 7.936 266.935 7.936C265.911 7.936 265.095 8.256 264.487 8.896C263.895 9.52 263.599 10.424 263.599 11.608V19H260.863V5.776H263.599V7.288C264.047 6.744 264.615 6.32 265.303 6.016C265.991 5.712 266.727 5.56 267.511 5.56C268.567 5.56 269.511 5.784 270.343 6.232C271.175 6.68 271.815 7.328 272.263 8.176C272.663 7.376 273.287 6.744 274.135 6.28C274.983 5.8 275.895 5.56 276.871 5.56Z" fill="#1E1E1E" fill-opacity="0.75"/>
</svg>
