<svg width="58" height="45" viewBox="0 0 58 45" fill="none" xmlns="http://www.w3.org/2000/svg">
<path d="M5.688 20.126C4.764 20.126 3.936 19.976 3.204 19.676C2.472 19.376 1.884 18.932 1.44 18.344C1.008 17.756 0.78 17.048 0.756 16.22H4.032C4.08 16.688 4.242 17.048 4.518 17.3C4.794 17.54 5.154 17.66 5.598 17.66C6.054 17.66 6.414 17.558 6.678 17.354C6.942 17.138 7.074 16.844 7.074 16.472C7.074 16.16 6.966 15.902 6.75 15.698C6.546 15.494 6.288 15.326 5.976 15.194C5.676 15.062 5.244 14.912 4.68 14.744C3.864 14.492 3.198 14.24 2.682 13.988C2.166 13.736 1.722 13.364 1.35 12.872C0.978 12.38 0.792 11.738 0.792 10.946C0.792 9.77 1.218 8.852 2.07 8.192C2.922 7.52 4.032 7.184 5.4 7.184C6.792 7.184 7.914 7.52 8.766 8.192C9.618 8.852 10.074 9.776 10.134 10.964H6.804C6.78 10.556 6.63 10.238 6.354 10.01C6.078 9.77 5.724 9.65 5.292 9.65C4.92 9.65 4.62 9.752 4.392 9.956C4.164 10.148 4.05 10.43 4.05 10.802C4.05 11.21 4.242 11.528 4.626 11.756C5.01 11.984 5.61 12.23 6.426 12.494C7.242 12.77 7.902 13.034 8.406 13.286C8.922 13.538 9.366 13.904 9.738 14.384C10.11 14.864 10.296 15.482 10.296 16.238C10.296 16.958 10.11 17.612 9.738 18.2C9.378 18.788 8.85 19.256 8.154 19.604C7.458 19.952 6.636 20.126 5.688 20.126ZM25.0062 9.848C26.2542 9.848 27.2442 10.226 27.9762 10.982C28.7202 11.738 29.0922 12.788 29.0922 14.132V20H26.0322V14.546C26.0322 13.898 25.8582 13.4 25.5102 13.052C25.1742 12.692 24.7062 12.512 24.1062 12.512C23.5062 12.512 23.0322 12.692 22.6842 13.052C22.3482 13.4 22.1802 13.898 22.1802 14.546V20H19.1202V14.546C19.1202 13.898 18.9462 13.4 18.5982 13.052C18.2622 12.692 17.7942 12.512 17.1942 12.512C16.5942 12.512 16.1202 12.692 15.7722 13.052C15.4362 13.4 15.2682 13.898 15.2682 14.546V20H12.1902V9.956H15.2682V11.216C15.5802 10.796 15.9882 10.466 16.4922 10.226C16.9962 9.974 17.5662 9.848 18.2022 9.848C18.9582 9.848 19.6302 10.01 20.2182 10.334C20.8182 10.658 21.2862 11.12 21.6222 11.72C21.9702 11.168 22.4442 10.718 23.0442 10.37C23.6442 10.022 24.2982 9.848 25.0062 9.848ZM32.7929 8.912C32.2529 8.912 31.8089 8.756 31.4609 8.444C31.1249 8.12 30.9569 7.724 30.9569 7.256C30.9569 6.776 31.1249 6.38 31.4609 6.068C31.8089 5.744 32.2529 5.582 32.7929 5.582C33.3209 5.582 33.7529 5.744 34.0889 6.068C34.4369 6.38 34.6109 6.776 34.6109 7.256C34.6109 7.724 34.4369 8.12 34.0889 8.444C33.7529 8.756 33.3209 8.912 32.7929 8.912ZM34.3229 9.956V20H31.2449V9.956H34.3229ZM42.1515 17.39V20H40.5855C39.4695 20 38.5995 19.73 37.9755 19.19C37.3515 18.638 37.0395 17.744 37.0395 16.508V12.512H35.8155V9.956H37.0395V7.508H40.1175V9.956H42.1335V12.512H40.1175V16.544C40.1175 16.844 40.1895 17.06 40.3335 17.192C40.4775 17.324 40.7175 17.39 41.0535 17.39H42.1515ZM52.2525 20.126C51.3285 20.126 50.5005 19.976 49.7685 19.676C49.0365 19.376 48.4485 18.932 48.0045 18.344C47.5725 17.756 47.3445 17.048 47.3205 16.22H50.5965C50.6445 16.688 50.8065 17.048 51.0825 17.3C51.3585 17.54 51.7185 17.66 52.1625 17.66C52.6185 17.66 52.9785 17.558 53.2425 17.354C53.5065 17.138 53.6385 16.844 53.6385 16.472C53.6385 16.16 53.5305 15.902 53.3145 15.698C53.1105 15.494 52.8525 15.326 52.5405 15.194C52.2405 15.062 51.8085 14.912 51.2445 14.744C50.4285 14.492 49.7625 14.24 49.2465 13.988C48.7305 13.736 48.2865 13.364 47.9145 12.872C47.5425 12.38 47.3565 11.738 47.3565 10.946C47.3565 9.77 47.7825 8.852 48.6345 8.192C49.4865 7.52 50.5965 7.184 51.9645 7.184C53.3565 7.184 54.4785 7.52 55.3305 8.192C56.1825 8.852 56.6385 9.776 56.6985 10.964H53.3685C53.3445 10.556 53.1945 10.238 52.9185 10.01C52.6425 9.77 52.2885 9.65 51.8565 9.65C51.4845 9.65 51.1845 9.752 50.9565 9.956C50.7285 10.148 50.6145 10.43 50.6145 10.802C50.6145 11.21 50.8065 11.528 51.1905 11.756C51.5745 11.984 52.1745 12.23 52.9905 12.494C53.8065 12.77 54.4665 13.034 54.9705 13.286C55.4865 13.538 55.9305 13.904 56.3025 14.384C56.6745 14.864 56.8605 15.482 56.8605 16.238C56.8605 16.958 56.6745 17.612 56.3025 18.2C55.9425 18.788 55.4145 19.256 54.7185 19.604C54.0225 19.952 53.2005 20.126 52.2525 20.126Z" fill="#1E1E1E"/>
<path d="M3.648 40.084C3.088 40.084 2.584 39.988 2.136 39.796C1.688 39.596 1.336 39.316 1.08 38.956C0.824 38.596 0.696 38.176 0.696 37.696H2.16C2.192 38.056 2.332 38.352 2.58 38.584C2.836 38.816 3.192 38.932 3.648 38.932C4.12 38.932 4.488 38.82 4.752 38.596C5.016 38.364 5.148 38.068 5.148 37.708C5.148 37.428 5.064 37.2 4.896 37.024C4.736 36.848 4.532 36.712 4.284 36.616C4.044 36.52 3.708 36.416 3.276 36.304C2.732 36.16 2.288 36.016 1.944 35.872C1.608 35.72 1.32 35.488 1.08 35.176C0.84 34.864 0.72 34.448 0.72 33.928C0.72 33.448 0.84 33.028 1.08 32.668C1.32 32.308 1.656 32.032 2.088 31.84C2.52 31.648 3.02 31.552 3.588 31.552C4.396 31.552 5.056 31.756 5.568 32.164C6.088 32.564 6.376 33.116 6.432 33.82H4.92C4.896 33.516 4.752 33.256 4.488 33.04C4.224 32.824 3.876 32.716 3.444 32.716C3.052 32.716 2.732 32.816 2.484 33.016C2.236 33.216 2.112 33.504 2.112 33.88C2.112 34.136 2.188 34.348 2.34 34.516C2.5 34.676 2.7 34.804 2.94 34.9C3.18 34.996 3.508 35.1 3.924 35.212C4.476 35.364 4.924 35.516 5.268 35.668C5.62 35.82 5.916 36.056 6.156 36.376C6.404 36.688 6.528 37.108 6.528 37.636C6.528 38.06 6.412 38.46 6.18 38.836C5.956 39.212 5.624 39.516 5.184 39.748C4.752 39.972 4.24 40.084 3.648 40.084ZM9.73819 34.504V38.164C9.73819 38.412 9.79419 38.592 9.90619 38.704C10.0262 38.808 10.2262 38.86 10.5062 38.86H11.3462V40H10.2662C9.65019 40 9.17819 39.856 8.85019 39.568C8.52219 39.28 8.35819 38.812 8.35819 38.164V34.504H7.57819V33.388H8.35819V31.744H9.73819V33.388H11.3462V34.504H9.73819ZM18.595 33.388V40H17.227V39.22C17.011 39.492 16.727 39.708 16.375 39.868C16.031 40.02 15.663 40.096 15.271 40.096C14.751 40.096 14.283 39.988 13.867 39.772C13.459 39.556 13.135 39.236 12.895 38.812C12.663 38.388 12.547 37.876 12.547 37.276V33.388H13.903V37.072C13.903 37.664 14.051 38.12 14.347 38.44C14.643 38.752 15.047 38.908 15.559 38.908C16.071 38.908 16.475 38.752 16.771 38.44C17.075 38.12 17.227 37.664 17.227 37.072V33.388H18.595ZM19.944 36.664C19.944 36 20.08 35.412 20.352 34.9C20.632 34.388 21.008 33.992 21.48 33.712C21.96 33.424 22.492 33.28 23.076 33.28C23.508 33.28 23.932 33.376 24.348 33.568C24.772 33.752 25.108 34 25.356 34.312V31.12H26.736V40H25.356V39.004C25.132 39.324 24.82 39.588 24.42 39.796C24.028 40.004 23.576 40.108 23.064 40.108C22.488 40.108 21.96 39.964 21.48 39.676C21.008 39.38 20.632 38.972 20.352 38.452C20.08 37.924 19.944 37.328 19.944 36.664ZM25.356 36.688C25.356 36.232 25.26 35.836 25.068 35.5C24.884 35.164 24.64 34.908 24.336 34.732C24.032 34.556 23.704 34.468 23.352 34.468C23 34.468 22.672 34.556 22.368 34.732C22.064 34.9 21.816 35.152 21.624 35.488C21.44 35.816 21.348 36.208 21.348 36.664C21.348 37.12 21.44 37.52 21.624 37.864C21.816 38.208 22.064 38.472 22.368 38.656C22.68 38.832 23.008 38.92 23.352 38.92C23.704 38.92 24.032 38.832 24.336 38.656C24.64 38.48 24.884 38.224 25.068 37.888C25.26 37.544 25.356 37.144 25.356 36.688ZM34.5928 36.532C34.5928 36.78 34.5768 37.004 34.5448 37.204H29.4928C29.5328 37.732 29.7288 38.156 30.0808 38.476C30.4328 38.796 30.8648 38.956 31.3768 38.956C32.1128 38.956 32.6328 38.648 32.9368 38.032H34.4128C34.2128 38.64 33.8488 39.14 33.3208 39.532C32.8008 39.916 32.1528 40.108 31.3768 40.108C30.7448 40.108 30.1768 39.968 29.6728 39.688C29.1768 39.4 28.7848 39 28.4968 38.488C28.2168 37.968 28.0768 37.368 28.0768 36.688C28.0768 36.008 28.2128 35.412 28.4848 34.9C28.7648 34.38 29.1528 33.98 29.6488 33.7C30.1528 33.42 30.7288 33.28 31.3768 33.28C32.0008 33.28 32.5568 33.416 33.0448 33.688C33.5328 33.96 33.9128 34.344 34.1848 34.84C34.4568 35.328 34.5928 35.892 34.5928 36.532ZM33.1648 36.1C33.1568 35.596 32.9768 35.192 32.6248 34.888C32.2728 34.584 31.8368 34.432 31.3168 34.432C30.8448 34.432 30.4408 34.584 30.1048 34.888C29.7688 35.184 29.5688 35.588 29.5048 36.1H33.1648ZM39.2751 33.28C39.7951 33.28 40.2591 33.388 40.6671 33.604C41.0831 33.82 41.4071 34.14 41.6391 34.564C41.8711 34.988 41.9871 35.5 41.9871 36.1V40H40.6311V36.304C40.6311 35.712 40.4831 35.26 40.1871 34.948C39.8911 34.628 39.4871 34.468 38.9751 34.468C38.4631 34.468 38.0551 34.628 37.7511 34.948C37.4551 35.26 37.3071 35.712 37.3071 36.304V40H35.9391V33.388H37.3071V34.144C37.5311 33.872 37.8151 33.66 38.1591 33.508C38.5111 33.356 38.8831 33.28 39.2751 33.28ZM45.328 34.504V38.164C45.328 38.412 45.384 38.592 45.496 38.704C45.616 38.808 45.816 38.86 46.096 38.86H46.936V40H45.856C45.24 40 44.768 39.856 44.44 39.568C44.112 39.28 43.948 38.812 43.948 38.164V34.504H43.168V33.388H43.948V31.744H45.328V33.388H46.936V34.504H45.328Z" fill="#1E1E1E" fill-opacity="0.5"/>
</svg>
