<svg width="285" height="19" viewBox="0 0 285 19" fill="none" xmlns="http://www.w3.org/2000/svg">
<path d="M0.888 9.624C0.888 7.992 1.264 6.528 2.016 5.232C2.784 3.936 3.816 2.928 5.112 2.208C6.424 1.472 7.856 1.104 9.408 1.104C11.184 1.104 12.76 1.544 14.136 2.424C15.528 3.288 16.536 4.52 17.16 6.12H13.872C13.44 5.24 12.84 4.584 12.072 4.152C11.304 3.72 10.416 3.504 9.408 3.504C8.304 3.504 7.32 3.752 6.456 4.248C5.592 4.744 4.912 5.456 4.416 6.384C3.936 7.312 3.696 8.392 3.696 9.624C3.696 10.856 3.936 11.936 4.416 12.864C4.912 13.792 5.592 14.512 6.456 15.024C7.32 15.52 8.304 15.768 9.408 15.768C10.416 15.768 11.304 15.552 12.072 15.12C12.84 14.688 13.44 14.032 13.872 13.152H17.16C16.536 14.752 15.528 15.984 14.136 16.848C12.76 17.712 11.184 18.144 9.408 18.144C7.84 18.144 6.408 17.784 5.112 17.064C3.816 16.328 2.784 15.312 2.016 14.016C1.264 12.72 0.888 11.256 0.888 9.624ZM26.0985 18.216C24.8505 18.216 23.7225 17.936 22.7145 17.376C21.7065 16.8 20.9145 16 20.3385 14.976C19.7625 13.936 19.4745 12.736 19.4745 11.376C19.4745 10.032 19.7705 8.84 20.3625 7.8C20.9545 6.76 21.7625 5.96 22.7865 5.4C23.8105 4.84 24.9545 4.56 26.2185 4.56C27.4825 4.56 28.6265 4.84 29.6505 5.4C30.6745 5.96 31.4825 6.76 32.0745 7.8C32.6665 8.84 32.9625 10.032 32.9625 11.376C32.9625 12.72 32.6585 13.912 32.0505 14.952C31.4425 15.992 30.6105 16.8 29.5545 17.376C28.5145 17.936 27.3625 18.216 26.0985 18.216ZM26.0985 15.84C26.8025 15.84 27.4585 15.672 28.0665 15.336C28.6905 15 29.1945 14.496 29.5785 13.824C29.9625 13.152 30.1545 12.336 30.1545 11.376C30.1545 10.416 29.9705 9.608 29.6025 8.952C29.2345 8.28 28.7465 7.776 28.1385 7.44C27.5305 7.104 26.8745 6.936 26.1705 6.936C25.4665 6.936 24.8105 7.104 24.2025 7.44C23.6105 7.776 23.1385 8.28 22.7865 8.952C22.4345 9.608 22.2585 10.416 22.2585 11.376C22.2585 12.8 22.6185 13.904 23.3385 14.688C24.0745 15.456 24.9945 15.84 26.0985 15.84ZM42.3392 4.56C43.3792 4.56 44.3072 4.776 45.1232 5.208C45.9552 5.64 46.6032 6.28 47.0672 7.128C47.5312 7.976 47.7632 9 47.7632 10.2V18H45.0512V10.608C45.0512 9.424 44.7552 8.52 44.1632 7.896C43.5712 7.256 42.7632 6.936 41.7392 6.936C40.7152 6.936 39.8992 7.256 39.2912 7.896C38.6992 8.52 38.4032 9.424 38.4032 10.608V18H35.6672V4.776H38.4032V6.288C38.8512 5.744 39.4192 5.32 40.1072 5.016C40.8112 4.712 41.5552 4.56 42.3392 4.56ZM54.4451 7.008V14.328C54.4451 14.824 54.5571 15.184 54.7811 15.408C55.0211 15.616 55.4211 15.72 55.9811 15.72H57.6611V18H55.5011C54.2691 18 53.3251 17.712 52.6691 17.136C52.0131 16.56 51.6851 15.624 51.6851 14.328V7.008H50.1251V4.776H51.6851V1.488H54.4451V4.776H57.6611V7.008H54.4451ZM59.2708 11.328C59.2708 10 59.5428 8.824 60.0868 7.8C60.6468 6.776 61.3988 5.984 62.3428 5.424C63.3028 4.848 64.3588 4.56 65.5108 4.56C66.5508 4.56 67.4548 4.768 68.2228 5.184C69.0068 5.584 69.6308 6.088 70.0948 6.696V4.776H72.8548V18H70.0948V16.032C69.6308 16.656 68.9988 17.176 68.1988 17.592C67.3988 18.008 66.4868 18.216 65.4628 18.216C64.3268 18.216 63.2868 17.928 62.3428 17.352C61.3988 16.76 60.6468 15.944 60.0868 14.904C59.5428 13.848 59.2708 12.656 59.2708 11.328ZM70.0948 11.376C70.0948 10.464 69.9028 9.672 69.5188 9C69.1508 8.328 68.6628 7.816 68.0548 7.464C67.4468 7.112 66.7908 6.936 66.0868 6.936C65.3828 6.936 64.7268 7.112 64.1188 7.464C63.5108 7.8 63.0148 8.304 62.6308 8.976C62.2628 9.632 62.0788 10.416 62.0788 11.328C62.0788 12.24 62.2628 13.04 62.6308 13.728C63.0148 14.416 63.5108 14.944 64.1188 15.312C64.7428 15.664 65.3988 15.84 66.0868 15.84C66.7908 15.84 67.4468 15.664 68.0548 15.312C68.6628 14.96 69.1508 14.448 69.5188 13.776C69.9028 13.088 70.0948 12.288 70.0948 11.376ZM75.5364 11.376C75.5364 10.016 75.8084 8.824 76.3524 7.8C76.9124 6.76 77.6804 5.96 78.6564 5.4C79.6324 4.84 80.7524 4.56 82.0164 4.56C83.6164 4.56 84.9364 4.944 85.9764 5.712C87.0324 6.464 87.7444 7.544 88.1124 8.952H85.1604C84.9204 8.296 84.5364 7.784 84.0084 7.416C83.4804 7.048 82.8164 6.864 82.0164 6.864C80.8964 6.864 80.0004 7.264 79.3284 8.064C78.6724 8.848 78.3444 9.952 78.3444 11.376C78.3444 12.8 78.6724 13.912 79.3284 14.712C80.0004 15.512 80.8964 15.912 82.0164 15.912C83.6004 15.912 84.6484 15.216 85.1604 13.824H88.1124C87.7284 15.168 87.0084 16.24 85.9524 17.04C84.8964 17.824 83.5844 18.216 82.0164 18.216C80.7524 18.216 79.6324 17.936 78.6564 17.376C77.6804 16.8 76.9124 16 76.3524 14.976C75.8084 13.936 75.5364 12.736 75.5364 11.376ZM94.0311 7.008V14.328C94.0311 14.824 94.1431 15.184 94.3671 15.408C94.6071 15.616 95.0071 15.72 95.5671 15.72H97.2471V18H95.0871C93.8551 18 92.9111 17.712 92.2551 17.136C91.5991 16.56 91.2711 15.624 91.2711 14.328V7.008H89.7111V4.776H91.2711V1.488H94.0311V4.776H97.2471V7.008H94.0311ZM112.675 4.56C113.715 4.56 114.643 4.776 115.459 5.208C116.291 5.64 116.939 6.28 117.403 7.128C117.867 7.976 118.099 9 118.099 10.2V18H115.387V10.608C115.387 9.424 115.091 8.52 114.499 7.896C113.907 7.256 113.099 6.936 112.075 6.936C111.051 6.936 110.235 7.256 109.627 7.896C109.035 8.52 108.739 9.424 108.739 10.608V18H106.003V4.776H108.739V6.288C109.187 5.744 109.755 5.32 110.443 5.016C111.147 4.712 111.891 4.56 112.675 4.56ZM127.325 18.216C126.077 18.216 124.949 17.936 123.941 17.376C122.933 16.8 122.141 16 121.565 14.976C120.989 13.936 120.701 12.736 120.701 11.376C120.701 10.032 120.997 8.84 121.589 7.8C122.181 6.76 122.989 5.96 124.013 5.4C125.037 4.84 126.181 4.56 127.445 4.56C128.709 4.56 129.853 4.84 130.877 5.4C131.901 5.96 132.709 6.76 133.301 7.8C133.893 8.84 134.189 10.032 134.189 11.376C134.189 12.72 133.885 13.912 133.277 14.952C132.669 15.992 131.837 16.8 130.781 17.376C129.741 17.936 128.589 18.216 127.325 18.216ZM127.325 15.84C128.029 15.84 128.685 15.672 129.293 15.336C129.917 15 130.421 14.496 130.805 13.824C131.189 13.152 131.381 12.336 131.381 11.376C131.381 10.416 131.197 9.608 130.829 8.952C130.461 8.28 129.973 7.776 129.365 7.44C128.757 7.104 128.101 6.936 127.397 6.936C126.693 6.936 126.037 7.104 125.429 7.44C124.837 7.776 124.365 8.28 124.013 8.952C123.661 9.608 123.485 10.416 123.485 11.376C123.485 12.8 123.845 13.904 124.565 14.688C125.301 15.456 126.221 15.84 127.325 15.84ZM137.998 18.168C137.502 18.168 137.086 18 136.75 17.664C136.414 17.328 136.246 16.912 136.246 16.416C136.246 15.92 136.414 15.504 136.75 15.168C137.086 14.832 137.502 14.664 137.998 14.664C138.478 14.664 138.886 14.832 139.222 15.168C139.558 15.504 139.726 15.92 139.726 16.416C139.726 16.912 139.558 17.328 139.222 17.664C138.886 18 138.478 18.168 137.998 18.168ZM137.998 8.088C137.502 8.088 137.086 7.92 136.75 7.584C136.414 7.248 136.246 6.832 136.246 6.336C136.246 5.84 136.414 5.424 136.75 5.088C137.086 4.752 137.502 4.584 137.998 4.584C138.478 4.584 138.886 4.752 139.222 5.088C139.558 5.424 139.726 5.84 139.726 6.336C139.726 6.832 139.558 7.248 139.222 7.584C138.886 7.92 138.478 8.088 137.998 8.088ZM145.369 8.856C143.705 8.024 142.873 6.712 142.873 4.92C142.873 4.056 143.089 3.264 143.521 2.544C143.953 1.824 144.601 1.256 145.465 0.839999C146.329 0.407999 147.385 0.191999 148.633 0.191999C149.865 0.191999 150.913 0.407999 151.777 0.839999C152.657 1.256 153.313 1.824 153.745 2.544C154.177 3.264 154.393 4.056 154.393 4.92C154.393 5.816 154.161 6.608 153.697 7.296C153.249 7.968 152.649 8.488 151.897 8.856C152.809 9.192 153.529 9.744 154.057 10.512C154.585 11.264 154.849 12.152 154.849 13.176C154.849 14.216 154.585 15.136 154.057 15.936C153.529 16.736 152.793 17.352 151.849 17.784C150.905 18.216 149.833 18.432 148.633 18.432C147.433 18.432 146.361 18.216 145.417 17.784C144.489 17.352 143.761 16.736 143.233 15.936C142.705 15.136 142.441 14.216 142.441 13.176C142.441 12.136 142.705 11.24 143.233 10.488C143.761 9.736 144.473 9.192 145.369 8.856ZM151.777 5.256C151.777 4.36 151.497 3.672 150.937 3.192C150.377 2.712 149.609 2.472 148.633 2.472C147.673 2.472 146.913 2.712 146.353 3.192C145.793 3.672 145.513 4.368 145.513 5.28C145.513 6.08 145.801 6.736 146.377 7.248C146.969 7.744 147.721 7.992 148.633 7.992C149.545 7.992 150.297 7.736 150.889 7.224C151.481 6.712 151.777 6.056 151.777 5.256ZM148.633 10.056C147.577 10.056 146.713 10.32 146.041 10.848C145.385 11.36 145.057 12.104 145.057 13.08C145.057 13.992 145.377 14.736 146.017 15.312C146.657 15.872 147.529 16.152 148.633 16.152C149.721 16.152 150.577 15.864 151.201 15.288C151.841 14.712 152.161 13.976 152.161 13.08C152.161 12.12 151.833 11.376 151.177 10.848C150.537 10.32 149.689 10.056 148.633 10.056ZM169.001 2.856H160.961V7.632C161.297 7.184 161.793 6.808 162.449 6.504C163.121 6.2 163.833 6.048 164.585 6.048C165.929 6.048 167.017 6.336 167.849 6.912C168.697 7.488 169.297 8.216 169.649 9.096C170.017 9.976 170.201 10.904 170.201 11.88C170.201 13.064 169.969 14.12 169.505 15.048C169.057 15.96 168.377 16.68 167.465 17.208C166.569 17.736 165.465 18 164.153 18C162.409 18 161.009 17.568 159.953 16.704C158.897 15.84 158.265 14.696 158.057 13.272H160.721C160.897 14.024 161.289 14.624 161.897 15.072C162.505 15.504 163.265 15.72 164.177 15.72C165.313 15.72 166.161 15.376 166.721 14.688C167.297 14 167.585 13.088 167.585 11.952C167.585 10.8 167.297 9.92 166.721 9.312C166.145 8.688 165.297 8.376 164.177 8.376C163.393 8.376 162.729 8.576 162.185 8.976C161.657 9.36 161.273 9.888 161.033 10.56H158.441V0.456H169.001V2.856ZM172.689 3V0.503999H177.681V18H174.921V3H172.689ZM190.848 4.56C190.672 3.824 190.352 3.272 189.888 2.904C189.424 2.536 188.776 2.352 187.944 2.352C186.68 2.352 185.736 2.84 185.112 3.816C184.488 4.776 184.16 6.376 184.128 8.616C184.544 7.912 185.152 7.368 185.952 6.984C186.752 6.6 187.616 6.408 188.544 6.408C189.6 6.408 190.528 6.64 191.328 7.104C192.144 7.552 192.776 8.208 193.224 9.072C193.688 9.936 193.92 10.968 193.92 12.168C193.92 13.288 193.696 14.288 193.248 15.168C192.816 16.048 192.168 16.744 191.304 17.256C190.44 17.752 189.4 18 188.184 18C186.536 18 185.24 17.64 184.296 16.92C183.368 16.184 182.712 15.152 182.328 13.824C181.96 12.496 181.776 10.84 181.776 8.856C181.776 3 183.84 0.0719991 187.968 0.0719991C189.568 0.0719991 190.824 0.503999 191.736 1.368C192.664 2.232 193.208 3.296 193.368 4.56H190.848ZM187.944 8.712C186.968 8.712 186.136 9.008 185.448 9.6C184.776 10.176 184.44 11.016 184.44 12.12C184.44 13.224 184.752 14.104 185.376 14.76C186.016 15.4 186.904 15.72 188.04 15.72C189.048 15.72 189.84 15.408 190.416 14.784C191.008 14.16 191.304 13.328 191.304 12.288C191.304 11.2 191.016 10.336 190.44 9.696C189.88 9.04 189.048 8.712 187.944 8.712ZM196.838 9.024C196.838 6.256 197.302 4.096 198.23 2.544C199.174 0.975999 200.79 0.191999 203.078 0.191999C205.366 0.191999 206.974 0.975999 207.902 2.544C208.846 4.096 209.318 6.256 209.318 9.024C209.318 11.824 208.846 14.016 207.902 15.6C206.974 17.168 205.366 17.952 203.078 17.952C200.79 17.952 199.174 17.168 198.23 15.6C197.302 14.016 196.838 11.824 196.838 9.024ZM206.63 9.024C206.63 7.728 206.542 6.632 206.366 5.736C206.206 4.84 205.87 4.112 205.358 3.552C204.846 2.976 204.086 2.688 203.078 2.688C202.07 2.688 201.31 2.976 200.798 3.552C200.286 4.112 199.942 4.84 199.766 5.736C199.606 6.632 199.526 7.728 199.526 9.024C199.526 10.368 199.606 11.496 199.766 12.408C199.926 13.32 200.262 14.056 200.774 14.616C201.302 15.176 202.07 15.456 203.078 15.456C204.086 15.456 204.846 15.176 205.358 14.616C205.886 14.056 206.23 13.32 206.39 12.408C206.55 11.496 206.63 10.368 206.63 9.024ZM213.725 14.28C215.261 12.952 216.469 11.864 217.349 11.016C218.245 10.152 218.989 9.256 219.581 8.328C220.173 7.4 220.469 6.472 220.469 5.544C220.469 4.584 220.237 3.832 219.773 3.288C219.325 2.744 218.613 2.472 217.637 2.472C216.693 2.472 215.957 2.776 215.429 3.384C214.917 3.976 214.645 4.776 214.613 5.784H211.973C212.021 3.96 212.565 2.568 213.605 1.608C214.661 0.631999 215.997 0.144 217.613 0.144C219.357 0.144 220.717 0.624 221.693 1.584C222.685 2.544 223.181 3.824 223.181 5.424C223.181 6.576 222.885 7.688 222.293 8.76C221.717 9.816 221.021 10.768 220.205 11.616C219.405 12.448 218.381 13.416 217.133 14.52L216.053 15.48H223.661V17.76H211.997V15.768L213.725 14.28ZM237.345 2.856H229.305V7.632C229.641 7.184 230.137 6.808 230.793 6.504C231.465 6.2 232.177 6.048 232.929 6.048C234.273 6.048 235.361 6.336 236.193 6.912C237.041 7.488 237.641 8.216 237.993 9.096C238.361 9.976 238.545 10.904 238.545 11.88C238.545 13.064 238.313 14.12 237.849 15.048C237.401 15.96 236.721 16.68 235.809 17.208C234.913 17.736 233.809 18 232.497 18C230.753 18 229.353 17.568 228.297 16.704C227.241 15.84 226.609 14.696 226.401 13.272H229.065C229.241 14.024 229.633 14.624 230.241 15.072C230.849 15.504 231.609 15.72 232.521 15.72C233.657 15.72 234.505 15.376 235.065 14.688C235.641 14 235.929 13.088 235.929 11.952C235.929 10.8 235.641 9.92 235.065 9.312C234.489 8.688 233.641 8.376 232.521 8.376C231.737 8.376 231.073 8.576 230.529 8.976C230.001 9.36 229.617 9.888 229.377 10.56H226.785V0.456H237.345V2.856ZM241.057 14.352V12.288L249.121 0.719999H252.433V11.976H254.665V14.352H252.433V18H249.745V14.352H241.057ZM249.865 3.504L244.201 11.976H249.865V3.504ZM259.884 8.856C258.22 8.024 257.388 6.712 257.388 4.92C257.388 4.056 257.604 3.264 258.036 2.544C258.468 1.824 259.116 1.256 259.98 0.839999C260.844 0.407999 261.9 0.191999 263.148 0.191999C264.38 0.191999 265.428 0.407999 266.292 0.839999C267.172 1.256 267.828 1.824 268.26 2.544C268.692 3.264 268.908 4.056 268.908 4.92C268.908 5.816 268.676 6.608 268.212 7.296C267.764 7.968 267.164 8.488 266.412 8.856C267.324 9.192 268.044 9.744 268.572 10.512C269.1 11.264 269.364 12.152 269.364 13.176C269.364 14.216 269.1 15.136 268.572 15.936C268.044 16.736 267.308 17.352 266.364 17.784C265.42 18.216 264.348 18.432 263.148 18.432C261.948 18.432 260.876 18.216 259.932 17.784C259.004 17.352 258.276 16.736 257.748 15.936C257.22 15.136 256.956 14.216 256.956 13.176C256.956 12.136 257.22 11.24 257.748 10.488C258.276 9.736 258.988 9.192 259.884 8.856ZM266.292 5.256C266.292 4.36 266.012 3.672 265.452 3.192C264.892 2.712 264.124 2.472 263.148 2.472C262.188 2.472 261.428 2.712 260.868 3.192C260.308 3.672 260.028 4.368 260.028 5.28C260.028 6.08 260.316 6.736 260.892 7.248C261.484 7.744 262.236 7.992 263.148 7.992C264.06 7.992 264.812 7.736 265.404 7.224C265.996 6.712 266.292 6.056 266.292 5.256ZM263.148 10.056C262.092 10.056 261.228 10.32 260.556 10.848C259.9 11.36 259.572 12.104 259.572 13.08C259.572 13.992 259.892 14.736 260.532 15.312C261.172 15.872 262.044 16.152 263.148 16.152C264.236 16.152 265.092 15.864 265.716 15.288C266.356 14.712 266.676 13.976 266.676 13.08C266.676 12.12 266.348 11.376 265.692 10.848C265.052 10.32 264.204 10.056 263.148 10.056ZM281.645 4.56C281.469 3.824 281.149 3.272 280.685 2.904C280.221 2.536 279.573 2.352 278.741 2.352C277.477 2.352 276.533 2.84 275.909 3.816C275.285 4.776 274.957 6.376 274.925 8.616C275.341 7.912 275.949 7.368 276.749 6.984C277.549 6.6 278.413 6.408 279.341 6.408C280.397 6.408 281.325 6.64 282.125 7.104C282.941 7.552 283.573 8.208 284.021 9.072C284.485 9.936 284.717 10.968 284.717 12.168C284.717 13.288 284.493 14.288 284.045 15.168C283.613 16.048 282.965 16.744 282.101 17.256C281.237 17.752 280.197 18 278.981 18C277.333 18 276.037 17.64 275.093 16.92C274.165 16.184 273.509 15.152 273.125 13.824C272.757 12.496 272.573 10.84 272.573 8.856C272.573 3 274.637 0.0719991 278.765 0.0719991C280.365 0.0719991 281.621 0.503999 282.533 1.368C283.461 2.232 284.005 3.296 284.165 4.56H281.645ZM278.741 8.712C277.765 8.712 276.933 9.008 276.245 9.6C275.573 10.176 275.237 11.016 275.237 12.12C275.237 13.224 275.549 14.104 276.173 14.76C276.813 15.4 277.701 15.72 278.837 15.72C279.845 15.72 280.637 15.408 281.213 14.784C281.805 14.16 282.101 13.328 282.101 12.288C282.101 11.2 281.813 10.336 281.237 9.696C280.677 9.04 279.845 8.712 278.741 8.712Z" fill="#1E1E1E" fill-opacity="0.75"/>
</svg>
