<svg width="217" height="47" viewBox="0 0 217 47" fill="none" xmlns="http://www.w3.org/2000/svg">
<path d="M18.16 0.688C25.7973 0.688 31.472 2.608 35.184 6.448C38.896 10.2453 40.752 15.7067 40.752 22.832C40.752 27.4827 39.8347 31.5573 38 35.056C36.208 38.512 33.584 41.2 30.128 43.12C26.672 45.04 22.4907 46 17.584 46C16.944 46 16.0907 45.9787 15.024 45.936C13.9573 45.8933 12.848 45.872 11.696 45.872C10.5867 45.8293 9.56267 45.808 8.624 45.808C7.13067 45.808 5.65867 45.8293 4.208 45.872C2.75733 45.872 1.584 45.9147 0.688 46V44.72C2.13867 44.6347 3.22667 44.464 3.952 44.208C4.72 43.952 5.232 43.44 5.488 42.672C5.744 41.904 5.872 40.752 5.872 39.216V7.472C5.872 5.89333 5.744 4.74133 5.488 4.016C5.232 3.248 4.72 2.736 3.952 2.48C3.22667 2.18133 2.13867 2.01066 0.688 1.968V0.688C1.584 0.730666 2.75733 0.794665 4.208 0.879997C5.65867 0.922663 7.088 0.922663 8.496 0.879997C9.98933 0.837331 11.6747 0.794665 13.552 0.751999C15.4293 0.709333 16.9653 0.688 18.16 0.688ZM16.56 1.84C14.5973 1.84 13.3173 2.20266 12.72 2.928C12.1227 3.65333 11.824 5.12533 11.824 7.344V39.344C11.824 41.5627 12.1227 43.0347 12.72 43.76C13.36 44.4853 14.6613 44.848 16.624 44.848C21.2747 44.848 24.88 44.016 27.44 42.352C30 40.6453 31.792 38.1707 32.816 34.928C33.84 31.6853 34.352 27.7387 34.352 23.088C34.352 18.3093 33.776 14.3627 32.624 11.248C31.5147 8.09066 29.6587 5.744 27.056 4.208C24.496 2.62933 20.9973 1.84 16.56 1.84ZM46.3755 0.688C47.2715 0.730666 48.4448 0.773332 49.8955 0.815998C51.3462 0.858664 52.7755 0.879997 54.1835 0.879997C56.1888 0.879997 58.1088 0.858664 59.9435 0.815998C61.7782 0.773332 63.0795 0.751999 63.8475 0.751999C67.3035 0.751999 70.1622 1.24267 72.4235 2.224C74.7275 3.20533 76.4342 4.54933 77.5435 6.256C78.6955 7.92 79.2715 9.79733 79.2715 11.888C79.2715 13.168 79.0155 14.5333 78.5035 15.984C77.9915 17.4347 77.0955 18.8 75.8155 20.08C74.5782 21.36 72.8715 22.4267 70.6955 23.28C68.5195 24.0907 65.7675 24.496 62.4395 24.496H56.2955V23.216H61.7995C64.8288 23.216 67.1328 22.7467 68.7115 21.808C70.3328 20.8267 71.4208 19.5467 71.9755 17.968C72.5728 16.3467 72.8715 14.5547 72.8715 12.592C72.8715 9.22133 72.0608 6.61867 70.4395 4.784C68.8608 2.90666 66.1302 1.968 62.2475 1.968C60.2848 1.968 59.0048 2.33067 58.4075 3.056C57.8102 3.78133 57.5115 5.25333 57.5115 7.472V39.216C57.5115 40.752 57.6395 41.904 57.8955 42.672C58.1515 43.44 58.6422 43.952 59.3675 44.208C60.1355 44.464 61.2448 44.6347 62.6955 44.72V46C61.7142 45.9147 60.4768 45.872 58.9835 45.872C57.5328 45.8293 56.0608 45.808 54.5675 45.808C52.9035 45.808 51.3462 45.8293 49.8955 45.872C48.4448 45.872 47.2715 45.9147 46.3755 46V44.72C47.8262 44.6347 48.9142 44.464 49.6395 44.208C50.4075 43.952 50.9195 43.44 51.1755 42.672C51.4315 41.904 51.5595 40.752 51.5595 39.216V7.472C51.5595 5.89333 51.4315 4.74133 51.1755 4.016C50.9195 3.248 50.4075 2.736 49.6395 2.48C48.9142 2.18133 47.8262 2.01066 46.3755 1.968V0.688ZM56.5515 23.408C58.8555 23.4933 60.6688 23.6 61.9915 23.728C63.3142 23.8133 64.3808 23.8987 65.1915 23.984C66.0448 24.0693 66.8555 24.176 67.6235 24.304C70.4822 24.7733 72.5302 25.648 73.7675 26.928C75.0475 28.1653 75.9862 30.1067 76.5835 32.752L78.1835 39.28C78.6102 41.1573 79.0368 42.5227 79.4635 43.376C79.9328 44.1867 80.6368 44.5707 81.5755 44.528C82.3008 44.4853 82.8982 44.2507 83.3675 43.824C83.8795 43.3973 84.4128 42.8213 84.9675 42.096L85.9275 42.8C85.0315 44.1227 84.0928 45.1467 83.1115 45.872C82.1728 46.5547 80.8288 46.896 79.0795 46.896C77.5008 46.896 76.1142 46.4267 74.9195 45.488C73.7248 44.5493 72.8288 42.7147 72.2315 39.984L70.8235 33.584C70.4395 31.7493 69.9915 30.1707 69.4795 28.848C69.0102 27.4827 68.3275 26.416 67.4315 25.648C66.5782 24.88 65.2982 24.496 63.5915 24.496H56.6795L56.5515 23.408ZM119.812 0.688C119.641 2.18133 119.513 3.632 119.428 5.04C119.385 6.448 119.364 7.51466 119.364 8.24C119.364 9.008 119.385 9.75467 119.428 10.48C119.47 11.1627 119.513 11.7387 119.556 12.208H118.083C117.828 9.69067 117.465 7.70667 116.996 6.256C116.526 4.76266 115.716 3.71733 114.564 3.12C113.454 2.48 111.769 2.16 109.508 2.16H104.196C102.745 2.16 101.636 2.288 100.868 2.544C100.142 2.75733 99.6515 3.248 99.3955 4.016C99.1395 4.74133 99.0115 5.89333 99.0115 7.472V39.216C99.0115 40.752 99.1395 41.904 99.3955 42.672C99.6515 43.44 100.142 43.952 100.868 44.208C101.636 44.4213 102.745 44.528 104.196 44.528H108.868C111.556 44.528 113.582 44.1653 114.948 43.44C116.356 42.7147 117.358 41.5413 117.956 39.92C118.596 38.256 119.065 36.016 119.364 33.2H120.836C120.708 34.352 120.644 35.888 120.644 37.808C120.644 38.6187 120.665 39.792 120.708 41.328C120.793 42.8213 120.921 44.3787 121.092 46C118.916 45.9147 116.462 45.872 113.732 45.872C111.001 45.8293 108.569 45.808 106.436 45.808C105.497 45.808 104.281 45.808 102.788 45.808C101.337 45.808 99.7582 45.8293 98.0515 45.872C96.3448 45.872 94.6168 45.8933 92.8675 45.936C91.1182 45.936 89.4542 45.9573 87.8755 46V44.72C89.3262 44.6347 90.4142 44.464 91.1395 44.208C91.9075 43.952 92.4195 43.44 92.6755 42.672C92.9315 41.904 93.0595 40.752 93.0595 39.216V7.472C93.0595 5.89333 92.9315 4.74133 92.6755 4.016C92.4195 3.248 91.9075 2.736 91.1395 2.48C90.4142 2.18133 89.3262 2.01066 87.8755 1.968V0.688C89.4542 0.730666 91.1182 0.773332 92.8675 0.815998C94.6168 0.815998 96.3448 0.837331 98.0515 0.879997C99.7582 0.879997 101.337 0.879997 102.788 0.879997C104.281 0.879997 105.497 0.879997 106.436 0.879997C108.398 0.879997 110.617 0.879997 113.092 0.879997C115.609 0.837331 117.849 0.773332 119.812 0.688ZM108.804 22.576C108.804 22.576 108.804 22.7893 108.804 23.216C108.804 23.6427 108.804 23.856 108.804 23.856H97.0915C97.0915 23.856 97.0915 23.6427 97.0915 23.216C97.0915 22.7893 97.0915 22.576 97.0915 22.576H108.804ZM110.66 14.128C110.489 16.56 110.404 18.416 110.404 19.696C110.446 20.976 110.468 22.1493 110.468 23.216C110.468 24.2827 110.489 25.456 110.532 26.736C110.574 28.016 110.681 29.872 110.852 32.304H109.38C109.209 30.9387 108.996 29.616 108.74 28.336C108.526 27.0133 108.014 25.9467 107.204 25.136C106.436 24.2827 105.113 23.856 103.236 23.856V22.576C104.644 22.576 105.71 22.2987 106.436 21.744C107.204 21.1467 107.758 20.4 108.1 19.504C108.441 18.608 108.676 17.6907 108.804 16.752C108.932 15.7707 109.06 14.896 109.188 14.128H110.66ZM144.86 0.367996L160.476 40.624C161.116 42.2453 161.841 43.3333 162.652 43.888C163.462 44.4 164.209 44.6773 164.892 44.72V46C164.038 45.9147 162.993 45.872 161.756 45.872C160.518 45.8293 159.281 45.808 158.044 45.808C156.38 45.808 154.822 45.8293 153.372 45.872C151.921 45.872 150.748 45.9147 149.852 46V44.72C152.028 44.6347 153.414 44.272 154.012 43.632C154.609 42.9493 154.481 41.52 153.628 39.344L141.724 7.536L142.748 6.704L131.612 35.632C130.929 37.3387 130.524 38.7893 130.396 39.984C130.268 41.136 130.374 42.0533 130.716 42.736C131.1 43.4187 131.718 43.9093 132.572 44.208C133.468 44.5067 134.577 44.6773 135.9 44.72V46C134.705 45.9147 133.446 45.872 132.124 45.872C130.844 45.8293 129.649 45.808 128.54 45.808C127.473 45.808 126.556 45.8293 125.788 45.872C125.062 45.872 124.38 45.9147 123.739 46V44.72C124.593 44.5067 125.468 44.016 126.364 43.248C127.26 42.4373 128.07 41.072 128.796 39.152L143.836 0.367996C144.006 0.367996 144.177 0.367996 144.348 0.367996C144.518 0.367996 144.689 0.367996 144.86 0.367996ZM152.668 27.568V28.848H133.595L134.236 27.568H152.668ZM216.306 0.688V1.968C214.855 2.01066 213.746 2.18133 212.978 2.48C212.253 2.736 211.762 3.248 211.506 4.016C211.25 4.74133 211.122 5.89333 211.122 7.472V39.216C211.122 40.752 211.25 41.904 211.506 42.672C211.762 43.44 212.253 43.952 212.978 44.208C213.746 44.464 214.855 44.6347 216.306 44.72V46C215.325 45.9147 214.087 45.872 212.594 45.872C211.143 45.8293 209.671 45.808 208.178 45.808C206.514 45.808 204.957 45.8293 203.506 45.872C202.055 45.872 200.882 45.9147 199.986 46V44.72C201.437 44.6347 202.525 44.464 203.25 44.208C204.018 43.952 204.53 43.44 204.786 42.672C205.042 41.904 205.17 40.752 205.17 39.216V4.016L205.426 4.208L189.746 46.32H188.722L172.594 4.784V38.576C172.594 40.112 172.722 41.328 172.978 42.224C173.277 43.0773 173.831 43.696 174.642 44.08C175.495 44.4213 176.754 44.6347 178.418 44.72V46C177.65 45.9147 176.647 45.872 175.41 45.872C174.173 45.8293 172.999 45.808 171.89 45.808C170.823 45.808 169.735 45.8293 168.626 45.872C167.559 45.872 166.663 45.9147 165.938 46V44.72C167.389 44.6347 168.477 44.4213 169.202 44.08C169.97 43.696 170.482 43.0773 170.738 42.224C170.994 41.328 171.122 40.112 171.122 38.576V7.472C171.122 5.89333 170.994 4.74133 170.738 4.016C170.482 3.248 169.97 2.736 169.202 2.48C168.477 2.18133 167.389 2.01066 165.938 1.968V0.688C166.663 0.730666 167.559 0.773332 168.626 0.815998C169.735 0.858664 170.823 0.879997 171.89 0.879997C172.829 0.879997 173.789 0.858664 174.77 0.815998C175.794 0.773332 176.647 0.730666 177.33 0.688L191.858 38.96L190.77 39.472L205.17 0.879997C205.682 0.879997 206.173 0.879997 206.642 0.879997C207.154 0.879997 207.666 0.879997 208.178 0.879997C209.671 0.879997 211.143 0.858664 212.594 0.815998C214.087 0.773332 215.325 0.730666 216.306 0.688Z" fill="white"/>
</svg>
