<svg width="964" height="136" viewBox="0 0 964 136" fill="none" xmlns="http://www.w3.org/2000/svg">
<g filter="url(#filter0_d_322_138)">
<rect x="15" y="11" width="934" height="106" rx="13" fill="#CECECE"/>
</g>
<path d="M46.728 85V68.248L47.064 70.6L33.48 51.4H39.72L50.088 66.28L48.888 66.136L58.248 51.4H64.2L51.192 71.128L51.912 67.864V85H46.728ZM75.6278 85.48C73.1638 85.48 70.9558 84.92 69.0038 83.8C67.0838 82.648 65.5638 81.096 64.4438 79.144C63.3238 77.16 62.7638 74.904 62.7638 72.376C62.7638 69.848 63.3238 67.608 64.4438 65.656C65.5638 63.672 67.0838 62.12 69.0038 61C70.9558 59.848 73.1638 59.272 75.6278 59.272C78.0598 59.272 80.2358 59.848 82.1558 61C84.1078 62.12 85.6438 63.672 86.7638 65.656C87.8838 67.608 88.4438 69.848 88.4438 72.376C88.4438 74.904 87.8838 77.16 86.7638 79.144C85.6438 81.096 84.1078 82.648 82.1558 83.8C80.2358 84.92 78.0598 85.48 75.6278 85.48ZM75.6278 80.968C77.1318 80.968 78.4758 80.6 79.6598 79.864C80.8438 79.096 81.7718 78.072 82.4438 76.792C83.1158 75.48 83.4358 74.008 83.4038 72.376C83.4358 70.712 83.1158 69.24 82.4438 67.96C81.7718 66.648 80.8438 65.624 79.6598 64.888C78.4758 64.152 77.1318 63.784 75.6278 63.784C74.1238 63.784 72.7638 64.168 71.5478 64.936C70.3638 65.672 69.4358 66.696 68.7638 68.008C68.0918 69.288 67.7718 70.744 67.8038 72.376C67.7718 74.008 68.0918 75.48 68.7638 76.792C69.4358 78.072 70.3638 79.096 71.5478 79.864C72.7638 80.6 74.1238 80.968 75.6278 80.968ZM102.663 85.48C100.871 85.48 99.303 85.064 97.959 84.232C96.647 83.4 95.623 82.232 94.887 80.728C94.183 79.224 93.831 77.432 93.831 75.352V59.8H98.775V74.008C98.775 75.48 98.999 76.76 99.447 77.848C99.927 78.904 100.599 79.72 101.463 80.296C102.359 80.872 103.431 81.16 104.679 81.16C105.607 81.16 106.455 81.016 107.223 80.728C107.991 80.408 108.647 79.976 109.191 79.432C109.767 78.888 110.215 78.232 110.535 77.464C110.855 76.696 111.015 75.864 111.015 74.968V59.8H115.959V85H111.015V79.72L111.879 79.144C111.495 80.328 110.839 81.4 109.911 82.36C109.015 83.32 107.943 84.088 106.695 84.664C105.447 85.208 104.103 85.48 102.663 85.48ZM122.894 85V59.8H127.886V67.72L127.406 65.8C127.758 64.584 128.35 63.48 129.182 62.488C130.046 61.496 131.022 60.712 132.109 60.136C133.23 59.56 134.382 59.272 135.566 59.272C136.11 59.272 136.622 59.32 137.102 59.416C137.614 59.512 138.014 59.624 138.302 59.752L137.006 65.128C136.622 64.968 136.19 64.84 135.71 64.744C135.262 64.616 134.814 64.552 134.366 64.552C133.502 64.552 132.67 64.728 131.87 65.08C131.102 65.4 130.414 65.864 129.806 66.472C129.23 67.048 128.766 67.736 128.414 68.536C128.062 69.304 127.886 70.152 127.886 71.08V85H122.894ZM164.106 85L153.402 51.4H158.922L165.402 72.424C165.594 72.936 165.77 73.544 165.93 74.248C166.09 74.92 166.234 75.608 166.362 76.312C166.49 77.016 166.602 77.672 166.698 78.28C166.826 78.888 166.938 79.384 167.034 79.768L165.642 79.72C166.122 78.024 166.49 76.712 166.746 75.784C167.034 74.856 167.258 74.152 167.418 73.672C167.578 73.16 167.722 72.728 167.85 72.376L173.898 57.208H178.554L184.41 72.376C184.73 73.144 185.002 73.912 185.226 74.68C185.482 75.416 185.706 76.168 185.898 76.936C186.09 77.672 186.298 78.456 186.522 79.288L185.274 79.624C185.434 78.76 185.546 78.088 185.61 77.608C185.706 77.096 185.786 76.68 185.85 76.36C185.914 76.04 185.978 75.736 186.042 75.448C186.106 75.128 186.202 74.728 186.33 74.248C186.49 73.768 186.698 73.112 186.954 72.28L193.338 51.4H198.906L188.202 85H184.602L175.722 63.976L176.154 64.168L167.61 85H164.106ZM203.519 85V49.48H208.463V64.984L207.599 65.56C207.919 64.44 208.543 63.416 209.471 62.488C210.399 61.528 211.503 60.76 212.783 60.184C214.063 59.576 215.375 59.272 216.719 59.272C218.639 59.272 220.239 59.656 221.519 60.424C222.799 61.16 223.759 62.296 224.399 63.832C225.039 65.368 225.359 67.304 225.359 69.64V85H220.415V69.976C220.415 68.536 220.223 67.352 219.839 66.424C219.455 65.464 218.863 64.776 218.063 64.36C217.263 63.912 216.271 63.72 215.087 63.784C214.127 63.784 213.247 63.944 212.447 64.264C211.647 64.552 210.943 64.968 210.335 65.512C209.759 66.056 209.295 66.696 208.943 67.432C208.623 68.136 208.463 68.904 208.463 69.736V85H206.015C205.599 85 205.183 85 204.767 85C204.351 85 203.935 85 203.519 85ZM232.881 85V59.8H237.825V85H232.881ZM235.281 54.232C234.225 54.232 233.409 53.96 232.833 53.416C232.257 52.872 231.969 52.104 231.969 51.112C231.969 50.184 232.257 49.432 232.833 48.856C233.441 48.28 234.257 47.992 235.281 47.992C236.337 47.992 237.153 48.264 237.729 48.808C238.305 49.352 238.593 50.12 238.593 51.112C238.593 52.04 238.289 52.792 237.681 53.368C237.105 53.944 236.305 54.232 235.281 54.232ZM253.825 85.48C251.713 85.48 249.809 85.112 248.113 84.376C246.417 83.64 245.009 82.552 243.889 81.112L247.249 78.232C248.209 79.352 249.249 80.168 250.369 80.68C251.521 81.16 252.817 81.4 254.257 81.4C254.833 81.4 255.361 81.336 255.841 81.208C256.353 81.048 256.785 80.824 257.137 80.536C257.521 80.248 257.809 79.912 258.001 79.528C258.193 79.112 258.289 78.664 258.289 78.184C258.289 77.352 257.985 76.68 257.377 76.168C257.057 75.944 256.545 75.704 255.841 75.448C255.169 75.16 254.289 74.872 253.201 74.584C251.345 74.104 249.825 73.56 248.641 72.952C247.457 72.344 246.545 71.656 245.905 70.888C245.425 70.28 245.073 69.624 244.849 68.92C244.625 68.184 244.513 67.384 244.513 66.52C244.513 65.464 244.737 64.504 245.185 63.64C245.665 62.744 246.305 61.976 247.105 61.336C247.937 60.664 248.897 60.152 249.985 59.8C251.105 59.448 252.289 59.272 253.537 59.272C254.721 59.272 255.889 59.432 257.041 59.752C258.225 60.072 259.313 60.536 260.305 61.144C261.297 61.752 262.129 62.472 262.801 63.304L259.969 66.424C259.361 65.816 258.689 65.288 257.953 64.84C257.249 64.36 256.529 63.992 255.793 63.736C255.057 63.48 254.385 63.352 253.777 63.352C253.105 63.352 252.497 63.416 251.953 63.544C251.409 63.672 250.945 63.864 250.561 64.12C250.209 64.376 249.937 64.696 249.745 65.08C249.553 65.464 249.457 65.896 249.457 66.376C249.489 66.792 249.585 67.192 249.745 67.576C249.937 67.928 250.193 68.232 250.513 68.488C250.865 68.744 251.393 69.016 252.097 69.304C252.801 69.592 253.697 69.864 254.785 70.12C256.385 70.536 257.697 71 258.721 71.512C259.777 71.992 260.609 72.552 261.217 73.192C261.857 73.8 262.305 74.504 262.561 75.304C262.817 76.104 262.945 77 262.945 77.992C262.945 79.432 262.529 80.728 261.697 81.88C260.897 83 259.809 83.88 258.433 84.52C257.057 85.16 255.521 85.48 253.825 85.48ZM271.514 85V53.368H276.458V85H271.514ZM266.282 64.6V59.8H282.314V64.6H266.282ZM286.911 85V49.48H291.855V85H286.911ZM310.154 85.48C307.562 85.48 305.258 84.936 303.242 83.848C301.258 82.728 299.69 81.208 298.538 79.288C297.418 77.368 296.858 75.16 296.858 72.664C296.858 70.68 297.178 68.872 297.818 67.24C298.458 65.608 299.338 64.2 300.458 63.016C301.61 61.8 302.97 60.872 304.538 60.232C306.138 59.56 307.866 59.224 309.722 59.224C311.354 59.224 312.874 59.544 314.282 60.184C315.69 60.792 316.906 61.64 317.93 62.728C318.986 63.816 319.786 65.112 320.33 66.616C320.906 68.088 321.178 69.704 321.146 71.464L321.098 73.576H300.506L299.402 69.64H316.826L316.106 70.456V69.304C316.01 68.248 315.658 67.304 315.05 66.472C314.442 65.64 313.674 64.984 312.746 64.504C311.818 64.024 310.81 63.784 309.722 63.784C307.994 63.784 306.538 64.12 305.354 64.792C304.17 65.432 303.274 66.392 302.666 67.672C302.058 68.92 301.754 70.472 301.754 72.328C301.754 74.088 302.122 75.624 302.858 76.936C303.594 78.216 304.634 79.208 305.978 79.912C307.322 80.616 308.874 80.968 310.634 80.968C311.882 80.968 313.034 80.76 314.09 80.344C315.178 79.928 316.346 79.176 317.594 78.088L320.09 81.592C319.322 82.36 318.378 83.032 317.258 83.608C316.17 84.184 315.002 84.648 313.754 85C312.538 85.32 311.338 85.48 310.154 85.48ZM332.242 85L323.65 59.8L328.642 59.752L334.786 78.616L333.682 78.52L340.354 63.784H343.33L350.05 78.568L348.754 78.664L354.946 59.8H359.938L351.442 85H348.034L341.026 68.968L342.13 69.112L335.602 85H332.242ZM375.065 85.48C372.601 85.48 370.393 84.92 368.441 83.8C366.521 82.648 365.001 81.096 363.881 79.144C362.761 77.16 362.201 74.904 362.201 72.376C362.201 69.848 362.761 67.608 363.881 65.656C365.001 63.672 366.521 62.12 368.441 61C370.393 59.848 372.601 59.272 375.065 59.272C377.497 59.272 379.673 59.848 381.593 61C383.545 62.12 385.081 63.672 386.201 65.656C387.321 67.608 387.881 69.848 387.881 72.376C387.881 74.904 387.321 77.16 386.201 79.144C385.081 81.096 383.545 82.648 381.593 83.8C379.673 84.92 377.497 85.48 375.065 85.48ZM375.065 80.968C376.569 80.968 377.913 80.6 379.097 79.864C380.281 79.096 381.209 78.072 381.881 76.792C382.553 75.48 382.873 74.008 382.841 72.376C382.873 70.712 382.553 69.24 381.881 67.96C381.209 66.648 380.281 65.624 379.097 64.888C377.913 64.152 376.569 63.784 375.065 63.784C373.561 63.784 372.201 64.168 370.985 64.936C369.801 65.672 368.873 66.696 368.201 68.008C367.529 69.288 367.209 70.744 367.241 72.376C367.209 74.008 367.529 75.48 368.201 76.792C368.873 78.072 369.801 79.096 370.985 79.864C372.201 80.6 373.561 80.968 375.065 80.968ZM404.597 85.48C402.133 85.48 399.925 84.92 397.973 83.8C396.053 82.648 394.533 81.096 393.413 79.144C392.293 77.16 391.733 74.904 391.733 72.376C391.733 69.848 392.293 67.608 393.413 65.656C394.533 63.672 396.053 62.12 397.973 61C399.925 59.848 402.133 59.272 404.597 59.272C407.029 59.272 409.205 59.848 411.125 61C413.077 62.12 414.613 63.672 415.733 65.656C416.853 67.608 417.413 69.848 417.413 72.376C417.413 74.904 416.853 77.16 415.733 79.144C414.613 81.096 413.077 82.648 411.125 83.8C409.205 84.92 407.029 85.48 404.597 85.48ZM404.597 80.968C406.101 80.968 407.445 80.6 408.629 79.864C409.813 79.096 410.741 78.072 411.413 76.792C412.085 75.48 412.405 74.008 412.373 72.376C412.405 70.712 412.085 69.24 411.413 67.96C410.741 66.648 409.813 65.624 408.629 64.888C407.445 64.152 406.101 63.784 404.597 63.784C403.093 63.784 401.733 64.168 400.517 64.936C399.333 65.672 398.405 66.696 397.733 68.008C397.061 69.288 396.741 70.744 396.773 72.376C396.741 74.008 397.061 75.48 397.733 76.792C398.405 78.072 399.333 79.096 400.517 79.864C401.733 80.6 403.093 80.968 404.597 80.968ZM433.312 85.48C431.008 85.48 428.944 84.92 427.12 83.8C425.328 82.648 423.904 81.096 422.848 79.144C421.792 77.16 421.264 74.904 421.264 72.376C421.264 69.848 421.776 67.608 422.8 65.656C423.856 63.672 425.28 62.12 427.072 61C428.864 59.848 430.896 59.272 433.168 59.272C434.416 59.272 435.616 59.48 436.768 59.896C437.952 60.28 439.008 60.824 439.936 61.528C440.864 62.2 441.584 62.952 442.096 63.784C442.64 64.584 442.912 65.4 442.912 66.232L441.472 66.328V49.48H446.416V85H441.472V79H442.432C442.432 79.768 442.176 80.536 441.664 81.304C441.152 82.04 440.464 82.728 439.6 83.368C438.768 84.008 437.792 84.52 436.672 84.904C435.584 85.288 434.464 85.48 433.312 85.48ZM433.984 81.208C435.488 81.208 436.816 80.824 437.968 80.056C439.12 79.288 440.016 78.248 440.656 76.936C441.328 75.592 441.664 74.072 441.664 72.376C441.664 70.68 441.328 69.176 440.656 67.864C440.016 66.52 439.12 65.464 437.968 64.696C436.816 63.928 435.488 63.544 433.984 63.544C432.48 63.544 431.152 63.928 430 64.696C428.848 65.464 427.936 66.52 427.264 67.864C426.624 69.176 426.304 70.68 426.304 72.376C426.304 74.072 426.624 75.592 427.264 76.936C427.936 78.248 428.848 79.288 430 80.056C431.152 80.824 432.48 81.208 433.984 81.208ZM477.379 85.48C475.043 85.48 472.947 84.904 471.091 83.752C469.267 82.6 467.811 81.032 466.723 79.048C465.667 77.064 465.139 74.84 465.139 72.376C465.139 69.912 465.667 67.688 466.723 65.704C467.811 63.72 469.267 62.152 471.091 61C472.947 59.848 475.043 59.272 477.379 59.272C479.619 59.272 481.651 59.736 483.475 60.664C485.331 61.56 486.739 62.792 487.699 64.36L484.963 67.72C484.451 66.984 483.795 66.312 482.995 65.704C482.195 65.096 481.347 64.616 480.451 64.264C479.555 63.912 478.691 63.736 477.859 63.736C476.323 63.736 474.947 64.12 473.731 64.888C472.547 65.624 471.603 66.648 470.899 67.96C470.195 69.272 469.843 70.744 469.843 72.376C469.843 74.008 470.211 75.48 470.947 76.792C471.683 78.072 472.659 79.096 473.875 79.864C475.091 80.632 476.435 81.016 477.907 81.016C478.771 81.016 479.603 80.872 480.403 80.584C481.235 80.296 482.035 79.864 482.803 79.288C483.571 78.712 484.291 78.008 484.963 77.176L487.699 80.536C486.675 81.976 485.203 83.16 483.283 84.088C481.395 85.016 479.427 85.48 477.379 85.48ZM502.058 85.48C499.978 85.48 498.074 84.904 496.346 83.752C494.65 82.6 493.29 81.032 492.266 79.048C491.242 77.064 490.73 74.824 490.73 72.328C490.73 69.8 491.242 67.56 492.266 65.608C493.322 63.624 494.73 62.072 496.49 60.952C498.282 59.832 500.282 59.272 502.49 59.272C503.802 59.272 505.002 59.464 506.09 59.848C507.178 60.232 508.122 60.776 508.922 61.48C509.754 62.152 510.426 62.936 510.938 63.832C511.482 64.728 511.818 65.688 511.946 66.712L510.842 66.328V59.8H515.834V85H510.842V79L511.994 78.664C511.802 79.528 511.402 80.376 510.794 81.208C510.218 82.008 509.466 82.728 508.538 83.368C507.642 84.008 506.634 84.52 505.514 84.904C504.426 85.288 503.274 85.48 502.058 85.48ZM503.354 80.92C504.858 80.92 506.186 80.552 507.338 79.816C508.49 79.08 509.386 78.072 510.026 76.792C510.698 75.48 511.034 73.992 511.034 72.328C511.034 70.696 510.698 69.24 510.026 67.96C509.386 66.68 508.49 65.672 507.338 64.936C506.186 64.2 504.858 63.832 503.354 63.832C501.882 63.832 500.57 64.2 499.418 64.936C498.298 65.672 497.402 66.68 496.73 67.96C496.09 69.24 495.77 70.696 495.77 72.328C495.77 73.992 496.09 75.48 496.73 76.792C497.402 78.072 498.298 79.08 499.418 79.816C500.57 80.552 501.882 80.92 503.354 80.92ZM522.737 85V59.8H527.729V67.72L527.249 65.8C527.601 64.584 528.193 63.48 529.025 62.488C529.889 61.496 530.865 60.712 531.953 60.136C533.073 59.56 534.225 59.272 535.409 59.272C535.953 59.272 536.465 59.32 536.945 59.416C537.457 59.512 537.857 59.624 538.145 59.752L536.849 65.128C536.465 64.968 536.033 64.84 535.553 64.744C535.105 64.616 534.657 64.552 534.209 64.552C533.345 64.552 532.513 64.728 531.713 65.08C530.945 65.4 530.257 65.864 529.649 66.472C529.073 67.048 528.609 67.736 528.257 68.536C527.905 69.304 527.729 70.152 527.729 71.08V85H522.737ZM546.154 85V53.368H551.098V85H546.154ZM540.922 64.6V59.8H556.954V64.6H540.922ZM575.725 85V59.8H580.669V85H575.725ZM578.125 54.232C577.069 54.232 576.253 53.96 575.677 53.416C575.101 52.872 574.813 52.104 574.813 51.112C574.813 50.184 575.101 49.432 575.677 48.856C576.285 48.28 577.101 47.992 578.125 47.992C579.181 47.992 579.997 48.264 580.573 48.808C581.149 49.352 581.437 50.12 581.437 51.112C581.437 52.04 581.133 52.792 580.525 53.368C579.949 53.944 579.149 54.232 578.125 54.232ZM596.669 85.48C594.557 85.48 592.653 85.112 590.957 84.376C589.261 83.64 587.853 82.552 586.733 81.112L590.093 78.232C591.053 79.352 592.093 80.168 593.213 80.68C594.365 81.16 595.661 81.4 597.101 81.4C597.677 81.4 598.205 81.336 598.685 81.208C599.197 81.048 599.629 80.824 599.981 80.536C600.365 80.248 600.653 79.912 600.845 79.528C601.037 79.112 601.133 78.664 601.133 78.184C601.133 77.352 600.829 76.68 600.221 76.168C599.901 75.944 599.389 75.704 598.685 75.448C598.013 75.16 597.133 74.872 596.045 74.584C594.189 74.104 592.669 73.56 591.485 72.952C590.301 72.344 589.389 71.656 588.749 70.888C588.269 70.28 587.917 69.624 587.693 68.92C587.469 68.184 587.357 67.384 587.357 66.52C587.357 65.464 587.581 64.504 588.029 63.64C588.509 62.744 589.149 61.976 589.949 61.336C590.781 60.664 591.741 60.152 592.829 59.8C593.949 59.448 595.133 59.272 596.381 59.272C597.565 59.272 598.733 59.432 599.885 59.752C601.069 60.072 602.157 60.536 603.149 61.144C604.141 61.752 604.973 62.472 605.645 63.304L602.813 66.424C602.205 65.816 601.533 65.288 600.797 64.84C600.093 64.36 599.373 63.992 598.637 63.736C597.901 63.48 597.229 63.352 596.621 63.352C595.949 63.352 595.341 63.416 594.797 63.544C594.253 63.672 593.789 63.864 593.405 64.12C593.053 64.376 592.781 64.696 592.589 65.08C592.397 65.464 592.301 65.896 592.301 66.376C592.333 66.792 592.429 67.192 592.589 67.576C592.781 67.928 593.037 68.232 593.357 68.488C593.709 68.744 594.237 69.016 594.941 69.304C595.645 69.592 596.541 69.864 597.629 70.12C599.229 70.536 600.541 71 601.565 71.512C602.621 71.992 603.453 72.552 604.061 73.192C604.701 73.8 605.149 74.504 605.405 75.304C605.661 76.104 605.789 77 605.789 77.992C605.789 79.432 605.373 80.728 604.541 81.88C603.741 83 602.653 83.88 601.277 84.52C599.901 85.16 598.365 85.48 596.669 85.48ZM636.45 85.48C633.858 85.48 631.554 84.936 629.538 83.848C627.554 82.728 625.986 81.208 624.834 79.288C623.714 77.368 623.154 75.16 623.154 72.664C623.154 70.68 623.474 68.872 624.114 67.24C624.754 65.608 625.634 64.2 626.754 63.016C627.906 61.8 629.266 60.872 630.834 60.232C632.434 59.56 634.162 59.224 636.018 59.224C637.65 59.224 639.17 59.544 640.578 60.184C641.986 60.792 643.202 61.64 644.226 62.728C645.282 63.816 646.082 65.112 646.626 66.616C647.202 68.088 647.474 69.704 647.442 71.464L647.394 73.576H626.802L625.698 69.64H643.122L642.402 70.456V69.304C642.306 68.248 641.954 67.304 641.346 66.472C640.738 65.64 639.97 64.984 639.042 64.504C638.114 64.024 637.106 63.784 636.018 63.784C634.29 63.784 632.834 64.12 631.65 64.792C630.466 65.432 629.57 66.392 628.962 67.672C628.354 68.92 628.05 70.472 628.05 72.328C628.05 74.088 628.418 75.624 629.154 76.936C629.89 78.216 630.93 79.208 632.274 79.912C633.618 80.616 635.17 80.968 636.93 80.968C638.178 80.968 639.33 80.76 640.386 80.344C641.474 79.928 642.642 79.176 643.89 78.088L646.386 81.592C645.618 82.36 644.674 83.032 643.554 83.608C642.466 84.184 641.298 84.648 640.05 85C638.834 85.32 637.634 85.48 636.45 85.48ZM652.719 85V59.8H657.711V65.176L656.799 65.752C657.055 64.92 657.455 64.12 657.999 63.352C658.575 62.584 659.263 61.912 660.063 61.336C660.895 60.728 661.775 60.248 662.703 59.896C663.663 59.544 664.639 59.368 665.631 59.368C667.071 59.368 668.335 59.608 669.423 60.088C670.511 60.568 671.407 61.288 672.111 62.248C672.815 63.208 673.327 64.408 673.647 65.848L672.879 65.656L673.215 64.84C673.567 64.104 674.047 63.416 674.655 62.776C675.295 62.104 676.015 61.512 676.815 61C677.615 60.488 678.463 60.088 679.359 59.8C680.255 59.512 681.135 59.368 681.999 59.368C683.887 59.368 685.439 59.752 686.655 60.52C687.903 61.288 688.831 62.456 689.439 64.024C690.079 65.592 690.399 67.544 690.399 69.88V85H685.407V70.168C685.407 68.728 685.215 67.56 684.831 66.664C684.479 65.736 683.935 65.048 683.199 64.6C682.463 64.152 681.519 63.928 680.367 63.928C679.471 63.928 678.623 64.088 677.823 64.408C677.055 64.696 676.383 65.112 675.807 65.656C675.231 66.2 674.783 66.84 674.463 67.576C674.143 68.28 673.983 69.064 673.983 69.928V85H668.991V70.072C668.991 68.76 668.799 67.656 668.415 66.76C668.031 65.832 667.471 65.128 666.735 64.648C665.999 64.168 665.103 63.928 664.047 63.928C663.151 63.928 662.319 64.088 661.551 64.408C660.783 64.696 660.111 65.112 659.535 65.656C658.959 66.168 658.511 66.792 658.191 67.528C657.871 68.232 657.711 69 657.711 69.832V85H652.719ZM697.019 95.56V59.8H702.011V65.56L701.243 65.128C701.435 64.168 701.979 63.256 702.875 62.392C703.771 61.496 704.859 60.776 706.139 60.232C707.451 59.656 708.795 59.368 710.171 59.368C712.443 59.368 714.459 59.928 716.219 61.048C717.979 62.168 719.371 63.704 720.395 65.656C721.419 67.608 721.931 69.848 721.931 72.376C721.931 74.872 721.419 77.112 720.395 79.096C719.403 81.048 718.027 82.6 716.267 83.752C714.507 84.872 712.523 85.432 710.315 85.432C708.843 85.432 707.419 85.144 706.043 84.568C704.667 83.96 703.499 83.192 702.539 82.264C701.579 81.336 700.987 80.376 700.763 79.384L702.011 78.712V95.56H697.019ZM709.499 80.872C710.971 80.872 712.283 80.504 713.435 79.768C714.587 79.032 715.499 78.024 716.171 76.744C716.843 75.464 717.179 74.008 717.179 72.376C717.179 70.744 716.843 69.304 716.171 68.056C715.531 66.776 714.635 65.768 713.483 65.032C712.331 64.296 711.003 63.928 709.499 63.928C707.995 63.928 706.667 64.296 705.515 65.032C704.363 65.736 703.451 66.728 702.779 68.008C702.107 69.288 701.771 70.744 701.771 72.376C701.771 74.008 702.107 75.464 702.779 76.744C703.451 78.024 704.363 79.032 705.515 79.768C706.667 80.504 707.995 80.872 709.499 80.872ZM730.42 85V53.368H735.364V85H730.42ZM725.188 64.6V59.8H741.22V64.6H725.188ZM749.946 96.04L755.034 84.28L755.082 88.216L742.506 59.8H748.266L756.138 78.328C756.298 78.648 756.49 79.144 756.714 79.816C756.938 80.456 757.13 81.096 757.29 81.736L756.042 82.024C756.298 81.352 756.538 80.68 756.762 80.008C757.018 79.336 757.258 78.664 757.482 77.992L764.058 59.8H769.914L759.546 85L755.274 96.04H749.946ZM815.988 85.48C814.932 85.48 814.116 85.176 813.54 84.568C812.964 83.928 812.676 83.032 812.676 81.88C812.676 80.824 812.98 79.96 813.588 79.288C814.196 78.616 814.996 78.28 815.988 78.28C817.044 78.28 817.86 78.6 818.436 79.24C819.012 79.848 819.3 80.728 819.3 81.88C819.3 82.936 818.996 83.8 818.388 84.472C817.78 85.144 816.98 85.48 815.988 85.48ZM815.988 66.52C814.932 66.52 814.116 66.216 813.54 65.608C812.964 64.968 812.676 64.072 812.676 62.92C812.676 61.864 812.98 61 813.588 60.328C814.196 59.656 814.996 59.32 815.988 59.32C817.044 59.32 817.86 59.64 818.436 60.28C819.012 60.888 819.3 61.768 819.3 62.92C819.3 63.976 818.996 64.84 818.388 65.512C817.78 66.184 816.98 66.52 815.988 66.52ZM835.358 93.928C831.454 91.496 828.478 88.456 826.43 84.808C824.382 81.16 823.358 77.096 823.358 72.616C823.358 68.168 824.382 64.12 826.43 60.472C828.51 56.792 831.502 53.736 835.406 51.304L838.046 54.28C834.782 56.552 832.286 59.272 830.558 62.44C828.862 65.576 828.014 68.968 828.014 72.616C828.014 76.264 828.862 79.672 830.558 82.84C832.286 85.976 834.782 88.68 838.046 90.952L835.358 93.928Z" fill="#1E1E1E" fill-opacity="0.85"/>
<defs>
<filter id="filter0_d_322_138" x="0.3" y="0.3" width="963.4" height="135.4" filterUnits="userSpaceOnUse" color-interpolation-filters="sRGB">
<feFlood flood-opacity="0" result="BackgroundImageFix"/>
<feColorMatrix in="SourceAlpha" type="matrix" values="0 0 0 0 0 0 0 0 0 0 0 0 0 0 0 0 0 0 127 0" result="hardAlpha"/>
<feMorphology radius="2" operator="dilate" in="SourceAlpha" result="effect1_dropShadow_322_138"/>
<feOffset dy="4"/>
<feGaussianBlur stdDeviation="6.35"/>
<feComposite in2="hardAlpha" operator="out"/>
<feColorMatrix type="matrix" values="0 0 0 0 0 0 0 0 0 0 0 0 0 0 0 0 0 0 0.25 0"/>
<feBlend mode="normal" in2="BackgroundImageFix" result="effect1_dropShadow_322_138"/>
<feBlend mode="normal" in="SourceGraphic" in2="effect1_dropShadow_322_138" result="shape"/>
</filter>
</defs>
</svg>
