<svg width="716" height="93" viewBox="0 0 716 93" fill="none" xmlns="http://www.w3.org/2000/svg">
<path d="M67.552 0.375999C67.2107 4.04533 66.9547 7.58666 66.784 11C66.6987 14.4133 66.656 17.016 66.656 18.808C66.656 20.7707 66.6987 22.6053 66.784 24.312C66.8693 26.0187 66.9547 27.512 67.04 28.792H64.096C63.1573 22.392 61.8773 17.3573 60.256 13.688C58.6347 9.93333 56.4587 7.288 53.728 5.752C50.9973 4.13066 47.3707 3.31999 42.848 3.31999H37.344C34.784 3.31999 32.8213 3.53333 31.456 3.96C30.0907 4.38667 29.152 5.28266 28.64 6.64799C28.2133 8.01333 28 10.104 28 12.92V76.92C28 80.1627 28.3413 82.5947 29.024 84.216C29.7067 85.8373 31.0293 86.904 32.992 87.416C34.9547 87.928 37.7707 88.2267 41.44 88.312V91C38.9653 90.8293 35.7653 90.744 31.84 90.744C27.9147 90.6587 23.8613 90.616 19.68 90.616C16.096 90.616 12.64 90.6587 9.312 90.744C5.984 90.744 3.08267 90.8293 0.608 91V88.44C3.424 88.2693 5.51467 87.928 6.88 87.416C8.33067 86.904 9.26933 85.88 9.696 84.344C10.208 82.808 10.464 80.504 10.464 77.432V13.944C10.464 10.7867 10.208 8.48266 9.696 7.032C9.26933 5.496 8.33067 4.472 6.88 3.96C5.51467 3.36266 3.424 3.02133 0.608 2.936V0.375999C4.02133 0.461332 7.60533 0.546664 11.36 0.631996C15.2 0.631996 18.9547 0.674662 22.624 0.759995C26.3787 0.759995 29.8347 0.759995 32.992 0.759995C36.2347 0.759995 38.8373 0.759995 40.8 0.759995C44.7253 0.759995 49.1627 0.759995 54.112 0.759995C59.1467 0.674662 63.6267 0.546664 67.552 0.375999ZM48.224 44.92C48.224 44.92 48.224 45.3467 48.224 46.2C48.224 47.0533 48.224 47.48 48.224 47.48H24.16C24.16 47.48 24.16 47.0533 24.16 46.2C24.16 45.3467 24.16 44.92 24.16 44.92H48.224ZM51.168 28.024C50.8267 32.888 50.656 36.6 50.656 39.16C50.7413 41.72 50.784 44.0667 50.784 46.2C50.784 48.3333 50.8267 50.68 50.912 53.24C50.9973 55.8 51.2107 59.512 51.552 64.376H48.608C48.2667 61.4747 47.6267 58.744 46.688 56.184C45.7493 53.5387 44.2987 51.448 42.336 49.912C40.4587 48.2907 37.728 47.48 34.144 47.48V44.92C36.7893 44.92 38.9653 44.3653 40.672 43.256C42.3787 42.1467 43.7013 40.7387 44.64 39.032C45.664 37.24 46.432 35.4053 46.944 33.528C47.5413 31.5653 47.968 29.7307 48.224 28.024H51.168ZM155.995 0.375999V2.936C153.264 3.19199 151.174 3.83199 149.723 4.856C148.358 5.79466 147.419 7.33066 146.907 9.464C146.395 11.512 146.139 14.456 146.139 18.296V53.752C146.139 59.4693 145.755 64.5893 144.987 69.112C144.304 73.6347 142.939 77.56 140.891 80.888C138.758 84.472 135.558 87.3733 131.291 89.592C127.11 91.7253 121.99 92.792 115.931 92.792C111.835 92.792 107.782 92.3227 103.771 91.384C99.8457 90.4453 96.3897 88.696 93.403 86.136C90.7577 83.9173 88.667 81.4 87.131 78.584C85.6803 75.768 84.699 72.3973 84.187 68.472C83.675 64.4613 83.419 59.6827 83.419 54.136V13.944C83.419 10.7867 83.163 8.48266 82.651 7.032C82.2243 5.496 81.2857 4.472 79.835 3.96C78.4697 3.36266 76.379 3.02133 73.563 2.936V0.375999C75.6963 0.461332 78.427 0.546664 81.755 0.631996C85.083 0.717328 88.667 0.759995 92.507 0.759995C96.0057 0.759995 99.4617 0.717328 102.875 0.631996C106.288 0.546664 109.104 0.461332 111.323 0.375999V2.936C108.422 3.02133 106.203 3.36266 104.667 3.96C103.216 4.472 102.235 5.496 101.723 7.032C101.211 8.48266 100.955 10.7867 100.955 13.944V60.28C100.955 64.5467 101.211 68.4293 101.723 71.928C102.32 75.3413 103.259 78.2853 104.539 80.76C105.904 83.2347 107.782 85.112 110.171 86.392C112.646 87.672 115.76 88.312 119.515 88.312C125.744 88.312 130.566 86.904 133.979 84.088C137.392 81.272 139.782 77.3467 141.147 72.312C142.512 67.2773 143.195 61.56 143.195 55.16V19.32C143.195 15.1387 142.896 11.9387 142.299 9.71999C141.702 7.50133 140.507 5.88 138.715 4.856C137.008 3.83199 134.448 3.19199 131.035 2.936V0.375999C132.656 0.461332 134.747 0.546664 137.307 0.631996C139.952 0.717328 142.384 0.759995 144.603 0.759995C146.736 0.759995 148.827 0.717328 150.875 0.631996C153.008 0.546664 154.715 0.461332 155.995 0.375999ZM163.233 0.375999C165.366 0.461332 168.097 0.546664 171.425 0.631996C174.753 0.717328 178.081 0.759995 181.409 0.759995C185.59 0.759995 189.558 0.717328 193.313 0.631996C197.068 0.546664 199.713 0.503998 201.249 0.503998C208.929 0.503998 215.244 1.44266 220.193 3.31999C225.228 5.11199 228.982 7.672 231.457 11C233.932 14.328 235.169 18.2533 235.169 22.776C235.169 25.592 234.614 28.4933 233.505 31.48C232.396 34.3813 230.476 37.0693 227.745 39.544C225.014 42.0187 221.26 44.0667 216.481 45.688C211.788 47.224 205.772 47.992 198.433 47.992H186.145V45.432H197.153C202.529 45.432 206.625 44.4933 209.441 42.616C212.342 40.6533 214.262 38.0933 215.201 34.936C216.225 31.6933 216.737 28.1093 216.737 24.184C216.737 17.4427 215.414 12.2373 212.769 8.56799C210.124 4.81333 205.558 2.936 199.073 2.936C195.574 2.936 193.27 3.66133 192.161 5.112C191.137 6.56266 190.625 9.50666 190.625 13.944V77.432C190.625 80.504 190.881 82.808 191.393 84.344C191.905 85.88 192.844 86.904 194.209 87.416C195.66 87.928 197.75 88.2693 200.481 88.44V91C198.348 90.8293 195.617 90.744 192.289 90.744C188.961 90.6587 185.59 90.616 182.177 90.616C178.337 90.616 174.753 90.6587 171.425 90.744C168.097 90.744 165.366 90.8293 163.233 91V88.44C166.049 88.2693 168.14 87.928 169.505 87.416C170.956 86.904 171.894 85.88 172.321 84.344C172.833 82.808 173.089 80.504 173.089 77.432V13.944C173.089 10.7867 172.833 8.48266 172.321 7.032C171.894 5.496 170.956 4.472 169.505 3.96C168.14 3.36266 166.049 3.02133 163.233 2.936V0.375999ZM186.145 45.816C190.156 45.9867 193.484 46.2 196.129 46.456C198.86 46.6267 201.164 46.7973 203.041 46.968C205.004 47.1387 206.753 47.352 208.289 47.608C215.372 48.2907 220.577 49.9547 223.905 52.6C227.318 55.16 229.58 59.0853 230.689 64.376L233.633 77.56C234.401 81.0587 235.212 83.576 236.065 85.112C237.004 86.5627 238.326 87.2453 240.033 87.16C241.228 87.16 242.252 86.8613 243.105 86.264C243.958 85.5813 244.812 84.6853 245.665 83.576L247.457 85.112C245.324 87.7573 243.062 89.72 240.673 91C238.284 92.1947 235.254 92.792 231.585 92.792C227.489 92.792 224.033 91.8533 221.217 89.976C218.401 88.0133 216.481 84.344 215.457 78.968L213.025 66.168C212.342 62.584 211.532 59.4267 210.593 56.696C209.74 53.9653 208.545 51.832 207.009 50.296C205.473 48.76 203.212 47.992 200.225 47.992H186.401L186.145 45.816ZM332.93 0.375999V2.936C330.199 3.19199 328.109 3.83199 326.658 4.856C325.207 5.79466 324.226 7.33066 323.714 9.464C323.287 11.512 323.074 14.456 323.074 18.296V91.384C322.306 91.2987 321.453 91.256 320.514 91.256C319.661 91.256 318.722 91.2987 317.698 91.384L262.786 16.76V72.056C262.786 76.152 263.042 79.352 263.554 81.656C264.066 83.8747 265.175 85.496 266.882 86.52C268.674 87.4587 271.362 88.0987 274.946 88.44V91C273.325 90.8293 271.234 90.744 268.674 90.744C266.114 90.6587 263.682 90.616 261.378 90.616C259.33 90.616 257.239 90.6587 255.106 90.744C253.058 90.744 251.351 90.8293 249.986 91V88.44C252.802 88.0987 254.893 87.4587 256.258 86.52C257.709 85.5813 258.647 84.0453 259.074 81.912C259.586 79.7787 259.842 76.8347 259.842 73.08V13.944C259.842 10.7867 259.586 8.48266 259.074 7.032C258.647 5.496 257.709 4.472 256.258 3.96C254.893 3.36266 252.802 3.02133 249.986 2.936V0.375999C251.351 0.461332 253.058 0.546664 255.106 0.631996C257.239 0.717328 259.33 0.759995 261.378 0.759995C263.341 0.759995 265.261 0.717328 267.138 0.631996C269.015 0.546664 270.679 0.461332 272.13 0.375999L320.13 64.248V19.32C320.13 15.1387 319.874 11.9387 319.362 9.71999C318.85 7.50133 317.741 5.88 316.034 4.856C314.327 3.83199 311.639 3.19199 307.97 2.936V0.375999C309.591 0.461332 311.682 0.546664 314.242 0.631996C316.887 0.717328 319.319 0.759995 321.538 0.759995C323.671 0.759995 325.762 0.717328 327.81 0.631996C329.943 0.546664 331.65 0.461332 332.93 0.375999ZM378.731 0.375999V2.936C376 3.02133 373.91 3.36266 372.459 3.96C371.094 4.472 370.155 5.496 369.643 7.032C369.131 8.48266 368.875 10.7867 368.875 13.944V77.432C368.875 80.504 369.131 82.808 369.643 84.344C370.155 85.88 371.094 86.904 372.459 87.416C373.91 87.928 376 88.2693 378.731 88.44V91C376.598 90.8293 373.867 90.744 370.539 90.744C367.211 90.6587 363.84 90.616 360.427 90.616C356.587 90.616 353.003 90.6587 349.675 90.744C346.347 90.744 343.616 90.8293 341.483 91V88.44C344.299 88.2693 346.39 87.928 347.755 87.416C349.206 86.904 350.144 85.88 350.571 84.344C351.083 82.808 351.339 80.504 351.339 77.432V13.944C351.339 10.7867 351.083 8.48266 350.571 7.032C350.144 5.496 349.206 4.472 347.755 3.96C346.39 3.36266 344.299 3.02133 341.483 2.936V0.375999C343.616 0.461332 346.347 0.546664 349.675 0.631996C353.003 0.717328 356.587 0.759995 360.427 0.759995C363.84 0.759995 367.211 0.717328 370.539 0.631996C373.867 0.546664 376.598 0.461332 378.731 0.375999ZM463.628 0.375999C463.287 4.30133 463.031 8.14133 462.86 11.896C462.775 15.5653 462.732 18.3813 462.732 20.344C462.732 22.3067 462.775 24.1413 462.86 25.848C462.945 27.5547 463.031 29.048 463.116 30.328H460.172C458.977 23.5013 457.527 18.168 455.82 14.328C454.113 10.4027 451.852 7.58666 449.036 5.88C446.305 4.17333 442.679 3.31999 438.156 3.31999H434.06V76.28C434.06 79.7787 434.359 82.3813 434.956 84.088C435.639 85.7947 436.961 86.9467 438.924 87.544C440.887 88.056 443.745 88.3547 447.5 88.44V91C444.94 90.8293 441.612 90.744 437.516 90.744C433.42 90.6587 429.239 90.616 424.972 90.616C420.535 90.616 416.353 90.6587 412.428 90.744C408.588 90.744 405.473 90.8293 403.084 91V88.44C406.753 88.3547 409.569 88.056 411.532 87.544C413.495 86.9467 414.817 85.7947 415.5 84.088C416.183 82.3813 416.524 79.7787 416.524 76.28V3.31999H412.3C407.863 3.31999 404.236 4.17333 401.42 5.88C398.604 7.58666 396.343 10.4027 394.636 14.328C392.929 18.168 391.521 23.5013 390.412 30.328H387.468C387.639 29.048 387.724 27.5547 387.724 25.848C387.809 24.1413 387.852 22.3067 387.852 20.344C387.852 18.3813 387.767 15.5653 387.596 11.896C387.511 8.14133 387.297 4.30133 386.956 0.375999C390.711 0.461332 394.849 0.546664 399.372 0.631996C403.895 0.717328 408.417 0.759995 412.94 0.759995C417.463 0.759995 421.601 0.759995 425.356 0.759995C429.025 0.759995 433.121 0.759995 437.644 0.759995C442.167 0.759995 446.689 0.717328 451.212 0.631996C455.735 0.546664 459.873 0.461332 463.628 0.375999ZM552.12 0.375999V2.936C549.389 3.19199 547.299 3.83199 545.848 4.856C544.483 5.79466 543.544 7.33066 543.032 9.464C542.52 11.512 542.264 14.456 542.264 18.296V53.752C542.264 59.4693 541.88 64.5893 541.112 69.112C540.429 73.6347 539.064 77.56 537.016 80.888C534.883 84.472 531.683 87.3733 527.416 89.592C523.235 91.7253 518.115 92.792 512.056 92.792C507.96 92.792 503.907 92.3227 499.896 91.384C495.971 90.4453 492.515 88.696 489.528 86.136C486.883 83.9173 484.792 81.4 483.256 78.584C481.805 75.768 480.824 72.3973 480.312 68.472C479.8 64.4613 479.544 59.6827 479.544 54.136V13.944C479.544 10.7867 479.288 8.48266 478.776 7.032C478.349 5.496 477.411 4.472 475.96 3.96C474.595 3.36266 472.504 3.02133 469.688 2.936V0.375999C471.821 0.461332 474.552 0.546664 477.88 0.631996C481.208 0.717328 484.792 0.759995 488.632 0.759995C492.131 0.759995 495.587 0.717328 499 0.631996C502.413 0.546664 505.229 0.461332 507.448 0.375999V2.936C504.547 3.02133 502.328 3.36266 500.792 3.96C499.341 4.472 498.36 5.496 497.848 7.032C497.336 8.48266 497.08 10.7867 497.08 13.944V60.28C497.08 64.5467 497.336 68.4293 497.848 71.928C498.445 75.3413 499.384 78.2853 500.664 80.76C502.029 83.2347 503.907 85.112 506.296 86.392C508.771 87.672 511.885 88.312 515.64 88.312C521.869 88.312 526.691 86.904 530.104 84.088C533.517 81.272 535.907 77.3467 537.272 72.312C538.637 67.2773 539.32 61.56 539.32 55.16V19.32C539.32 15.1387 539.021 11.9387 538.424 9.71999C537.827 7.50133 536.632 5.88 534.84 4.856C533.133 3.83199 530.573 3.19199 527.16 2.936V0.375999C528.781 0.461332 530.872 0.546664 533.432 0.631996C536.077 0.717328 538.509 0.759995 540.728 0.759995C542.861 0.759995 544.952 0.717328 547 0.631996C549.133 0.546664 550.84 0.461332 552.12 0.375999ZM559.358 0.375999C561.491 0.461332 564.222 0.546664 567.55 0.631996C570.878 0.717328 574.206 0.759995 577.534 0.759995C581.715 0.759995 585.683 0.717328 589.438 0.631996C593.193 0.546664 595.838 0.503998 597.374 0.503998C605.054 0.503998 611.369 1.44266 616.318 3.31999C621.353 5.11199 625.107 7.672 627.582 11C630.057 14.328 631.294 18.2533 631.294 22.776C631.294 25.592 630.739 28.4933 629.63 31.48C628.521 34.3813 626.601 37.0693 623.87 39.544C621.139 42.0187 617.385 44.0667 612.606 45.688C607.913 47.224 601.897 47.992 594.558 47.992H582.27V45.432H593.278C598.654 45.432 602.75 44.4933 605.566 42.616C608.467 40.6533 610.387 38.0933 611.326 34.936C612.35 31.6933 612.862 28.1093 612.862 24.184C612.862 17.4427 611.539 12.2373 608.894 8.56799C606.249 4.81333 601.683 2.936 595.198 2.936C591.699 2.936 589.395 3.66133 588.286 5.112C587.262 6.56266 586.75 9.50666 586.75 13.944V77.432C586.75 80.504 587.006 82.808 587.518 84.344C588.03 85.88 588.969 86.904 590.334 87.416C591.785 87.928 593.875 88.2693 596.606 88.44V91C594.473 90.8293 591.742 90.744 588.414 90.744C585.086 90.6587 581.715 90.616 578.302 90.616C574.462 90.616 570.878 90.6587 567.55 90.744C564.222 90.744 561.491 90.8293 559.358 91V88.44C562.174 88.2693 564.265 87.928 565.63 87.416C567.081 86.904 568.019 85.88 568.446 84.344C568.958 82.808 569.214 80.504 569.214 77.432V13.944C569.214 10.7867 568.958 8.48266 568.446 7.032C568.019 5.496 567.081 4.472 565.63 3.96C564.265 3.36266 562.174 3.02133 559.358 2.936V0.375999ZM582.27 45.816C586.281 45.9867 589.609 46.2 592.254 46.456C594.985 46.6267 597.289 46.7973 599.166 46.968C601.129 47.1387 602.878 47.352 604.414 47.608C611.497 48.2907 616.702 49.9547 620.03 52.6C623.443 55.16 625.705 59.0853 626.814 64.376L629.758 77.56C630.526 81.0587 631.337 83.576 632.19 85.112C633.129 86.5627 634.451 87.2453 636.158 87.16C637.353 87.16 638.377 86.8613 639.23 86.264C640.083 85.5813 640.937 84.6853 641.79 83.576L643.582 85.112C641.449 87.7573 639.187 89.72 636.798 91C634.409 92.1947 631.379 92.792 627.71 92.792C623.614 92.792 620.158 91.8533 617.342 89.976C614.526 88.0133 612.606 84.344 611.582 78.968L609.15 66.168C608.467 62.584 607.657 59.4267 606.718 56.696C605.865 53.9653 604.67 51.832 603.134 50.296C601.598 48.76 599.337 47.992 596.35 47.992H582.526L582.27 45.816ZM712.927 0.375999C712.586 3.87466 712.33 7.28799 712.159 10.616C712.074 13.8587 712.031 16.3333 712.031 18.04C712.031 19.6613 712.074 21.24 712.159 22.776C712.244 24.2267 712.33 25.464 712.415 26.488H709.471C708.788 20.6 707.679 15.992 706.143 12.664C704.607 9.25066 702.516 6.86133 699.871 5.49599C697.311 4.04533 693.94 3.31999 689.759 3.31999H682.719C680.159 3.31999 678.196 3.53333 676.831 3.96C675.466 4.38667 674.527 5.28266 674.015 6.64799C673.588 8.01333 673.375 10.104 673.375 12.92V78.456C673.375 81.1867 673.588 83.2773 674.015 84.728C674.527 86.0933 675.466 86.9893 676.831 87.416C678.196 87.8427 680.159 88.056 682.719 88.056H690.015C694.367 88.056 697.994 87.2453 700.895 85.624C703.882 84.0027 706.271 81.3573 708.063 77.688C709.855 73.9333 711.178 68.8133 712.031 62.328H714.975C714.719 64.9733 714.591 68.3867 714.591 72.568C714.591 74.36 714.634 76.9627 714.719 80.376C714.89 83.7893 715.146 87.3307 715.487 91C711.135 90.8293 706.228 90.744 700.767 90.744C695.306 90.6587 690.442 90.616 686.175 90.616C684.212 90.616 681.61 90.616 678.367 90.616C675.21 90.616 671.754 90.6587 667.999 90.744C664.33 90.744 660.575 90.7867 656.735 90.872C652.98 90.872 649.396 90.9147 645.983 91V88.44C648.799 88.2693 650.89 87.928 652.255 87.416C653.706 86.904 654.644 85.88 655.071 84.344C655.583 82.808 655.839 80.504 655.839 77.432V13.944C655.839 10.7867 655.583 8.48266 655.071 7.032C654.644 5.496 653.706 4.472 652.255 3.96C650.89 3.36266 648.799 3.02133 645.983 2.936V0.375999C649.396 0.461332 652.98 0.546664 656.735 0.631996C660.575 0.631996 664.33 0.674662 667.999 0.759995C671.754 0.759995 675.21 0.759995 678.367 0.759995C681.61 0.759995 684.212 0.759995 686.175 0.759995C690.1 0.759995 694.538 0.759995 699.487 0.759995C704.522 0.674662 709.002 0.546664 712.927 0.375999ZM692.319 44.152C692.319 44.152 692.319 44.5787 692.319 45.432C692.319 46.2853 692.319 46.712 692.319 46.712H669.535C669.535 46.712 669.535 46.2853 669.535 45.432C669.535 44.5787 669.535 44.152 669.535 44.152H692.319ZM696.031 27.256C695.69 32.12 695.519 35.832 695.519 38.392C695.604 40.952 695.647 43.2987 695.647 45.432C695.647 47.5653 695.69 49.912 695.775 52.472C695.86 55.032 696.074 58.744 696.415 63.608H693.471C693.044 60.7067 692.362 57.976 691.423 55.416C690.57 52.7707 689.162 50.68 687.199 49.144C685.322 47.5227 682.591 46.712 679.007 46.712V44.152C681.652 44.152 683.786 43.5973 685.407 42.488C687.114 41.3787 688.479 39.9707 689.503 38.264C690.527 36.472 691.295 34.6373 691.807 32.76C692.404 30.7973 692.831 28.9627 693.087 27.256H696.031Z" fill="white"/>
</svg>
