<svg width="487" height="255" viewBox="0 0 487 255" fill="none" xmlns="http://www.w3.org/2000/svg">
<path d="M4.194 7.364V20H1.116V7.364H4.194ZM12.5446 9.848C13.7206 9.848 14.6566 10.232 15.3526 11C16.0606 11.756 16.4146 12.8 16.4146 14.132V20H13.3546V14.546C13.3546 13.874 13.1806 13.352 12.8326 12.98C12.4846 12.608 12.0166 12.422 11.4286 12.422C10.8406 12.422 10.3726 12.608 10.0246 12.98C9.67659 13.352 9.50259 13.874 9.50259 14.546V20H6.42459V9.956H9.50259V11.288C9.81459 10.844 10.2346 10.496 10.7626 10.244C11.2906 9.98 11.8846 9.848 12.5446 9.848ZM23.5935 12.512H21.9375V20H18.8595V12.512H17.7435V9.956H18.8595V9.668C18.8595 8.432 19.2135 7.496 19.9215 6.86C20.6295 6.212 21.6675 5.888 23.0355 5.888C23.2635 5.888 23.4315 5.894 23.5395 5.906V8.516C22.9515 8.48 22.5375 8.564 22.2975 8.768C22.0575 8.972 21.9375 9.338 21.9375 9.866V9.956H23.5935V12.512ZM29.6118 20.144C28.6278 20.144 27.7398 19.934 26.9478 19.514C26.1678 19.094 25.5498 18.494 25.0938 17.714C24.6498 16.934 24.4278 16.022 24.4278 14.978C24.4278 13.946 24.6558 13.04 25.1118 12.26C25.5678 11.468 26.1918 10.862 26.9838 10.442C27.7758 10.022 28.6638 9.812 29.6478 9.812C30.6318 9.812 31.5198 10.022 32.3118 10.442C33.1038 10.862 33.7278 11.468 34.1838 12.26C34.6398 13.04 34.8678 13.946 34.8678 14.978C34.8678 16.01 34.6338 16.922 34.1658 17.714C33.7098 18.494 33.0798 19.094 32.2758 19.514C31.4838 19.934 30.5958 20.144 29.6118 20.144ZM29.6118 17.48C30.1998 17.48 30.6978 17.264 31.1058 16.832C31.5258 16.4 31.7358 15.782 31.7358 14.978C31.7358 14.174 31.5318 13.556 31.1238 13.124C30.7278 12.692 30.2358 12.476 29.6478 12.476C29.0478 12.476 28.5498 12.692 28.1538 13.124C27.7578 13.544 27.5598 14.162 27.5598 14.978C27.5598 15.782 27.7518 16.4 28.1358 16.832C28.5318 17.264 29.0238 17.48 29.6118 17.48ZM39.5788 11.63C39.9388 11.078 40.3888 10.646 40.9288 10.334C41.4688 10.01 42.0688 9.848 42.7288 9.848V13.106H41.8828C41.1148 13.106 40.5388 13.274 40.1548 13.61C39.7708 13.934 39.5788 14.51 39.5788 15.338V20H36.5008V9.956H39.5788V11.63ZM57.016 9.848C58.264 9.848 59.254 10.226 59.986 10.982C60.73 11.738 61.102 12.788 61.102 14.132V20H58.042V14.546C58.042 13.898 57.868 13.4 57.52 13.052C57.184 12.692 56.716 12.512 56.116 12.512C55.516 12.512 55.042 12.692 54.694 13.052C54.358 13.4 54.19 13.898 54.19 14.546V20H51.13V14.546C51.13 13.898 50.956 13.4 50.608 13.052C50.272 12.692 49.804 12.512 49.204 12.512C48.604 12.512 48.13 12.692 47.782 13.052C47.446 13.4 47.278 13.898 47.278 14.546V20H44.2V9.956H47.278V11.216C47.59 10.796 47.998 10.466 48.502 10.226C49.006 9.974 49.576 9.848 50.212 9.848C50.968 9.848 51.64 10.01 52.228 10.334C52.828 10.658 53.296 11.12 53.632 11.72C53.98 11.168 54.454 10.718 55.054 10.37C55.654 10.022 56.308 9.848 57.016 9.848ZM62.6427 14.96C62.6427 13.928 62.8347 13.022 63.2187 12.242C63.6147 11.462 64.1487 10.862 64.8207 10.442C65.4927 10.022 66.2427 9.812 67.0707 9.812C67.7787 9.812 68.3967 9.956 68.9247 10.244C69.4647 10.532 69.8787 10.91 70.1667 11.378V9.956H73.2447V20H70.1667V18.578C69.8667 19.046 69.4467 19.424 68.9067 19.712C68.3787 20 67.7607 20.144 67.0527 20.144C66.2367 20.144 65.4927 19.934 64.8207 19.514C64.1487 19.082 63.6147 18.476 63.2187 17.696C62.8347 16.904 62.6427 15.992 62.6427 14.96ZM70.1667 14.978C70.1667 14.21 69.9507 13.604 69.5187 13.16C69.0987 12.716 68.5827 12.494 67.9707 12.494C67.3587 12.494 66.8367 12.716 66.4047 13.16C65.9847 13.592 65.7747 14.192 65.7747 14.96C65.7747 15.728 65.9847 16.34 66.4047 16.796C66.8367 17.24 67.3587 17.462 67.9707 17.462C68.5827 17.462 69.0987 17.24 69.5187 16.796C69.9507 16.352 70.1667 15.746 70.1667 14.978ZM81.0695 17.39V20H79.5035C78.3875 20 77.5175 19.73 76.8935 19.19C76.2695 18.638 75.9575 17.744 75.9575 16.508V12.512H74.7335V9.956H75.9575V7.508H79.0355V9.956H81.0515V12.512H79.0355V16.544C79.0355 16.844 79.1075 17.06 79.2515 17.192C79.3955 17.324 79.6355 17.39 79.9715 17.39H81.0695ZM84.332 8.912C83.792 8.912 83.348 8.756 83 8.444C82.664 8.12 82.496 7.724 82.496 7.256C82.496 6.776 82.664 6.38 83 6.068C83.348 5.744 83.792 5.582 84.332 5.582C84.86 5.582 85.292 5.744 85.628 6.068C85.976 6.38 86.15 6.776 86.15 7.256C86.15 7.724 85.976 8.12 85.628 8.444C85.292 8.756 84.86 8.912 84.332 8.912ZM85.862 9.956V20H82.784V9.956H85.862ZM92.6646 20.144C91.6806 20.144 90.7926 19.934 90.0006 19.514C89.2206 19.094 88.6026 18.494 88.1466 17.714C87.7026 16.934 87.4806 16.022 87.4806 14.978C87.4806 13.946 87.7086 13.04 88.1646 12.26C88.6206 11.468 89.2446 10.862 90.0366 10.442C90.8286 10.022 91.7166 9.812 92.7006 9.812C93.6846 9.812 94.5726 10.022 95.3646 10.442C96.1566 10.862 96.7806 11.468 97.2366 12.26C97.6926 13.04 97.9206 13.946 97.9206 14.978C97.9206 16.01 97.6866 16.922 97.2186 17.714C96.7626 18.494 96.1326 19.094 95.3286 19.514C94.5366 19.934 93.6486 20.144 92.6646 20.144ZM92.6646 17.48C93.2526 17.48 93.7506 17.264 94.1586 16.832C94.5786 16.4 94.7886 15.782 94.7886 14.978C94.7886 14.174 94.5846 13.556 94.1766 13.124C93.7806 12.692 93.2886 12.476 92.7006 12.476C92.1006 12.476 91.6026 12.692 91.2066 13.124C90.8106 13.544 90.6126 14.162 90.6126 14.978C90.6126 15.782 90.8046 16.4 91.1886 16.832C91.5846 17.264 92.0766 17.48 92.6646 17.48ZM105.674 9.848C106.85 9.848 107.786 10.232 108.482 11C109.19 11.756 109.544 12.8 109.544 14.132V20H106.484V14.546C106.484 13.874 106.31 13.352 105.962 12.98C105.614 12.608 105.146 12.422 104.558 12.422C103.97 12.422 103.502 12.608 103.154 12.98C102.806 13.352 102.632 13.874 102.632 14.546V20H99.5535V9.956H102.632V11.288C102.944 10.844 103.364 10.496 103.892 10.244C104.42 9.98 105.014 9.848 105.674 9.848Z" fill="#EEEEEE"/>
<path d="M8.802 68.21H3.33L2.322 71H0.594L5.13 58.526H7.02L11.538 71H9.81L8.802 68.21ZM8.334 66.878L6.066 60.542L3.798 66.878H8.334ZM15.1529 62.972C15.4889 62.384 15.9809 61.904 16.6289 61.532C17.2769 61.16 18.0149 60.974 18.8429 60.974C19.7309 60.974 20.5289 61.184 21.2369 61.604C21.9449 62.024 22.5029 62.618 22.9109 63.386C23.3189 64.142 23.5229 65.024 23.5229 66.032C23.5229 67.028 23.3189 67.916 22.9109 68.696C22.5029 69.476 21.9389 70.082 21.2189 70.514C20.5109 70.946 19.7189 71.162 18.8429 71.162C17.9909 71.162 17.2409 70.976 16.5929 70.604C15.9569 70.232 15.4769 69.758 15.1529 69.182V71H13.5149V57.68H15.1529V62.972ZM21.8489 66.032C21.8489 65.288 21.6989 64.64 21.3989 64.088C21.0989 63.536 20.6909 63.116 20.1749 62.828C19.6709 62.54 19.1129 62.396 18.5009 62.396C17.9009 62.396 17.3429 62.546 16.8269 62.846C16.3229 63.134 15.9149 63.56 15.6029 64.124C15.3029 64.676 15.1529 65.318 15.1529 66.05C15.1529 66.794 15.3029 67.448 15.6029 68.012C15.9149 68.564 16.3229 68.99 16.8269 69.29C17.3429 69.578 17.9009 69.722 18.5009 69.722C19.1129 69.722 19.6709 69.578 20.1749 69.29C20.6909 68.99 21.0989 68.564 21.3989 68.012C21.6989 67.448 21.8489 66.788 21.8489 66.032ZM29.981 71.162C29.057 71.162 28.217 70.952 27.461 70.532C26.717 70.112 26.129 69.518 25.697 68.75C25.277 67.97 25.067 67.07 25.067 66.05C25.067 65.042 25.283 64.154 25.715 63.386C26.159 62.606 26.759 62.012 27.515 61.604C28.271 61.184 29.117 60.974 30.053 60.974C30.989 60.974 31.835 61.184 32.591 61.604C33.347 62.012 33.941 62.6 34.373 63.368C34.817 64.136 35.039 65.03 35.039 66.05C35.039 67.07 34.811 67.97 34.355 68.75C33.911 69.518 33.305 70.112 32.537 70.532C31.769 70.952 30.917 71.162 29.981 71.162ZM29.981 69.722C30.569 69.722 31.121 69.584 31.637 69.308C32.153 69.032 32.567 68.618 32.879 68.066C33.203 67.514 33.365 66.842 33.365 66.05C33.365 65.258 33.209 64.586 32.897 64.034C32.585 63.482 32.177 63.074 31.673 62.81C31.169 62.534 30.623 62.396 30.035 62.396C29.435 62.396 28.883 62.534 28.379 62.81C27.887 63.074 27.491 63.482 27.191 64.034C26.891 64.586 26.741 65.258 26.741 66.05C26.741 66.854 26.885 67.532 27.173 68.084C27.473 68.636 27.869 69.05 28.361 69.326C28.853 69.59 29.393 69.722 29.981 69.722ZM45.9406 61.136V71H44.3026V69.542C43.9906 70.046 43.5526 70.442 42.9886 70.73C42.4366 71.006 41.8246 71.144 41.1526 71.144C40.3846 71.144 39.6946 70.988 39.0826 70.676C38.4706 70.352 37.9846 69.872 37.6246 69.236C37.2766 68.6 37.1026 67.826 37.1026 66.914V61.136H38.7226V66.698C38.7226 67.67 38.9686 68.42 39.4606 68.948C39.9526 69.464 40.6246 69.722 41.4766 69.722C42.3526 69.722 43.0426 69.452 43.5466 68.912C44.0506 68.372 44.3026 67.586 44.3026 66.554V61.136H45.9406ZM50.7043 62.486V68.3C50.7043 68.78 50.8063 69.122 51.0103 69.326C51.2143 69.518 51.5683 69.614 52.0723 69.614H53.2783V71H51.8023C50.8903 71 50.2063 70.79 49.7503 70.37C49.2943 69.95 49.0663 69.26 49.0663 68.3V62.486H47.7883V61.136H49.0663V58.652H50.7043V61.136H53.2783V62.486H50.7043Z" fill="#F9F9F9"/>
<path d="M9.774 113.126C9.774 114.17 9.414 115.04 8.694 115.736C7.986 116.42 6.9 116.762 5.436 116.762H3.024V122H1.386V109.454H5.436C6.852 109.454 7.926 109.796 8.658 110.48C9.402 111.164 9.774 112.046 9.774 113.126ZM5.436 115.412C6.348 115.412 7.02 115.214 7.452 114.818C7.884 114.422 8.1 113.858 8.1 113.126C8.1 111.578 7.212 110.804 5.436 110.804H3.024V115.412H5.436ZM13.4478 113.738C13.7358 113.174 14.1438 112.736 14.6718 112.424C15.2118 112.112 15.8658 111.956 16.6338 111.956V113.648H16.2018C14.3658 113.648 13.4478 114.644 13.4478 116.636V122H11.8098V112.136H13.4478V113.738ZM22.8267 122.162C21.9027 122.162 21.0627 121.952 20.3067 121.532C19.5627 121.112 18.9747 120.518 18.5427 119.75C18.1227 118.97 17.9127 118.07 17.9127 117.05C17.9127 116.042 18.1287 115.154 18.5607 114.386C19.0047 113.606 19.6047 113.012 20.3607 112.604C21.1167 112.184 21.9627 111.974 22.8987 111.974C23.8347 111.974 24.6807 112.184 25.4367 112.604C26.1927 113.012 26.7867 113.6 27.2187 114.368C27.6627 115.136 27.8847 116.03 27.8847 117.05C27.8847 118.07 27.6567 118.97 27.2007 119.75C26.7567 120.518 26.1507 121.112 25.3827 121.532C24.6147 121.952 23.7627 122.162 22.8267 122.162ZM22.8267 120.722C23.4147 120.722 23.9667 120.584 24.4827 120.308C24.9987 120.032 25.4127 119.618 25.7247 119.066C26.0487 118.514 26.2107 117.842 26.2107 117.05C26.2107 116.258 26.0547 115.586 25.7427 115.034C25.4307 114.482 25.0227 114.074 24.5187 113.81C24.0147 113.534 23.4687 113.396 22.8807 113.396C22.2807 113.396 21.7287 113.534 21.2247 113.81C20.7327 114.074 20.3367 114.482 20.0367 115.034C19.7367 115.586 19.5867 116.258 19.5867 117.05C19.5867 117.854 19.7307 118.532 20.0187 119.084C20.3187 119.636 20.7147 120.05 21.2067 120.326C21.6987 120.59 22.2387 120.722 22.8267 120.722ZM29.4263 117.032C29.4263 116.024 29.6303 115.142 30.0383 114.386C30.4463 113.618 31.0043 113.024 31.7123 112.604C32.4323 112.184 33.2363 111.974 34.1243 111.974C34.8923 111.974 35.6063 112.154 36.2663 112.514C36.9263 112.862 37.4303 113.324 37.7783 113.9V108.68H39.4343V122H37.7783V120.146C37.4543 120.734 36.9743 121.22 36.3383 121.604C35.7023 121.976 34.9583 122.162 34.1063 122.162C33.2303 122.162 32.4323 121.946 31.7123 121.514C31.0043 121.082 30.4463 120.476 30.0383 119.696C29.6303 118.916 29.4263 118.028 29.4263 117.032ZM37.7783 117.05C37.7783 116.306 37.6283 115.658 37.3283 115.106C37.0283 114.554 36.6203 114.134 36.1043 113.846C35.6003 113.546 35.0423 113.396 34.4303 113.396C33.8183 113.396 33.2603 113.54 32.7563 113.828C32.2523 114.116 31.8503 114.536 31.5503 115.088C31.2503 115.64 31.1003 116.288 31.1003 117.032C31.1003 117.788 31.2503 118.448 31.5503 119.012C31.8503 119.564 32.2523 119.99 32.7563 120.29C33.2603 120.578 33.8183 120.722 34.4303 120.722C35.0423 120.722 35.6003 120.578 36.1043 120.29C36.6203 119.99 37.0283 119.564 37.3283 119.012C37.6283 118.448 37.7783 117.794 37.7783 117.05ZM50.9504 112.136V122H49.3124V120.542C49.0004 121.046 48.5624 121.442 47.9984 121.73C47.4464 122.006 46.8344 122.144 46.1624 122.144C45.3944 122.144 44.7044 121.988 44.0924 121.676C43.4804 121.352 42.9944 120.872 42.6344 120.236C42.2864 119.6 42.1124 118.826 42.1124 117.914V112.136H43.7324V117.698C43.7324 118.67 43.9784 119.42 44.4704 119.948C44.9624 120.464 45.6344 120.722 46.4864 120.722C47.3624 120.722 48.0524 120.452 48.5564 119.912C49.0604 119.372 49.3124 118.586 49.3124 117.554V112.136H50.9504ZM53.1041 117.05C53.1041 116.03 53.3081 115.142 53.7161 114.386C54.1241 113.618 54.6881 113.024 55.4081 112.604C56.1401 112.184 56.9741 111.974 57.9101 111.974C59.1221 111.974 60.1181 112.268 60.8981 112.856C61.6901 113.444 62.2121 114.26 62.4641 115.304H60.7001C60.5321 114.704 60.2021 114.23 59.7101 113.882C59.2301 113.534 58.6301 113.36 57.9101 113.36C56.9741 113.36 56.2181 113.684 55.6421 114.332C55.0661 114.968 54.7781 115.874 54.7781 117.05C54.7781 118.238 55.0661 119.156 55.6421 119.804C56.2181 120.452 56.9741 120.776 57.9101 120.776C58.6301 120.776 59.2301 120.608 59.7101 120.272C60.1901 119.936 60.5201 119.456 60.7001 118.832H62.4641C62.2001 119.84 61.6721 120.65 60.8801 121.262C60.0881 121.862 59.0981 122.162 57.9101 122.162C56.9741 122.162 56.1401 121.952 55.4081 121.532C54.6881 121.112 54.1241 120.518 53.7161 119.75C53.3081 118.982 53.1041 118.082 53.1041 117.05ZM66.6477 113.486V119.3C66.6477 119.78 66.7497 120.122 66.9537 120.326C67.1577 120.518 67.5117 120.614 68.0157 120.614H69.2217V122H67.7457C66.8337 122 66.1497 121.79 65.6937 121.37C65.2377 120.95 65.0097 120.26 65.0097 119.3V113.486H63.7317V112.136H65.0097V109.652H66.6477V112.136H69.2217V113.486H66.6477Z" fill="#F9F9F9"/>
<path d="M7.668 166.538C8.124 166.61 8.538 166.796 8.91 167.096C9.294 167.396 9.594 167.768 9.81 168.212C10.038 168.656 10.152 169.13 10.152 169.634C10.152 170.27 9.99 170.846 9.666 171.362C9.342 171.866 8.868 172.268 8.244 172.568C7.632 172.856 6.906 173 6.066 173H1.386V160.454H5.886C6.738 160.454 7.464 160.598 8.064 160.886C8.664 161.162 9.114 161.54 9.414 162.02C9.714 162.5 9.864 163.04 9.864 163.64C9.864 164.384 9.66 165.002 9.252 165.494C8.856 165.974 8.328 166.322 7.668 166.538ZM3.024 165.872H5.778C6.546 165.872 7.14 165.692 7.56 165.332C7.98 164.972 8.19 164.474 8.19 163.838C8.19 163.202 7.98 162.704 7.56 162.344C7.14 161.984 6.534 161.804 5.742 161.804H3.024V165.872ZM5.922 171.65C6.738 171.65 7.374 171.458 7.83 171.074C8.286 170.69 8.514 170.156 8.514 169.472C8.514 168.776 8.274 168.23 7.794 167.834C7.314 167.426 6.672 167.222 5.868 167.222H3.024V171.65H5.922ZM14.0631 159.68V173H12.4251V159.68H14.0631ZM21.1568 173.162C20.2328 173.162 19.3928 172.952 18.6368 172.532C17.8928 172.112 17.3048 171.518 16.8728 170.75C16.4528 169.97 16.2428 169.07 16.2428 168.05C16.2428 167.042 16.4588 166.154 16.8908 165.386C17.3348 164.606 17.9348 164.012 18.6908 163.604C19.4468 163.184 20.2928 162.974 21.2288 162.974C22.1648 162.974 23.0108 163.184 23.7668 163.604C24.5228 164.012 25.1168 164.6 25.5488 165.368C25.9928 166.136 26.2148 167.03 26.2148 168.05C26.2148 169.07 25.9868 169.97 25.5308 170.75C25.0868 171.518 24.4808 172.112 23.7128 172.532C22.9448 172.952 22.0928 173.162 21.1568 173.162ZM21.1568 171.722C21.7448 171.722 22.2968 171.584 22.8128 171.308C23.3288 171.032 23.7428 170.618 24.0548 170.066C24.3788 169.514 24.5408 168.842 24.5408 168.05C24.5408 167.258 24.3848 166.586 24.0728 166.034C23.7608 165.482 23.3528 165.074 22.8488 164.81C22.3448 164.534 21.7988 164.396 21.2108 164.396C20.6108 164.396 20.0588 164.534 19.5548 164.81C19.0628 165.074 18.6668 165.482 18.3668 166.034C18.0668 166.586 17.9168 167.258 17.9168 168.05C17.9168 168.854 18.0608 169.532 18.3488 170.084C18.6488 170.636 19.0448 171.05 19.5368 171.326C20.0288 171.59 20.5688 171.722 21.1568 171.722ZM32.4364 162.974C33.2884 162.974 34.0324 163.16 34.6684 163.532C35.3164 163.904 35.7964 164.372 36.1084 164.936V163.136H37.7644V173.216C37.7644 174.116 37.5724 174.914 37.1884 175.61C36.8044 176.318 36.2524 176.87 35.5324 177.266C34.8244 177.662 33.9964 177.86 33.0484 177.86C31.7524 177.86 30.6724 177.554 29.8084 176.942C28.9444 176.33 28.4344 175.496 28.2784 174.44H29.8984C30.0784 175.04 30.4504 175.52 31.0144 175.88C31.5784 176.252 32.2564 176.438 33.0484 176.438C33.9484 176.438 34.6804 176.156 35.2444 175.592C35.8204 175.028 36.1084 174.236 36.1084 173.216V171.146C35.7844 171.722 35.3044 172.202 34.6684 172.586C34.0324 172.97 33.2884 173.162 32.4364 173.162C31.5604 173.162 30.7624 172.946 30.0424 172.514C29.3344 172.082 28.7764 171.476 28.3684 170.696C27.9604 169.916 27.7564 169.028 27.7564 168.032C27.7564 167.024 27.9604 166.142 28.3684 165.386C28.7764 164.618 29.3344 164.024 30.0424 163.604C30.7624 163.184 31.5604 162.974 32.4364 162.974ZM36.1084 168.05C36.1084 167.306 35.9584 166.658 35.6584 166.106C35.3584 165.554 34.9504 165.134 34.4344 164.846C33.9304 164.546 33.3724 164.396 32.7604 164.396C32.1484 164.396 31.5904 164.54 31.0864 164.828C30.5824 165.116 30.1804 165.536 29.8804 166.088C29.5804 166.64 29.4304 167.288 29.4304 168.032C29.4304 168.788 29.5804 169.448 29.8804 170.012C30.1804 170.564 30.5824 170.99 31.0864 171.29C31.5904 171.578 32.1484 171.722 32.7604 171.722C33.3724 171.722 33.9304 171.578 34.4344 171.29C34.9504 170.99 35.3584 170.564 35.6584 170.012C35.9584 169.448 36.1084 168.794 36.1084 168.05Z" fill="#F9F9F9"/>
<path d="M159.594 13.664C159.594 12.416 159.864 11.306 160.404 10.334C160.944 9.35 161.694 8.588 162.654 8.048C163.626 7.496 164.724 7.22 165.948 7.22C167.448 7.22 168.732 7.616 169.8 8.408C170.868 9.2 171.582 10.28 171.942 11.648H168.558C168.306 11.12 167.946 10.718 167.478 10.442C167.022 10.166 166.5 10.028 165.912 10.028C164.964 10.028 164.196 10.358 163.608 11.018C163.02 11.678 162.726 12.56 162.726 13.664C162.726 14.768 163.02 15.65 163.608 16.31C164.196 16.97 164.964 17.3 165.912 17.3C166.5 17.3 167.022 17.162 167.478 16.886C167.946 16.61 168.306 16.208 168.558 15.68H171.942C171.582 17.048 170.868 18.128 169.8 18.92C168.732 19.7 167.448 20.09 165.948 20.09C164.724 20.09 163.626 19.82 162.654 19.28C161.694 18.728 160.944 17.966 160.404 16.994C159.864 16.022 159.594 14.912 159.594 13.664ZM178.399 20.144C177.415 20.144 176.527 19.934 175.735 19.514C174.955 19.094 174.337 18.494 173.881 17.714C173.437 16.934 173.215 16.022 173.215 14.978C173.215 13.946 173.443 13.04 173.899 12.26C174.355 11.468 174.979 10.862 175.771 10.442C176.563 10.022 177.451 9.812 178.435 9.812C179.419 9.812 180.307 10.022 181.099 10.442C181.891 10.862 182.515 11.468 182.971 12.26C183.427 13.04 183.655 13.946 183.655 14.978C183.655 16.01 183.421 16.922 182.953 17.714C182.497 18.494 181.867 19.094 181.063 19.514C180.271 19.934 179.383 20.144 178.399 20.144ZM178.399 17.48C178.987 17.48 179.485 17.264 179.893 16.832C180.313 16.4 180.523 15.782 180.523 14.978C180.523 14.174 180.319 13.556 179.911 13.124C179.515 12.692 179.023 12.476 178.435 12.476C177.835 12.476 177.337 12.692 176.941 13.124C176.545 13.544 176.347 14.162 176.347 14.978C176.347 15.782 176.539 16.4 176.923 16.832C177.319 17.264 177.811 17.48 178.399 17.48ZM198.104 9.848C199.352 9.848 200.342 10.226 201.074 10.982C201.818 11.738 202.19 12.788 202.19 14.132V20H199.13V14.546C199.13 13.898 198.956 13.4 198.608 13.052C198.272 12.692 197.804 12.512 197.204 12.512C196.604 12.512 196.13 12.692 195.782 13.052C195.446 13.4 195.278 13.898 195.278 14.546V20H192.218V14.546C192.218 13.898 192.044 13.4 191.696 13.052C191.36 12.692 190.892 12.512 190.292 12.512C189.692 12.512 189.218 12.692 188.87 13.052C188.534 13.4 188.366 13.898 188.366 14.546V20H185.288V9.956H188.366V11.216C188.678 10.796 189.086 10.466 189.59 10.226C190.094 9.974 190.664 9.848 191.3 9.848C192.056 9.848 192.728 10.01 193.316 10.334C193.916 10.658 194.384 11.12 194.72 11.72C195.068 11.168 195.542 10.718 196.142 10.37C196.742 10.022 197.396 9.848 198.104 9.848ZM207.421 11.378C207.721 10.91 208.135 10.532 208.663 10.244C209.191 9.956 209.809 9.812 210.517 9.812C211.345 9.812 212.095 10.022 212.767 10.442C213.439 10.862 213.967 11.462 214.351 12.242C214.747 13.022 214.945 13.928 214.945 14.96C214.945 15.992 214.747 16.904 214.351 17.696C213.967 18.476 213.439 19.082 212.767 19.514C212.095 19.934 211.345 20.144 210.517 20.144C209.821 20.144 209.203 20 208.663 19.712C208.135 19.424 207.721 19.052 207.421 18.596V24.788H204.343V9.956H207.421V11.378ZM211.813 14.96C211.813 14.192 211.597 13.592 211.165 13.16C210.745 12.716 210.223 12.494 209.599 12.494C208.987 12.494 208.465 12.716 208.033 13.16C207.613 13.604 207.403 14.21 207.403 14.978C207.403 15.746 207.613 16.352 208.033 16.796C208.465 17.24 208.987 17.462 209.599 17.462C210.211 17.462 210.733 17.24 211.165 16.796C211.597 16.34 211.813 15.728 211.813 14.96ZM215.947 14.96C215.947 13.928 216.139 13.022 216.523 12.242C216.919 11.462 217.453 10.862 218.125 10.442C218.797 10.022 219.547 9.812 220.375 9.812C221.083 9.812 221.701 9.956 222.229 10.244C222.769 10.532 223.183 10.91 223.471 11.378V9.956H226.549V20H223.471V18.578C223.171 19.046 222.751 19.424 222.211 19.712C221.683 20 221.065 20.144 220.357 20.144C219.541 20.144 218.797 19.934 218.125 19.514C217.453 19.082 216.919 18.476 216.523 17.696C216.139 16.904 215.947 15.992 215.947 14.96ZM223.471 14.978C223.471 14.21 223.255 13.604 222.823 13.16C222.403 12.716 221.887 12.494 221.275 12.494C220.663 12.494 220.141 12.716 219.709 13.16C219.289 13.592 219.079 14.192 219.079 14.96C219.079 15.728 219.289 16.34 219.709 16.796C220.141 17.24 220.663 17.462 221.275 17.462C221.887 17.462 222.403 17.24 222.823 16.796C223.255 16.352 223.471 15.746 223.471 14.978ZM234.896 9.848C236.072 9.848 237.008 10.232 237.704 11C238.412 11.756 238.766 12.8 238.766 14.132V20H235.706V14.546C235.706 13.874 235.532 13.352 235.184 12.98C234.836 12.608 234.368 12.422 233.78 12.422C233.192 12.422 232.724 12.608 232.376 12.98C232.028 13.352 231.854 13.874 231.854 14.546V20H228.776V9.956H231.854V11.288C232.166 10.844 232.586 10.496 233.114 10.244C233.642 9.98 234.236 9.848 234.896 9.848ZM251.165 9.956L244.865 24.77H241.553L243.857 19.658L239.771 9.956H243.209L245.531 16.238L247.835 9.956H251.165Z" fill="#EEEEEE"/>
<path d="M159.774 64.718C159.774 63.494 160.05 62.396 160.602 61.424C161.154 60.44 161.904 59.672 162.852 59.12C163.812 58.568 164.874 58.292 166.038 58.292C167.406 58.292 168.6 58.622 169.62 59.282C170.64 59.942 171.384 60.878 171.852 62.09H169.89C169.542 61.334 169.038 60.752 168.378 60.344C167.73 59.936 166.95 59.732 166.038 59.732C165.162 59.732 164.376 59.936 163.68 60.344C162.984 60.752 162.438 61.334 162.042 62.09C161.646 62.834 161.448 63.71 161.448 64.718C161.448 65.714 161.646 66.59 162.042 67.346C162.438 68.09 162.984 68.666 163.68 69.074C164.376 69.482 165.162 69.686 166.038 69.686C166.95 69.686 167.73 69.488 168.378 69.092C169.038 68.684 169.542 68.102 169.89 67.346H171.852C171.384 68.546 170.64 69.476 169.62 70.136C168.6 70.784 167.406 71.108 166.038 71.108C164.874 71.108 163.812 70.838 162.852 70.298C161.904 69.746 161.154 68.984 160.602 68.012C160.05 67.04 159.774 65.942 159.774 64.718ZM178.592 71.162C177.668 71.162 176.828 70.952 176.072 70.532C175.328 70.112 174.74 69.518 174.308 68.75C173.888 67.97 173.678 67.07 173.678 66.05C173.678 65.042 173.894 64.154 174.326 63.386C174.77 62.606 175.37 62.012 176.126 61.604C176.882 61.184 177.728 60.974 178.664 60.974C179.6 60.974 180.446 61.184 181.202 61.604C181.958 62.012 182.552 62.6 182.984 63.368C183.428 64.136 183.65 65.03 183.65 66.05C183.65 67.07 183.422 67.97 182.966 68.75C182.522 69.518 181.916 70.112 181.148 70.532C180.38 70.952 179.528 71.162 178.592 71.162ZM178.592 69.722C179.18 69.722 179.732 69.584 180.248 69.308C180.764 69.032 181.178 68.618 181.49 68.066C181.814 67.514 181.976 66.842 181.976 66.05C181.976 65.258 181.82 64.586 181.508 64.034C181.196 63.482 180.788 63.074 180.284 62.81C179.78 62.534 179.234 62.396 178.646 62.396C178.046 62.396 177.494 62.534 176.99 62.81C176.498 63.074 176.102 63.482 175.802 64.034C175.502 64.586 175.352 65.258 175.352 66.05C175.352 66.854 175.496 67.532 175.784 68.084C176.084 68.636 176.48 69.05 176.972 69.326C177.464 69.59 178.004 69.722 178.592 69.722ZM197.666 60.956C198.434 60.956 199.118 61.118 199.718 61.442C200.318 61.754 200.792 62.228 201.14 62.864C201.488 63.5 201.662 64.274 201.662 65.186V71H200.042V65.42C200.042 64.436 199.796 63.686 199.304 63.17C198.824 62.642 198.17 62.378 197.342 62.378C196.49 62.378 195.812 62.654 195.308 63.206C194.804 63.746 194.552 64.532 194.552 65.564V71H192.932V65.42C192.932 64.436 192.686 63.686 192.194 63.17C191.714 62.642 191.06 62.378 190.232 62.378C189.38 62.378 188.702 62.654 188.198 63.206C187.694 63.746 187.442 64.532 187.442 65.564V71H185.804V61.136H187.442V62.558C187.766 62.042 188.198 61.646 188.738 61.37C189.29 61.094 189.896 60.956 190.556 60.956C191.384 60.956 192.116 61.142 192.752 61.514C193.388 61.886 193.862 62.432 194.174 63.152C194.45 62.456 194.906 61.916 195.542 61.532C196.178 61.148 196.886 60.956 197.666 60.956ZM216.211 60.956C216.979 60.956 217.663 61.118 218.263 61.442C218.863 61.754 219.337 62.228 219.685 62.864C220.033 63.5 220.207 64.274 220.207 65.186V71H218.587V65.42C218.587 64.436 218.341 63.686 217.849 63.17C217.369 62.642 216.715 62.378 215.887 62.378C215.035 62.378 214.357 62.654 213.853 63.206C213.349 63.746 213.097 64.532 213.097 65.564V71H211.477V65.42C211.477 64.436 211.231 63.686 210.739 63.17C210.259 62.642 209.605 62.378 208.777 62.378C207.925 62.378 207.247 62.654 206.743 63.206C206.239 63.746 205.987 64.532 205.987 65.564V71H204.349V61.136H205.987V62.558C206.311 62.042 206.743 61.646 207.283 61.37C207.835 61.094 208.441 60.956 209.101 60.956C209.929 60.956 210.661 61.142 211.297 61.514C211.933 61.886 212.407 62.432 212.719 63.152C212.995 62.456 213.451 61.916 214.087 61.532C214.723 61.148 215.431 60.956 216.211 60.956ZM231.642 61.136V71H230.004V69.542C229.692 70.046 229.254 70.442 228.69 70.73C228.138 71.006 227.526 71.144 226.854 71.144C226.086 71.144 225.396 70.988 224.784 70.676C224.172 70.352 223.686 69.872 223.326 69.236C222.978 68.6 222.804 67.826 222.804 66.914V61.136H224.424V66.698C224.424 67.67 224.67 68.42 225.162 68.948C225.654 69.464 226.326 69.722 227.178 69.722C228.054 69.722 228.744 69.452 229.248 68.912C229.752 68.372 230.004 67.586 230.004 66.554V61.136H231.642ZM239.213 60.956C240.413 60.956 241.385 61.322 242.129 62.054C242.873 62.774 243.245 63.818 243.245 65.186V71H241.625V65.42C241.625 64.436 241.379 63.686 240.887 63.17C240.395 62.642 239.723 62.378 238.871 62.378C238.007 62.378 237.317 62.648 236.801 63.188C236.297 63.728 236.045 64.514 236.045 65.546V71H234.407V61.136H236.045V62.54C236.369 62.036 236.807 61.646 237.359 61.37C237.923 61.094 238.541 60.956 239.213 60.956ZM246.767 59.534C246.455 59.534 246.191 59.426 245.975 59.21C245.759 58.994 245.651 58.73 245.651 58.418C245.651 58.106 245.759 57.842 245.975 57.626C246.191 57.41 246.455 57.302 246.767 57.302C247.067 57.302 247.319 57.41 247.523 57.626C247.739 57.842 247.847 58.106 247.847 58.418C247.847 58.73 247.739 58.994 247.523 59.21C247.319 59.426 247.067 59.534 246.767 59.534ZM247.559 61.136V71H245.921V61.136H247.559ZM252.349 62.486V68.3C252.349 68.78 252.451 69.122 252.655 69.326C252.859 69.518 253.213 69.614 253.717 69.614H254.923V71H253.447C252.535 71 251.851 70.79 251.395 70.37C250.939 69.95 250.711 69.26 250.711 68.3V62.486H249.433V61.136H250.711V58.652H252.349V61.136H254.923V62.486H252.349ZM265.403 61.136L259.463 75.644H257.771L259.715 70.892L255.737 61.136H257.555L260.651 69.128L263.711 61.136H265.403Z" fill="#F9F9F9"/>
<path d="M159.774 115.718C159.774 114.494 160.05 113.396 160.602 112.424C161.154 111.44 161.904 110.672 162.852 110.12C163.812 109.568 164.874 109.292 166.038 109.292C167.406 109.292 168.6 109.622 169.62 110.282C170.64 110.942 171.384 111.878 171.852 113.09H169.89C169.542 112.334 169.038 111.752 168.378 111.344C167.73 110.936 166.95 110.732 166.038 110.732C165.162 110.732 164.376 110.936 163.68 111.344C162.984 111.752 162.438 112.334 162.042 113.09C161.646 113.834 161.448 114.71 161.448 115.718C161.448 116.714 161.646 117.59 162.042 118.346C162.438 119.09 162.984 119.666 163.68 120.074C164.376 120.482 165.162 120.686 166.038 120.686C166.95 120.686 167.73 120.488 168.378 120.092C169.038 119.684 169.542 119.102 169.89 118.346H171.852C171.384 119.546 170.64 120.476 169.62 121.136C168.6 121.784 167.406 122.108 166.038 122.108C164.874 122.108 163.812 121.838 162.852 121.298C161.904 120.746 161.154 119.984 160.602 119.012C160.05 118.04 159.774 116.942 159.774 115.718ZM173.678 117.032C173.678 116.024 173.882 115.142 174.29 114.386C174.698 113.618 175.256 113.024 175.964 112.604C176.684 112.184 177.482 111.974 178.358 111.974C179.222 111.974 179.972 112.16 180.608 112.532C181.244 112.904 181.718 113.372 182.03 113.936V112.136H183.686V122H182.03V120.164C181.706 120.74 181.22 121.22 180.572 121.604C179.936 121.976 179.192 122.162 178.34 122.162C177.464 122.162 176.672 121.946 175.964 121.514C175.256 121.082 174.698 120.476 174.29 119.696C173.882 118.916 173.678 118.028 173.678 117.032ZM182.03 117.05C182.03 116.306 181.88 115.658 181.58 115.106C181.28 114.554 180.872 114.134 180.356 113.846C179.852 113.546 179.294 113.396 178.682 113.396C178.07 113.396 177.512 113.54 177.008 113.828C176.504 114.116 176.102 114.536 175.802 115.088C175.502 115.64 175.352 116.288 175.352 117.032C175.352 117.788 175.502 118.448 175.802 119.012C176.102 119.564 176.504 119.99 177.008 120.29C177.512 120.578 178.07 120.722 178.682 120.722C179.294 120.722 179.852 120.578 180.356 120.29C180.872 119.99 181.28 119.564 181.58 119.012C181.88 118.448 182.03 117.794 182.03 117.05ZM188.092 113.738C188.38 113.174 188.788 112.736 189.316 112.424C189.856 112.112 190.51 111.956 191.278 111.956V113.648H190.846C189.01 113.648 188.092 114.644 188.092 116.636V122H186.454V112.136H188.092V113.738ZM202.169 116.69C202.169 117.002 202.151 117.332 202.115 117.68H194.231C194.291 118.652 194.621 119.414 195.221 119.966C195.833 120.506 196.571 120.776 197.435 120.776C198.143 120.776 198.731 120.614 199.199 120.29C199.679 119.954 200.015 119.51 200.207 118.958H201.971C201.707 119.906 201.179 120.68 200.387 121.28C199.595 121.868 198.611 122.162 197.435 122.162C196.499 122.162 195.659 121.952 194.915 121.532C194.183 121.112 193.607 120.518 193.187 119.75C192.767 118.97 192.557 118.07 192.557 117.05C192.557 116.03 192.761 115.136 193.169 114.368C193.577 113.6 194.147 113.012 194.879 112.604C195.623 112.184 196.475 111.974 197.435 111.974C198.371 111.974 199.199 112.178 199.919 112.586C200.639 112.994 201.191 113.558 201.575 114.278C201.971 114.986 202.169 115.79 202.169 116.69ZM200.477 116.348C200.477 115.724 200.339 115.19 200.063 114.746C199.787 114.29 199.409 113.948 198.929 113.72C198.461 113.48 197.939 113.36 197.363 113.36C196.535 113.36 195.827 113.624 195.239 114.152C194.663 114.68 194.333 115.412 194.249 116.348H200.477ZM213.331 116.69C213.331 117.002 213.313 117.332 213.277 117.68H205.393C205.453 118.652 205.783 119.414 206.383 119.966C206.995 120.506 207.733 120.776 208.597 120.776C209.305 120.776 209.893 120.614 210.361 120.29C210.841 119.954 211.177 119.51 211.369 118.958H213.133C212.869 119.906 212.341 120.68 211.549 121.28C210.757 121.868 209.773 122.162 208.597 122.162C207.661 122.162 206.821 121.952 206.077 121.532C205.345 121.112 204.769 120.518 204.349 119.75C203.929 118.97 203.719 118.07 203.719 117.05C203.719 116.03 203.923 115.136 204.331 114.368C204.739 113.6 205.309 113.012 206.041 112.604C206.785 112.184 207.637 111.974 208.597 111.974C209.533 111.974 210.361 112.178 211.081 112.586C211.801 112.994 212.353 113.558 212.737 114.278C213.133 114.986 213.331 115.79 213.331 116.69ZM211.639 116.348C211.639 115.724 211.501 115.19 211.225 114.746C210.949 114.29 210.571 113.948 210.091 113.72C209.623 113.48 209.101 113.36 208.525 113.36C207.697 113.36 206.989 113.624 206.401 114.152C205.825 114.68 205.495 115.412 205.411 116.348H211.639ZM217.131 113.738C217.419 113.174 217.827 112.736 218.355 112.424C218.895 112.112 219.549 111.956 220.317 111.956V113.648H219.885C218.049 113.648 217.131 114.644 217.131 116.636V122H215.493V112.136H217.131V113.738Z" fill="#F9F9F9"/>
<path d="M166.074 173.126C164.91 173.126 163.848 172.856 162.888 172.316C161.928 171.764 161.166 171.002 160.602 170.03C160.05 169.046 159.774 167.942 159.774 166.718C159.774 165.494 160.05 164.396 160.602 163.424C161.166 162.44 161.928 161.678 162.888 161.138C163.848 160.586 164.91 160.31 166.074 160.31C167.25 160.31 168.318 160.586 169.278 161.138C170.238 161.678 170.994 162.434 171.546 163.406C172.098 164.378 172.374 165.482 172.374 166.718C172.374 167.954 172.098 169.058 171.546 170.03C170.994 171.002 170.238 171.764 169.278 172.316C168.318 172.856 167.25 173.126 166.074 173.126ZM166.074 171.704C166.95 171.704 167.736 171.5 168.432 171.092C169.14 170.684 169.692 170.102 170.088 169.346C170.496 168.59 170.7 167.714 170.7 166.718C170.7 165.71 170.496 164.834 170.088 164.09C169.692 163.334 169.146 162.752 168.45 162.344C167.754 161.936 166.962 161.732 166.074 161.732C165.186 161.732 164.394 161.936 163.698 162.344C163.002 162.752 162.45 163.334 162.042 164.09C161.646 164.834 161.448 165.71 161.448 166.718C161.448 167.714 161.646 168.59 162.042 169.346C162.45 170.102 163.002 170.684 163.698 171.092C164.406 171.5 165.198 171.704 166.074 171.704ZM183.284 163.136V173H181.646V171.542C181.334 172.046 180.896 172.442 180.332 172.73C179.78 173.006 179.168 173.144 178.496 173.144C177.728 173.144 177.038 172.988 176.426 172.676C175.814 172.352 175.328 171.872 174.968 171.236C174.62 170.6 174.446 169.826 174.446 168.914V163.136H176.066V168.698C176.066 169.67 176.312 170.42 176.804 170.948C177.296 171.464 177.968 171.722 178.82 171.722C179.696 171.722 180.386 171.452 180.89 170.912C181.394 170.372 181.646 169.586 181.646 168.554V163.136H183.284ZM187.688 164.738C187.976 164.174 188.384 163.736 188.912 163.424C189.452 163.112 190.106 162.956 190.874 162.956V164.648H190.442C188.606 164.648 187.688 165.644 187.688 167.636V173H186.05V163.136H187.688V164.738ZM201.056 173.162C200.3 173.162 199.622 173.036 199.022 172.784C198.422 172.52 197.948 172.16 197.6 171.704C197.252 171.236 197.06 170.702 197.024 170.102H198.716C198.764 170.594 198.992 170.996 199.4 171.308C199.82 171.62 200.366 171.776 201.038 171.776C201.662 171.776 202.154 171.638 202.514 171.362C202.874 171.086 203.054 170.738 203.054 170.318C203.054 169.886 202.862 169.568 202.478 169.364C202.094 169.148 201.5 168.938 200.696 168.734C199.964 168.542 199.364 168.35 198.896 168.158C198.44 167.954 198.044 167.66 197.708 167.276C197.384 166.88 197.222 166.364 197.222 165.728C197.222 165.224 197.372 164.762 197.672 164.342C197.972 163.922 198.398 163.592 198.95 163.352C199.502 163.1 200.132 162.974 200.84 162.974C201.932 162.974 202.814 163.25 203.486 163.802C204.158 164.354 204.518 165.11 204.566 166.07H202.928C202.892 165.554 202.682 165.14 202.298 164.828C201.926 164.516 201.422 164.36 200.786 164.36C200.198 164.36 199.73 164.486 199.382 164.738C199.034 164.99 198.86 165.32 198.86 165.728C198.86 166.052 198.962 166.322 199.166 166.538C199.382 166.742 199.646 166.91 199.958 167.042C200.282 167.162 200.726 167.3 201.29 167.456C201.998 167.648 202.574 167.84 203.018 168.032C203.462 168.212 203.84 168.488 204.152 168.86C204.476 169.232 204.644 169.718 204.656 170.318C204.656 170.858 204.506 171.344 204.206 171.776C203.906 172.208 203.48 172.55 202.928 172.802C202.388 173.042 201.764 173.162 201.056 173.162ZM208.966 164.486V170.3C208.966 170.78 209.068 171.122 209.272 171.326C209.476 171.518 209.83 171.614 210.334 171.614H211.54V173H210.064C209.152 173 208.468 172.79 208.012 172.37C207.556 171.95 207.328 171.26 207.328 170.3V164.486H206.05V163.136H207.328V160.652H208.966V163.136H211.54V164.486H208.966ZM217.827 173.162C216.903 173.162 216.063 172.952 215.307 172.532C214.563 172.112 213.975 171.518 213.543 170.75C213.123 169.97 212.913 169.07 212.913 168.05C212.913 167.042 213.129 166.154 213.561 165.386C214.005 164.606 214.605 164.012 215.361 163.604C216.117 163.184 216.963 162.974 217.899 162.974C218.835 162.974 219.681 163.184 220.437 163.604C221.193 164.012 221.787 164.6 222.219 165.368C222.663 166.136 222.885 167.03 222.885 168.05C222.885 169.07 222.657 169.97 222.201 170.75C221.757 171.518 221.151 172.112 220.383 172.532C219.615 172.952 218.763 173.162 217.827 173.162ZM217.827 171.722C218.415 171.722 218.967 171.584 219.483 171.308C219.999 171.032 220.413 170.618 220.725 170.066C221.049 169.514 221.211 168.842 221.211 168.05C221.211 167.258 221.055 166.586 220.743 166.034C220.431 165.482 220.023 165.074 219.519 164.81C219.015 164.534 218.469 164.396 217.881 164.396C217.281 164.396 216.729 164.534 216.225 164.81C215.733 165.074 215.337 165.482 215.037 166.034C214.737 166.586 214.587 167.258 214.587 168.05C214.587 168.854 214.731 169.532 215.019 170.084C215.319 170.636 215.715 171.05 216.207 171.326C216.699 171.59 217.239 171.722 217.827 171.722ZM226.676 164.738C226.964 164.174 227.372 163.736 227.9 163.424C228.44 163.112 229.094 162.956 229.862 162.956V164.648H229.43C227.594 164.648 226.676 165.644 226.676 167.636V173H225.038V163.136H226.676V164.738ZM240.249 163.136L234.309 177.644H232.617L234.561 172.892L230.583 163.136H232.401L235.497 171.128L238.557 163.136H240.249Z" fill="#F9F9F9"/>
<path d="M314.594 13.664C314.594 12.416 314.864 11.306 315.404 10.334C315.944 9.35 316.694 8.588 317.654 8.048C318.626 7.496 319.724 7.22 320.948 7.22C322.448 7.22 323.732 7.616 324.8 8.408C325.868 9.2 326.582 10.28 326.942 11.648H323.558C323.306 11.12 322.946 10.718 322.478 10.442C322.022 10.166 321.5 10.028 320.912 10.028C319.964 10.028 319.196 10.358 318.608 11.018C318.02 11.678 317.726 12.56 317.726 13.664C317.726 14.768 318.02 15.65 318.608 16.31C319.196 16.97 319.964 17.3 320.912 17.3C321.5 17.3 322.022 17.162 322.478 16.886C322.946 16.61 323.306 16.208 323.558 15.68H326.942C326.582 17.048 325.868 18.128 324.8 18.92C323.732 19.7 322.448 20.09 320.948 20.09C319.724 20.09 318.626 19.82 317.654 19.28C316.694 18.728 315.944 17.966 315.404 16.994C314.864 16.022 314.594 14.912 314.594 13.664ZM333.399 20.144C332.415 20.144 331.527 19.934 330.735 19.514C329.955 19.094 329.337 18.494 328.881 17.714C328.437 16.934 328.215 16.022 328.215 14.978C328.215 13.946 328.443 13.04 328.899 12.26C329.355 11.468 329.979 10.862 330.771 10.442C331.563 10.022 332.451 9.812 333.435 9.812C334.419 9.812 335.307 10.022 336.099 10.442C336.891 10.862 337.515 11.468 337.971 12.26C338.427 13.04 338.655 13.946 338.655 14.978C338.655 16.01 338.421 16.922 337.953 17.714C337.497 18.494 336.867 19.094 336.063 19.514C335.271 19.934 334.383 20.144 333.399 20.144ZM333.399 17.48C333.987 17.48 334.485 17.264 334.893 16.832C335.313 16.4 335.523 15.782 335.523 14.978C335.523 14.174 335.319 13.556 334.911 13.124C334.515 12.692 334.023 12.476 333.435 12.476C332.835 12.476 332.337 12.692 331.941 13.124C331.545 13.544 331.347 14.162 331.347 14.978C331.347 15.782 331.539 16.4 331.923 16.832C332.319 17.264 332.811 17.48 333.399 17.48ZM346.408 9.848C347.584 9.848 348.52 10.232 349.216 11C349.924 11.756 350.278 12.8 350.278 14.132V20H347.218V14.546C347.218 13.874 347.044 13.352 346.696 12.98C346.348 12.608 345.88 12.422 345.292 12.422C344.704 12.422 344.236 12.608 343.888 12.98C343.54 13.352 343.366 13.874 343.366 14.546V20H340.288V9.956H343.366V11.288C343.678 10.844 344.098 10.496 344.626 10.244C345.154 9.98 345.748 9.848 346.408 9.848ZM358.015 17.39V20H356.449C355.333 20 354.463 19.73 353.839 19.19C353.215 18.638 352.903 17.744 352.903 16.508V12.512H351.679V9.956H352.903V7.508H355.981V9.956H357.997V12.512H355.981V16.544C355.981 16.844 356.053 17.06 356.197 17.192C356.341 17.324 356.581 17.39 356.917 17.39H358.015ZM359.117 14.96C359.117 13.928 359.309 13.022 359.693 12.242C360.089 11.462 360.623 10.862 361.295 10.442C361.967 10.022 362.717 9.812 363.545 9.812C364.253 9.812 364.871 9.956 365.399 10.244C365.939 10.532 366.353 10.91 366.641 11.378V9.956H369.719V20H366.641V18.578C366.341 19.046 365.921 19.424 365.381 19.712C364.853 20 364.235 20.144 363.527 20.144C362.711 20.144 361.967 19.934 361.295 19.514C360.623 19.082 360.089 18.476 359.693 17.696C359.309 16.904 359.117 15.992 359.117 14.96ZM366.641 14.978C366.641 14.21 366.425 13.604 365.993 13.16C365.573 12.716 365.057 12.494 364.445 12.494C363.833 12.494 363.311 12.716 362.879 13.16C362.459 13.592 362.249 14.192 362.249 14.96C362.249 15.728 362.459 16.34 362.879 16.796C363.311 17.24 363.833 17.462 364.445 17.462C365.057 17.462 365.573 17.24 365.993 16.796C366.425 16.352 366.641 15.746 366.641 14.978ZM371.334 14.978C371.334 13.934 371.544 13.022 371.964 12.242C372.396 11.462 372.99 10.862 373.746 10.442C374.514 10.022 375.39 9.812 376.374 9.812C377.634 9.812 378.684 10.142 379.524 10.802C380.376 11.462 380.934 12.392 381.198 13.592H377.922C377.646 12.824 377.112 12.44 376.32 12.44C375.756 12.44 375.306 12.662 374.97 13.106C374.634 13.538 374.466 14.162 374.466 14.978C374.466 15.794 374.634 16.424 374.97 16.868C375.306 17.3 375.756 17.516 376.32 17.516C377.112 17.516 377.646 17.132 377.922 16.364H381.198C380.934 17.54 380.376 18.464 379.524 19.136C378.672 19.808 377.622 20.144 376.374 20.144C375.39 20.144 374.514 19.934 373.746 19.514C372.99 19.094 372.396 18.494 371.964 17.714C371.544 16.934 371.334 16.022 371.334 14.978ZM388.443 17.39V20H386.877C385.761 20 384.891 19.73 384.267 19.19C383.643 18.638 383.331 17.744 383.331 16.508V12.512H382.107V9.956H383.331V7.508H386.409V9.956H388.425V12.512H386.409V16.544C386.409 16.844 386.481 17.06 386.625 17.192C386.769 17.324 387.009 17.39 387.345 17.39H388.443Z" fill="#EEEEEE"/>
<path d="M324.89 62.09C324.542 61.358 324.038 60.794 323.378 60.398C322.718 59.99 321.95 59.786 321.074 59.786C320.198 59.786 319.406 59.99 318.698 60.398C318.002 60.794 317.45 61.37 317.042 62.126C316.646 62.87 316.448 63.734 316.448 64.718C316.448 65.702 316.646 66.566 317.042 67.31C317.45 68.054 318.002 68.63 318.698 69.038C319.406 69.434 320.198 69.632 321.074 69.632C322.298 69.632 323.306 69.266 324.098 68.534C324.89 67.802 325.352 66.812 325.484 65.564H320.48V64.232H327.23V65.492C327.134 66.524 326.81 67.472 326.258 68.336C325.706 69.188 324.98 69.866 324.08 70.37C323.18 70.862 322.178 71.108 321.074 71.108C319.91 71.108 318.848 70.838 317.888 70.298C316.928 69.746 316.166 68.984 315.602 68.012C315.05 67.04 314.774 65.942 314.774 64.718C314.774 63.494 315.05 62.396 315.602 61.424C316.166 60.44 316.928 59.678 317.888 59.138C318.848 58.586 319.91 58.31 321.074 58.31C322.406 58.31 323.582 58.64 324.602 59.3C325.634 59.96 326.384 60.89 326.852 62.09H324.89ZM338.396 65.69C338.396 66.002 338.378 66.332 338.342 66.68H330.458C330.518 67.652 330.848 68.414 331.448 68.966C332.06 69.506 332.798 69.776 333.662 69.776C334.37 69.776 334.958 69.614 335.426 69.29C335.906 68.954 336.242 68.51 336.434 67.958H338.198C337.934 68.906 337.406 69.68 336.614 70.28C335.822 70.868 334.838 71.162 333.662 71.162C332.726 71.162 331.886 70.952 331.142 70.532C330.41 70.112 329.834 69.518 329.414 68.75C328.994 67.97 328.784 67.07 328.784 66.05C328.784 65.03 328.988 64.136 329.396 63.368C329.804 62.6 330.374 62.012 331.106 61.604C331.85 61.184 332.702 60.974 333.662 60.974C334.598 60.974 335.426 61.178 336.146 61.586C336.866 61.994 337.418 62.558 337.802 63.278C338.198 63.986 338.396 64.79 338.396 65.69ZM336.704 65.348C336.704 64.724 336.566 64.19 336.29 63.746C336.014 63.29 335.636 62.948 335.156 62.72C334.688 62.48 334.166 62.36 333.59 62.36C332.762 62.36 332.054 62.624 331.466 63.152C330.89 63.68 330.56 64.412 330.476 65.348H336.704ZM342.556 62.486V68.3C342.556 68.78 342.658 69.122 342.862 69.326C343.066 69.518 343.42 69.614 343.924 69.614H345.13V71H343.654C342.742 71 342.058 70.79 341.602 70.37C341.146 69.95 340.918 69.26 340.918 68.3V62.486H339.64V61.136H340.918V58.652H342.556V61.136H345.13V62.486H342.556ZM349.113 62.486V68.3C349.113 68.78 349.215 69.122 349.419 69.326C349.623 69.518 349.977 69.614 350.481 69.614H351.687V71H350.211C349.299 71 348.615 70.79 348.159 70.37C347.703 69.95 347.475 69.26 347.475 68.3V62.486H346.197V61.136H347.475V58.652H349.113V61.136H351.687V62.486H349.113ZM354.517 59.534C354.205 59.534 353.941 59.426 353.725 59.21C353.509 58.994 353.401 58.73 353.401 58.418C353.401 58.106 353.509 57.842 353.725 57.626C353.941 57.41 354.205 57.302 354.517 57.302C354.817 57.302 355.069 57.41 355.273 57.626C355.489 57.842 355.597 58.106 355.597 58.418C355.597 58.73 355.489 58.994 355.273 59.21C355.069 59.426 354.817 59.534 354.517 59.534ZM355.309 61.136V71H353.671V61.136H355.309ZM362.907 60.956C364.107 60.956 365.079 61.322 365.823 62.054C366.567 62.774 366.939 63.818 366.939 65.186V71H365.319V65.42C365.319 64.436 365.073 63.686 364.581 63.17C364.089 62.642 363.417 62.378 362.565 62.378C361.701 62.378 361.011 62.648 360.495 63.188C359.991 63.728 359.739 64.514 359.739 65.546V71H358.101V61.136H359.739V62.54C360.063 62.036 360.501 61.646 361.053 61.37C361.617 61.094 362.235 60.956 362.907 60.956ZM373.683 60.974C374.535 60.974 375.279 61.16 375.915 61.532C376.563 61.904 377.043 62.372 377.355 62.936V61.136H379.011V71.216C379.011 72.116 378.819 72.914 378.435 73.61C378.051 74.318 377.499 74.87 376.779 75.266C376.071 75.662 375.243 75.86 374.295 75.86C372.999 75.86 371.919 75.554 371.055 74.942C370.191 74.33 369.681 73.496 369.525 72.44H371.145C371.325 73.04 371.697 73.52 372.261 73.88C372.825 74.252 373.503 74.438 374.295 74.438C375.195 74.438 375.927 74.156 376.491 73.592C377.067 73.028 377.355 72.236 377.355 71.216V69.146C377.031 69.722 376.551 70.202 375.915 70.586C375.279 70.97 374.535 71.162 373.683 71.162C372.807 71.162 372.009 70.946 371.289 70.514C370.581 70.082 370.023 69.476 369.615 68.696C369.207 67.916 369.003 67.028 369.003 66.032C369.003 65.024 369.207 64.142 369.615 63.386C370.023 62.618 370.581 62.024 371.289 61.604C372.009 61.184 372.807 60.974 373.683 60.974ZM377.355 66.05C377.355 65.306 377.205 64.658 376.905 64.106C376.605 63.554 376.197 63.134 375.681 62.846C375.177 62.546 374.619 62.396 374.007 62.396C373.395 62.396 372.837 62.54 372.333 62.828C371.829 63.116 371.427 63.536 371.127 64.088C370.827 64.64 370.677 65.288 370.677 66.032C370.677 66.788 370.827 67.448 371.127 68.012C371.427 68.564 371.829 68.99 372.333 69.29C372.837 69.578 373.395 69.722 374.007 69.722C374.619 69.722 375.177 69.578 375.681 69.29C376.197 68.99 376.605 68.564 376.905 68.012C377.205 67.448 377.355 66.794 377.355 66.05ZM390.555 71.126C389.727 71.126 388.983 70.982 388.323 70.694C387.675 70.394 387.165 69.986 386.793 69.47C386.421 68.942 386.229 68.336 386.217 67.652H387.963C388.023 68.24 388.263 68.738 388.683 69.146C389.115 69.542 389.739 69.74 390.555 69.74C391.335 69.74 391.947 69.548 392.391 69.164C392.847 68.768 393.075 68.264 393.075 67.652C393.075 67.172 392.943 66.782 392.679 66.482C392.415 66.182 392.085 65.954 391.689 65.798C391.293 65.642 390.759 65.474 390.087 65.294C389.259 65.078 388.593 64.862 388.089 64.646C387.597 64.43 387.171 64.094 386.811 63.638C386.463 63.17 386.289 62.546 386.289 61.766C386.289 61.082 386.463 60.476 386.811 59.948C387.159 59.42 387.645 59.012 388.269 58.724C388.905 58.436 389.631 58.292 390.447 58.292C391.623 58.292 392.583 58.586 393.327 59.174C394.083 59.762 394.509 60.542 394.605 61.514H392.805C392.745 61.034 392.493 60.614 392.049 60.254C391.605 59.882 391.017 59.696 390.285 59.696C389.601 59.696 389.043 59.876 388.611 60.236C388.179 60.584 387.963 61.076 387.963 61.712C387.963 62.168 388.089 62.54 388.341 62.828C388.605 63.116 388.923 63.338 389.295 63.494C389.679 63.638 390.213 63.806 390.897 63.998C391.725 64.226 392.391 64.454 392.895 64.682C393.399 64.898 393.831 65.24 394.191 65.708C394.551 66.164 394.731 66.788 394.731 67.58C394.731 68.192 394.569 68.768 394.245 69.308C393.921 69.848 393.441 70.286 392.805 70.622C392.169 70.958 391.419 71.126 390.555 71.126ZM399.14 62.486V68.3C399.14 68.78 399.242 69.122 399.446 69.326C399.65 69.518 400.004 69.614 400.508 69.614H401.714V71H400.238C399.326 71 398.642 70.79 398.186 70.37C397.73 69.95 397.502 69.26 397.502 68.3V62.486H396.224V61.136H397.502V58.652H399.14V61.136H401.714V62.486H399.14ZM403.087 66.032C403.087 65.024 403.291 64.142 403.699 63.386C404.107 62.618 404.665 62.024 405.373 61.604C406.093 61.184 406.891 60.974 407.767 60.974C408.631 60.974 409.381 61.16 410.017 61.532C410.653 61.904 411.127 62.372 411.439 62.936V61.136H413.095V71H411.439V69.164C411.115 69.74 410.629 70.22 409.981 70.604C409.345 70.976 408.601 71.162 407.749 71.162C406.873 71.162 406.081 70.946 405.373 70.514C404.665 70.082 404.107 69.476 403.699 68.696C403.291 67.916 403.087 67.028 403.087 66.032ZM411.439 66.05C411.439 65.306 411.289 64.658 410.989 64.106C410.689 63.554 410.281 63.134 409.765 62.846C409.261 62.546 408.703 62.396 408.091 62.396C407.479 62.396 406.921 62.54 406.417 62.828C405.913 63.116 405.511 63.536 405.211 64.088C404.911 64.64 404.761 65.288 404.761 66.032C404.761 66.788 404.911 67.448 405.211 68.012C405.511 68.564 405.913 68.99 406.417 69.29C406.921 69.578 407.479 69.722 408.091 69.722C408.703 69.722 409.261 69.578 409.765 69.29C410.281 68.99 410.689 68.564 410.989 68.012C411.289 67.448 411.439 66.794 411.439 66.05ZM417.501 62.738C417.789 62.174 418.197 61.736 418.725 61.424C419.265 61.112 419.919 60.956 420.687 60.956V62.648H420.255C418.419 62.648 417.501 63.644 417.501 65.636V71H415.863V61.136H417.501V62.738ZM424.575 62.486V68.3C424.575 68.78 424.677 69.122 424.881 69.326C425.085 69.518 425.439 69.614 425.943 69.614H427.149V71H425.673C424.761 71 424.077 70.79 423.621 70.37C423.165 69.95 422.937 69.26 422.937 68.3V62.486H421.659V61.136H422.937V58.652H424.575V61.136H427.149V62.486H424.575ZM438.134 65.69C438.134 66.002 438.116 66.332 438.08 66.68H430.196C430.256 67.652 430.586 68.414 431.186 68.966C431.798 69.506 432.536 69.776 433.4 69.776C434.108 69.776 434.696 69.614 435.164 69.29C435.644 68.954 435.98 68.51 436.172 67.958H437.936C437.672 68.906 437.144 69.68 436.352 70.28C435.56 70.868 434.576 71.162 433.4 71.162C432.464 71.162 431.624 70.952 430.88 70.532C430.148 70.112 429.572 69.518 429.152 68.75C428.732 67.97 428.522 67.07 428.522 66.05C428.522 65.03 428.726 64.136 429.134 63.368C429.542 62.6 430.112 62.012 430.844 61.604C431.588 61.184 432.44 60.974 433.4 60.974C434.336 60.974 435.164 61.178 435.884 61.586C436.604 61.994 437.156 62.558 437.54 63.278C437.936 63.986 438.134 64.79 438.134 65.69ZM436.442 65.348C436.442 64.724 436.304 64.19 436.028 63.746C435.752 63.29 435.374 62.948 434.894 62.72C434.426 62.48 433.904 62.36 433.328 62.36C432.5 62.36 431.792 62.624 431.204 63.152C430.628 63.68 430.298 64.412 430.214 65.348H436.442ZM439.684 66.032C439.684 65.024 439.888 64.142 440.296 63.386C440.704 62.618 441.262 62.024 441.97 61.604C442.69 61.184 443.494 60.974 444.382 60.974C445.15 60.974 445.864 61.154 446.524 61.514C447.184 61.862 447.688 62.324 448.036 62.9V57.68H449.692V71H448.036V69.146C447.712 69.734 447.232 70.22 446.596 70.604C445.96 70.976 445.216 71.162 444.364 71.162C443.488 71.162 442.69 70.946 441.97 70.514C441.262 70.082 440.704 69.476 440.296 68.696C439.888 67.916 439.684 67.028 439.684 66.032ZM448.036 66.05C448.036 65.306 447.886 64.658 447.586 64.106C447.286 63.554 446.878 63.134 446.362 62.846C445.858 62.546 445.3 62.396 444.688 62.396C444.076 62.396 443.518 62.54 443.014 62.828C442.51 63.116 442.108 63.536 441.808 64.088C441.508 64.64 441.358 65.288 441.358 66.032C441.358 66.788 441.508 67.448 441.808 68.012C442.108 68.564 442.51 68.99 443.014 69.29C443.518 69.578 444.076 69.722 444.688 69.722C445.3 69.722 445.858 69.578 446.362 69.29C446.878 68.99 447.286 68.564 447.586 68.012C447.886 67.448 448.036 66.794 448.036 66.05Z" fill="#F9F9F9"/>
<path d="M323.774 113.126C323.774 114.17 323.414 115.04 322.694 115.736C321.986 116.42 320.9 116.762 319.436 116.762H317.024V122H315.386V109.454H319.436C320.852 109.454 321.926 109.796 322.658 110.48C323.402 111.164 323.774 112.046 323.774 113.126ZM319.436 115.412C320.348 115.412 321.02 115.214 321.452 114.818C321.884 114.422 322.1 113.858 322.1 113.126C322.1 111.578 321.212 110.804 319.436 110.804H317.024V115.412H319.436ZM327.448 113.738C327.736 113.174 328.144 112.736 328.672 112.424C329.212 112.112 329.866 111.956 330.634 111.956V113.648H330.202C328.366 113.648 327.448 114.644 327.448 116.636V122H325.81V112.136H327.448V113.738ZM333.371 110.534C333.059 110.534 332.795 110.426 332.579 110.21C332.363 109.994 332.255 109.73 332.255 109.418C332.255 109.106 332.363 108.842 332.579 108.626C332.795 108.41 333.059 108.302 333.371 108.302C333.671 108.302 333.923 108.41 334.127 108.626C334.343 108.842 334.451 109.106 334.451 109.418C334.451 109.73 334.343 109.994 334.127 110.21C333.923 110.426 333.671 110.534 333.371 110.534ZM334.163 112.136V122H332.525V112.136H334.163ZM336.342 117.05C336.342 116.03 336.546 115.142 336.954 114.386C337.362 113.618 337.926 113.024 338.646 112.604C339.378 112.184 340.212 111.974 341.148 111.974C342.36 111.974 343.356 112.268 344.136 112.856C344.928 113.444 345.45 114.26 345.702 115.304H343.938C343.77 114.704 343.44 114.23 342.948 113.882C342.468 113.534 341.868 113.36 341.148 113.36C340.212 113.36 339.456 113.684 338.88 114.332C338.304 114.968 338.016 115.874 338.016 117.05C338.016 118.238 338.304 119.156 338.88 119.804C339.456 120.452 340.212 120.776 341.148 120.776C341.868 120.776 342.468 120.608 342.948 120.272C343.428 119.936 343.758 119.456 343.938 118.832H345.702C345.438 119.84 344.91 120.65 344.118 121.262C343.326 121.862 342.336 122.162 341.148 122.162C340.212 122.162 339.378 121.952 338.646 121.532C337.926 121.112 337.362 120.518 336.954 119.75C336.546 118.982 336.342 118.082 336.342 117.05ZM348.734 110.534C348.422 110.534 348.158 110.426 347.942 110.21C347.726 109.994 347.618 109.73 347.618 109.418C347.618 109.106 347.726 108.842 347.942 108.626C348.158 108.41 348.422 108.302 348.734 108.302C349.034 108.302 349.286 108.41 349.49 108.626C349.706 108.842 349.814 109.106 349.814 109.418C349.814 109.73 349.706 109.994 349.49 110.21C349.286 110.426 349.034 110.534 348.734 110.534ZM349.526 112.136V122H347.888V112.136H349.526ZM357.124 111.956C358.324 111.956 359.296 112.322 360.04 113.054C360.784 113.774 361.156 114.818 361.156 116.186V122H359.536V116.42C359.536 115.436 359.29 114.686 358.798 114.17C358.306 113.642 357.634 113.378 356.782 113.378C355.918 113.378 355.228 113.648 354.712 114.188C354.208 114.728 353.956 115.514 353.956 116.546V122H352.318V112.136H353.956V113.54C354.28 113.036 354.718 112.646 355.27 112.37C355.834 112.094 356.452 111.956 357.124 111.956ZM367.899 111.974C368.751 111.974 369.495 112.16 370.131 112.532C370.779 112.904 371.259 113.372 371.571 113.936V112.136H373.227V122.216C373.227 123.116 373.035 123.914 372.651 124.61C372.267 125.318 371.715 125.87 370.995 126.266C370.287 126.662 369.459 126.86 368.511 126.86C367.215 126.86 366.135 126.554 365.271 125.942C364.407 125.33 363.897 124.496 363.741 123.44H365.361C365.541 124.04 365.913 124.52 366.477 124.88C367.041 125.252 367.719 125.438 368.511 125.438C369.411 125.438 370.143 125.156 370.707 124.592C371.283 124.028 371.571 123.236 371.571 122.216V120.146C371.247 120.722 370.767 121.202 370.131 121.586C369.495 121.97 368.751 122.162 367.899 122.162C367.023 122.162 366.225 121.946 365.505 121.514C364.797 121.082 364.239 120.476 363.831 119.696C363.423 118.916 363.219 118.028 363.219 117.032C363.219 116.024 363.423 115.142 363.831 114.386C364.239 113.618 364.797 113.024 365.505 112.604C366.225 112.184 367.023 111.974 367.899 111.974ZM371.571 117.05C371.571 116.306 371.421 115.658 371.121 115.106C370.821 114.554 370.413 114.134 369.897 113.846C369.393 113.546 368.835 113.396 368.223 113.396C367.611 113.396 367.053 113.54 366.549 113.828C366.045 114.116 365.643 114.536 365.343 115.088C365.043 115.64 364.893 116.288 364.893 117.032C364.893 117.788 365.043 118.448 365.343 119.012C365.643 119.564 366.045 119.99 366.549 120.29C367.053 120.578 367.611 120.722 368.223 120.722C368.835 120.722 369.393 120.578 369.897 120.29C370.413 119.99 370.821 119.564 371.121 119.012C371.421 118.448 371.571 117.794 371.571 117.05Z" fill="#F9F9F9"/>
<path d="M321.992 173L319.004 167.87H317.024V173H315.386V160.454H319.436C320.384 160.454 321.182 160.616 321.83 160.94C322.49 161.264 322.982 161.702 323.306 162.254C323.63 162.806 323.792 163.436 323.792 164.144C323.792 165.008 323.54 165.77 323.036 166.43C322.544 167.09 321.8 167.528 320.804 167.744L323.954 173H321.992ZM317.024 166.556H319.436C320.324 166.556 320.99 166.34 321.434 165.908C321.878 165.464 322.1 164.876 322.1 164.144C322.1 163.4 321.878 162.824 321.434 162.416C321.002 162.008 320.336 161.804 319.436 161.804H317.024V166.556ZM335.337 167.69C335.337 168.002 335.319 168.332 335.283 168.68H327.399C327.459 169.652 327.789 170.414 328.389 170.966C329.001 171.506 329.739 171.776 330.603 171.776C331.311 171.776 331.899 171.614 332.367 171.29C332.847 170.954 333.183 170.51 333.375 169.958H335.139C334.875 170.906 334.347 171.68 333.555 172.28C332.763 172.868 331.779 173.162 330.603 173.162C329.667 173.162 328.827 172.952 328.083 172.532C327.351 172.112 326.775 171.518 326.355 170.75C325.935 169.97 325.725 169.07 325.725 168.05C325.725 167.03 325.929 166.136 326.337 165.368C326.745 164.6 327.315 164.012 328.047 163.604C328.791 163.184 329.643 162.974 330.603 162.974C331.539 162.974 332.367 163.178 333.087 163.586C333.807 163.994 334.359 164.558 334.743 165.278C335.139 165.986 335.337 166.79 335.337 167.69ZM333.645 167.348C333.645 166.724 333.507 166.19 333.231 165.746C332.955 165.29 332.577 164.948 332.097 164.72C331.629 164.48 331.107 164.36 330.531 164.36C329.703 164.36 328.995 164.624 328.407 165.152C327.831 165.68 327.501 166.412 327.417 167.348H333.645ZM340.991 173.162C340.235 173.162 339.557 173.036 338.957 172.784C338.357 172.52 337.883 172.16 337.535 171.704C337.187 171.236 336.995 170.702 336.959 170.102H338.651C338.699 170.594 338.927 170.996 339.335 171.308C339.755 171.62 340.301 171.776 340.973 171.776C341.597 171.776 342.089 171.638 342.449 171.362C342.809 171.086 342.989 170.738 342.989 170.318C342.989 169.886 342.797 169.568 342.413 169.364C342.029 169.148 341.435 168.938 340.631 168.734C339.899 168.542 339.299 168.35 338.831 168.158C338.375 167.954 337.979 167.66 337.643 167.276C337.319 166.88 337.157 166.364 337.157 165.728C337.157 165.224 337.307 164.762 337.607 164.342C337.907 163.922 338.333 163.592 338.885 163.352C339.437 163.1 340.067 162.974 340.775 162.974C341.867 162.974 342.749 163.25 343.421 163.802C344.093 164.354 344.453 165.11 344.501 166.07H342.863C342.827 165.554 342.617 165.14 342.233 164.828C341.861 164.516 341.357 164.36 340.721 164.36C340.133 164.36 339.665 164.486 339.317 164.738C338.969 164.99 338.795 165.32 338.795 165.728C338.795 166.052 338.897 166.322 339.101 166.538C339.317 166.742 339.581 166.91 339.893 167.042C340.217 167.162 340.661 167.3 341.225 167.456C341.933 167.648 342.509 167.84 342.953 168.032C343.397 168.212 343.775 168.488 344.087 168.86C344.411 169.232 344.579 169.718 344.591 170.318C344.591 170.858 344.441 171.344 344.141 171.776C343.841 172.208 343.415 172.55 342.863 172.802C342.323 173.042 341.699 173.162 340.991 173.162ZM351.206 173.162C350.282 173.162 349.442 172.952 348.686 172.532C347.942 172.112 347.354 171.518 346.922 170.75C346.502 169.97 346.292 169.07 346.292 168.05C346.292 167.042 346.508 166.154 346.94 165.386C347.384 164.606 347.984 164.012 348.74 163.604C349.496 163.184 350.342 162.974 351.278 162.974C352.214 162.974 353.06 163.184 353.816 163.604C354.572 164.012 355.166 164.6 355.598 165.368C356.042 166.136 356.264 167.03 356.264 168.05C356.264 169.07 356.036 169.97 355.58 170.75C355.136 171.518 354.53 172.112 353.762 172.532C352.994 172.952 352.142 173.162 351.206 173.162ZM351.206 171.722C351.794 171.722 352.346 171.584 352.862 171.308C353.378 171.032 353.792 170.618 354.104 170.066C354.428 169.514 354.59 168.842 354.59 168.05C354.59 167.258 354.434 166.586 354.122 166.034C353.81 165.482 353.402 165.074 352.898 164.81C352.394 164.534 351.848 164.396 351.26 164.396C350.66 164.396 350.108 164.534 349.604 164.81C349.112 165.074 348.716 165.482 348.416 166.034C348.116 166.586 347.966 167.258 347.966 168.05C347.966 168.854 348.11 169.532 348.398 170.084C348.698 170.636 349.094 171.05 349.586 171.326C350.078 171.59 350.618 171.722 351.206 171.722ZM367.165 163.136V173H365.527V171.542C365.215 172.046 364.777 172.442 364.213 172.73C363.661 173.006 363.049 173.144 362.377 173.144C361.609 173.144 360.919 172.988 360.307 172.676C359.695 172.352 359.209 171.872 358.849 171.236C358.501 170.6 358.327 169.826 358.327 168.914V163.136H359.947V168.698C359.947 169.67 360.193 170.42 360.685 170.948C361.177 171.464 361.849 171.722 362.701 171.722C363.577 171.722 364.267 171.452 364.771 170.912C365.275 170.372 365.527 169.586 365.527 168.554V163.136H367.165ZM371.569 164.738C371.857 164.174 372.265 163.736 372.793 163.424C373.333 163.112 373.987 162.956 374.755 162.956V164.648H374.323C372.487 164.648 371.569 165.644 371.569 167.636V173H369.931V163.136H371.569V164.738ZM376.034 168.05C376.034 167.03 376.238 166.142 376.646 165.386C377.054 164.618 377.618 164.024 378.338 163.604C379.07 163.184 379.904 162.974 380.84 162.974C382.052 162.974 383.048 163.268 383.828 163.856C384.62 164.444 385.142 165.26 385.394 166.304H383.63C383.462 165.704 383.132 165.23 382.64 164.882C382.16 164.534 381.56 164.36 380.84 164.36C379.904 164.36 379.148 164.684 378.572 165.332C377.996 165.968 377.708 166.874 377.708 168.05C377.708 169.238 377.996 170.156 378.572 170.804C379.148 171.452 379.904 171.776 380.84 171.776C381.56 171.776 382.16 171.608 382.64 171.272C383.12 170.936 383.45 170.456 383.63 169.832H385.394C385.13 170.84 384.602 171.65 383.81 172.262C383.018 172.862 382.028 173.162 380.84 173.162C379.904 173.162 379.07 172.952 378.338 172.532C377.618 172.112 377.054 171.518 376.646 170.75C376.238 169.982 376.034 169.082 376.034 168.05ZM396.579 167.69C396.579 168.002 396.561 168.332 396.525 168.68H388.641C388.701 169.652 389.031 170.414 389.631 170.966C390.243 171.506 390.981 171.776 391.845 171.776C392.553 171.776 393.141 171.614 393.609 171.29C394.089 170.954 394.425 170.51 394.617 169.958H396.381C396.117 170.906 395.589 171.68 394.797 172.28C394.005 172.868 393.021 173.162 391.845 173.162C390.909 173.162 390.069 172.952 389.325 172.532C388.593 172.112 388.017 171.518 387.597 170.75C387.177 169.97 386.967 169.07 386.967 168.05C386.967 167.03 387.171 166.136 387.579 165.368C387.987 164.6 388.557 164.012 389.289 163.604C390.033 163.184 390.885 162.974 391.845 162.974C392.781 162.974 393.609 163.178 394.329 163.586C395.049 163.994 395.601 164.558 395.985 165.278C396.381 165.986 396.579 166.79 396.579 167.69ZM394.887 167.348C394.887 166.724 394.749 166.19 394.473 165.746C394.197 165.29 393.819 164.948 393.339 164.72C392.871 164.48 392.349 164.36 391.773 164.36C390.945 164.36 390.237 164.624 389.649 165.152C389.073 165.68 388.743 166.412 388.659 167.348H394.887ZM402.233 173.162C401.477 173.162 400.799 173.036 400.199 172.784C399.599 172.52 399.125 172.16 398.777 171.704C398.429 171.236 398.237 170.702 398.201 170.102H399.893C399.941 170.594 400.169 170.996 400.577 171.308C400.997 171.62 401.543 171.776 402.215 171.776C402.839 171.776 403.331 171.638 403.691 171.362C404.051 171.086 404.231 170.738 404.231 170.318C404.231 169.886 404.039 169.568 403.655 169.364C403.271 169.148 402.677 168.938 401.873 168.734C401.141 168.542 400.541 168.35 400.073 168.158C399.617 167.954 399.221 167.66 398.885 167.276C398.561 166.88 398.399 166.364 398.399 165.728C398.399 165.224 398.549 164.762 398.849 164.342C399.149 163.922 399.575 163.592 400.127 163.352C400.679 163.1 401.309 162.974 402.017 162.974C403.109 162.974 403.991 163.25 404.663 163.802C405.335 164.354 405.695 165.11 405.743 166.07H404.105C404.069 165.554 403.859 165.14 403.475 164.828C403.103 164.516 402.599 164.36 401.963 164.36C401.375 164.36 400.907 164.486 400.559 164.738C400.211 164.99 400.037 165.32 400.037 165.728C400.037 166.052 400.139 166.322 400.343 166.538C400.559 166.742 400.823 166.91 401.135 167.042C401.459 167.162 401.903 167.3 402.467 167.456C403.175 167.648 403.751 167.84 404.195 168.032C404.639 168.212 405.017 168.488 405.329 168.86C405.653 169.232 405.821 169.718 405.833 170.318C405.833 170.858 405.683 171.344 405.383 171.776C405.083 172.208 404.657 172.55 404.105 172.802C403.565 173.042 402.941 173.162 402.233 173.162Z" fill="#F9F9F9"/>
</svg>
