<svg width="61" height="66" viewBox="0 0 61 66" fill="none" xmlns="http://www.w3.org/2000/svg">
<path d="M30.5 33C33.5334 33 36.4426 31.6962 38.5875 29.3754C40.7325 27.0547 41.9375 23.9071 41.9375 20.625C41.9375 17.3429 40.7325 14.1953 38.5875 11.8746C36.4426 9.55379 33.5334 8.25 30.5 8.25C27.4666 8.25 24.5574 9.55379 22.4125 11.8746C20.2675 14.1953 19.0625 17.3429 19.0625 20.625C19.0625 23.9071 20.2675 27.0547 22.4125 29.3754C24.5574 31.6962 27.4666 33 30.5 33ZM38.125 20.625C38.125 22.813 37.3217 24.9115 35.8917 26.4586C34.4617 28.0058 32.5223 28.875 30.5 28.875C28.4777 28.875 26.5383 28.0058 25.1083 26.4586C23.6783 24.9115 22.875 22.813 22.875 20.625C22.875 18.437 23.6783 16.3385 25.1083 14.7914C26.5383 13.2442 28.4777 12.375 30.5 12.375C32.5223 12.375 34.4617 13.2442 35.8917 14.7914C37.3217 16.3385 38.125 18.437 38.125 20.625ZM53.375 53.625C53.375 57.75 49.5625 57.75 49.5625 57.75H11.4375C11.4375 57.75 7.625 57.75 7.625 53.625C7.625 49.5 11.4375 37.125 30.5 37.125C49.5625 37.125 53.375 49.5 53.375 53.625ZM49.5625 53.6085C49.5587 52.5938 48.9754 49.5412 46.3905 46.7445C43.9048 44.055 39.2268 41.25 30.5 41.25C21.7694 41.25 17.0953 44.055 14.6095 46.7445C12.0246 49.5412 11.4451 52.5938 11.4375 53.6085H49.5625Z" fill="#F9F9F9"/>
</svg>
