<svg width="213" height="34" viewBox="0 0 213 34" fill="none" xmlns="http://www.w3.org/2000/svg">
<path d="M0.512 2.512C1.016 2.536 1.676 2.56 2.492 2.584C3.308 2.608 4.112 2.62 4.904 2.62C6.032 2.62 7.112 2.608 8.144 2.584C9.176 2.56 9.908 2.548 10.34 2.548C13.244 2.548 15.416 3.208 16.856 4.528C18.296 5.848 19.016 7.552 19.016 9.64C19.016 10.504 18.872 11.416 18.584 12.376C18.296 13.312 17.792 14.188 17.072 15.004C16.376 15.796 15.416 16.444 14.192 16.948C12.968 17.452 11.42 17.704 9.548 17.704H6.092V16.984H9.188C10.892 16.984 12.188 16.66 13.076 16.012C13.988 15.364 14.6 14.512 14.912 13.456C15.248 12.4 15.416 11.26 15.416 10.036C15.416 7.756 14.96 6.052 14.048 4.924C13.16 3.796 11.624 3.232 9.44 3.232C8.336 3.232 7.616 3.436 7.28 3.844C6.944 4.252 6.776 5.08 6.776 6.328V24.184C6.776 25.048 6.86 25.696 7.028 26.128C7.22 26.56 7.58 26.848 8.108 26.992C8.636 27.136 9.404 27.232 10.412 27.28V28C9.788 27.952 8.996 27.928 8.036 27.928C7.076 27.904 6.104 27.892 5.12 27.892C4.184 27.892 3.308 27.904 2.492 27.928C1.676 27.928 1.016 27.952 0.512 28V27.28C1.328 27.232 1.94 27.136 2.348 26.992C2.78 26.848 3.068 26.56 3.212 26.128C3.356 25.696 3.428 25.048 3.428 24.184V6.328C3.428 5.44 3.356 4.792 3.212 4.384C3.068 3.952 2.78 3.664 2.348 3.52C1.94 3.352 1.328 3.256 0.512 3.232V2.512ZM32.2986 8.956C32.9466 8.956 33.5106 9.088 33.9906 9.352C34.4946 9.616 34.8786 9.964 35.1426 10.396C35.4306 10.804 35.5746 11.272 35.5746 11.8C35.5746 12.4 35.3826 12.928 34.9986 13.384C34.6386 13.84 34.1466 14.068 33.5226 14.068C33.0186 14.068 32.5746 13.912 32.1906 13.6C31.8066 13.264 31.6146 12.796 31.6146 12.196C31.6146 11.74 31.7346 11.356 31.9746 11.044C32.2386 10.708 32.5266 10.444 32.8386 10.252C32.6706 10.012 32.4186 9.892 32.0826 9.892C31.3386 9.892 30.6546 10.12 30.0306 10.576C29.4066 11.008 28.8786 11.572 28.4466 12.268C28.0146 12.964 27.6786 13.708 27.4386 14.5C27.1986 15.268 27.0786 15.988 27.0786 16.66V24.292C27.0786 25.468 27.4146 26.26 28.0866 26.668C28.7826 27.052 29.7186 27.244 30.8946 27.244V28C30.3426 27.976 29.5626 27.952 28.5546 27.928C27.5466 27.88 26.4786 27.856 25.3506 27.856C24.5346 27.856 23.7186 27.88 22.9026 27.928C22.1106 27.952 21.5106 27.976 21.1026 28V27.244C22.0866 27.244 22.7826 27.064 23.1906 26.704C23.6226 26.344 23.8386 25.66 23.8386 24.652V13.384C23.8386 12.304 23.6466 11.512 23.2626 11.008C22.8786 10.48 22.1586 10.216 21.1026 10.216V9.46C21.8706 9.532 22.6146 9.568 23.3346 9.568C24.0306 9.568 24.6906 9.532 25.3146 9.46C25.9626 9.364 26.5506 9.232 27.0786 9.064V13.564C27.3426 12.868 27.7146 12.172 28.1946 11.476C28.6986 10.756 29.2986 10.156 29.9946 9.676C30.6906 9.196 31.4586 8.956 32.2986 8.956ZM41.2378 0.459998C41.8618 0.459998 42.4018 0.687998 42.8578 1.144C43.3138 1.6 43.5418 2.14 43.5418 2.764C43.5418 3.388 43.3138 3.928 42.8578 4.384C42.4018 4.84 41.8618 5.068 41.2378 5.068C40.6138 5.068 40.0738 4.84 39.6178 4.384C39.1618 3.928 38.9338 3.388 38.9338 2.764C38.9338 2.14 39.1618 1.6 39.6178 1.144C40.0738 0.687998 40.6138 0.459998 41.2378 0.459998ZM43.1098 9.064V24.652C43.1098 25.66 43.3138 26.344 43.7218 26.704C44.1538 27.064 44.8618 27.244 45.8458 27.244V28C45.4378 27.976 44.8138 27.952 43.9738 27.928C43.1578 27.88 42.3298 27.856 41.4898 27.856C40.6738 27.856 39.8458 27.88 39.0058 27.928C38.1658 27.952 37.5418 27.976 37.1338 28V27.244C38.1178 27.244 38.8138 27.064 39.2218 26.704C39.6538 26.344 39.8698 25.66 39.8698 24.652V13.384C39.8698 12.304 39.6778 11.512 39.2938 11.008C38.9098 10.48 38.1898 10.216 37.1338 10.216V9.46C37.9018 9.532 38.6458 9.568 39.3658 9.568C40.0618 9.568 40.7218 9.532 41.3458 9.46C41.9938 9.364 42.5818 9.232 43.1098 9.064ZM56.6807 8.956C57.4487 8.956 58.1927 9.052 58.9127 9.244C59.6327 9.436 60.2807 9.724 60.8567 10.108C61.4087 10.468 61.8287 10.888 62.1167 11.368C62.4047 11.824 62.5487 12.328 62.5487 12.88C62.5487 13.528 62.3687 14.032 62.0087 14.392C61.6487 14.728 61.1927 14.896 60.6407 14.896C60.1127 14.896 59.6447 14.74 59.2367 14.428C58.8527 14.116 58.6607 13.672 58.6607 13.096C58.6607 12.544 58.8047 12.1 59.0927 11.764C59.4047 11.428 59.7647 11.212 60.1727 11.116C59.9327 10.684 59.5007 10.324 58.8767 10.036C58.2767 9.748 57.6287 9.604 56.9327 9.604C56.3327 9.604 55.7327 9.748 55.1327 10.036C54.5327 10.324 53.9807 10.804 53.4767 11.476C52.9727 12.124 52.5647 13.024 52.2527 14.176C51.9407 15.304 51.7847 16.72 51.7847 18.424C51.7847 20.536 52.0247 22.216 52.5047 23.464C52.9847 24.712 53.6087 25.612 54.3767 26.164C55.1687 26.692 56.0327 26.956 56.9687 26.956C57.5927 26.956 58.2287 26.836 58.8767 26.596C59.5247 26.356 60.1367 25.972 60.7127 25.444C61.2887 24.892 61.7807 24.16 62.1887 23.248L62.8727 23.5C62.6327 24.268 62.2367 25.048 61.6847 25.84C61.1327 26.608 60.4127 27.244 59.5247 27.748C58.6367 28.252 57.5447 28.504 56.2487 28.504C54.7607 28.504 53.4167 28.12 52.2167 27.352C51.0167 26.584 50.0567 25.492 49.3367 24.076C48.6407 22.636 48.2927 20.932 48.2927 18.964C48.2927 16.996 48.6407 15.268 49.3367 13.78C50.0567 12.268 51.0527 11.092 52.3247 10.252C53.5967 9.388 55.0487 8.956 56.6807 8.956ZM73.9365 8.956C76.0485 8.956 77.6925 9.604 78.8685 10.9C80.0685 12.172 80.6685 14.164 80.6685 16.876H67.9605L67.9245 16.192H77.2125C77.2605 15.016 77.1645 13.936 76.9245 12.952C76.6845 11.944 76.3005 11.14 75.7725 10.54C75.2685 9.94 74.6085 9.64 73.7925 9.64C72.6885 9.64 71.7045 10.192 70.8405 11.296C70.0005 12.4 69.4965 14.152 69.3285 16.552L69.4365 16.696C69.3885 17.056 69.3525 17.452 69.3285 17.884C69.3045 18.316 69.2925 18.748 69.2925 19.18C69.2925 20.812 69.5565 22.216 70.0845 23.392C70.6125 24.568 71.2965 25.468 72.1365 26.092C73.0005 26.692 73.8885 26.992 74.8005 26.992C75.5205 26.992 76.2045 26.884 76.8525 26.668C77.5005 26.428 78.1005 26.044 78.6525 25.516C79.2045 24.988 79.6845 24.28 80.0925 23.392L80.8125 23.68C80.5485 24.472 80.1165 25.24 79.5165 25.984C78.9165 26.728 78.1605 27.34 77.2485 27.82C76.3365 28.276 75.2805 28.504 74.0805 28.504C72.3525 28.504 70.8645 28.108 69.6165 27.316C68.3925 26.524 67.4445 25.432 66.7725 24.04C66.1245 22.624 65.8005 21.004 65.8005 19.18C65.8005 17.068 66.1365 15.256 66.8085 13.744C67.4805 12.208 68.4285 11.032 69.6525 10.216C70.8765 9.376 72.3045 8.956 73.9365 8.956ZM96.1083 8.992C96.7323 8.992 97.2723 9.22 97.7283 9.676C98.1843 10.132 98.4123 10.672 98.4123 11.296C98.4123 11.92 98.1843 12.46 97.7283 12.916C97.2723 13.372 96.7323 13.6 96.1083 13.6C95.4843 13.6 94.9443 13.372 94.4883 12.916C94.0323 12.46 93.8043 11.92 93.8043 11.296C93.8043 10.672 94.0323 10.132 94.4883 9.676C94.9443 9.22 95.4843 8.992 96.1083 8.992ZM96.1083 23.896C96.7323 23.896 97.2723 24.124 97.7283 24.58C98.1843 25.036 98.4123 25.576 98.4123 26.2C98.4123 26.824 98.1843 27.364 97.7283 27.82C97.2723 28.276 96.7323 28.504 96.1083 28.504C95.4843 28.504 94.9443 28.276 94.4883 27.82C94.0323 27.364 93.8043 26.824 93.8043 26.2C93.8043 25.576 94.0323 25.036 94.4883 24.58C94.9443 24.124 95.4843 23.896 96.1083 23.896ZM111.324 2.512L111.972 2.944C115.884 2.944 118.788 3.484 120.684 4.564C122.58 5.62 123.528 7.036 123.528 8.812C123.528 10.42 122.856 11.836 121.512 13.06C120.168 14.26 118.296 15.124 115.896 15.652C117.792 15.772 119.316 16.216 120.468 16.984C121.644 17.752 122.376 18.94 122.664 20.548L123.348 24.22C123.516 25.108 123.744 25.828 124.032 26.38C124.32 26.908 124.764 27.172 125.364 27.172C125.844 27.172 126.204 26.884 126.444 26.308C126.684 25.708 126.792 24.82 126.768 23.644H127.452C127.476 25.276 127.248 26.5 126.768 27.316C126.288 28.108 125.376 28.504 124.032 28.504C122.856 28.504 121.92 28.156 121.224 27.46C120.552 26.74 120.096 25.756 119.856 24.508L119.172 21.016C118.956 19.84 118.704 18.904 118.416 18.208C118.128 17.488 117.696 16.948 117.12 16.588C116.544 16.228 115.692 16 114.564 15.904C114.204 16.024 113.892 16.132 113.628 16.228C113.364 16.3 113.1 16.336 112.836 16.336C112.26 16.336 111.972 16.144 111.972 15.76C111.972 15.568 112.056 15.424 112.224 15.328C112.392 15.232 112.572 15.184 112.764 15.184C113.076 15.184 113.376 15.22 113.664 15.292C113.952 15.34 114.288 15.412 114.672 15.508C116.64 15.028 118.008 14.212 118.776 13.06C119.544 11.884 119.928 10.6 119.928 9.208C119.928 7.312 119.364 5.848 118.236 4.816C117.108 3.76 115.2 3.232 112.512 3.232H111.324V2.512ZM127.92 6.112V6.832H111.324V6.112H127.92ZM127.848 2.512V3.232H111.324V2.512H127.848ZM147.389 8.956C149.045 8.956 150.353 9.352 151.313 10.144C152.297 10.912 152.789 12.028 152.789 13.492C152.789 14.452 152.561 15.364 152.105 16.228C151.673 17.068 151.097 17.884 150.377 18.676C149.657 19.444 148.889 20.2 148.073 20.944C147.257 21.664 146.465 22.384 145.697 23.104C144.929 23.8 144.281 24.508 143.753 25.228H151.061C152.045 25.228 152.669 25.096 152.933 24.832C153.197 24.544 153.377 24.064 153.473 23.392H154.085C154.085 24.664 154.097 25.648 154.121 26.344C154.145 27.016 154.181 27.628 154.229 28.18C154.013 28.132 153.617 28.096 153.041 28.072C152.465 28.048 151.805 28.024 151.061 28C150.317 28 149.585 28 148.865 28H140.441V27.388C141.161 26.596 142.025 25.756 143.033 24.868C144.041 23.956 145.013 22.972 145.949 21.916C146.909 20.836 147.701 19.672 148.325 18.424C148.973 17.152 149.297 15.772 149.297 14.284C149.297 12.916 148.973 11.932 148.325 11.332C147.701 10.708 146.825 10.396 145.697 10.396C144.737 10.396 143.849 10.684 143.033 11.26C142.217 11.812 141.497 12.652 140.873 13.78L140.297 13.456C140.657 12.688 141.137 11.968 141.737 11.296C142.361 10.6 143.129 10.036 144.041 9.604C144.977 9.172 146.093 8.956 147.389 8.956ZM167.856 7.66C167.856 9.028 167.868 10.096 167.892 10.864C167.916 11.632 167.952 12.316 168 12.916C167.808 12.868 167.436 12.832 166.884 12.808C166.356 12.784 165.744 12.772 165.048 12.772C164.352 12.748 163.668 12.736 162.996 12.736H159.18L158.748 19.684C159.276 19.42 159.864 19.18 160.512 18.964C161.16 18.724 161.976 18.604 162.96 18.604C164.424 18.604 165.624 18.844 166.56 19.324C167.496 19.804 168.192 20.464 168.648 21.304C169.104 22.144 169.332 23.092 169.332 24.148C169.332 25.54 168.984 26.8 168.288 27.928C167.592 29.056 166.656 30.016 165.48 30.808C164.328 31.624 163.056 32.248 161.664 32.68C160.272 33.112 158.868 33.328 157.452 33.328V32.68C158.508 32.68 159.54 32.5 160.548 32.14C161.556 31.804 162.456 31.288 163.248 30.592C164.064 29.92 164.712 29.08 165.192 28.072C165.672 27.064 165.912 25.876 165.912 24.508C165.912 22.996 165.516 21.82 164.724 20.98C163.956 20.116 162.84 19.684 161.376 19.684C160.752 19.684 160.224 19.744 159.792 19.864C159.384 19.96 158.928 20.104 158.424 20.296L158.064 20.08L158.748 9.352C159.012 9.4 159.312 9.436 159.648 9.46C160.008 9.484 160.356 9.496 160.692 9.496H164.76C165.744 9.496 166.368 9.364 166.632 9.1C166.896 8.812 167.076 8.332 167.172 7.66H167.856ZM181.753 8.956C183.457 8.956 184.957 9.352 186.253 10.144C187.573 10.912 188.605 12.004 189.349 13.42C190.093 14.836 190.465 16.504 190.465 18.424C190.465 20.344 190.081 22.072 189.313 23.608C188.545 25.12 187.477 26.32 186.109 27.208C184.765 28.072 183.181 28.504 181.357 28.504C179.701 28.504 178.213 28.12 176.893 27.352C175.573 26.56 174.529 25.456 173.761 24.04C173.017 22.6 172.645 20.92 172.645 19C172.645 17.104 173.017 15.4 173.761 13.888C174.529 12.376 175.597 11.176 176.965 10.288C178.333 9.4 179.929 8.956 181.753 8.956ZM181.429 9.604C179.893 9.604 178.621 10.42 177.613 12.052C176.629 13.684 176.137 15.964 176.137 18.892C176.137 21.052 176.389 22.792 176.893 24.112C177.397 25.408 178.069 26.356 178.909 26.956C179.773 27.556 180.697 27.856 181.681 27.856C183.241 27.856 184.513 27.04 185.497 25.408C186.481 23.752 186.973 21.46 186.973 18.532C186.973 16.372 186.721 14.644 186.217 13.348C185.713 12.028 185.041 11.08 184.201 10.504C183.361 9.904 182.437 9.604 181.429 9.604ZM203.339 8.956C205.043 8.956 206.543 9.352 207.839 10.144C209.159 10.912 210.191 12.004 210.935 13.42C211.679 14.836 212.051 16.504 212.051 18.424C212.051 20.344 211.667 22.072 210.899 23.608C210.131 25.12 209.063 26.32 207.695 27.208C206.351 28.072 204.767 28.504 202.943 28.504C201.287 28.504 199.799 28.12 198.479 27.352C197.159 26.56 196.115 25.456 195.347 24.04C194.603 22.6 194.231 20.92 194.231 19C194.231 17.104 194.603 15.4 195.347 13.888C196.115 12.376 197.183 11.176 198.551 10.288C199.919 9.4 201.515 8.956 203.339 8.956ZM203.015 9.604C201.479 9.604 200.207 10.42 199.199 12.052C198.215 13.684 197.723 15.964 197.723 18.892C197.723 21.052 197.975 22.792 198.479 24.112C198.983 25.408 199.655 26.356 200.495 26.956C201.359 27.556 202.283 27.856 203.267 27.856C204.827 27.856 206.099 27.04 207.083 25.408C208.067 23.752 208.559 21.46 208.559 18.532C208.559 16.372 208.307 14.644 207.803 13.348C207.299 12.028 206.627 11.08 205.787 10.504C204.947 9.904 204.023 9.604 203.015 9.604Z" fill="white"/>
</svg>
