<svg width="256" height="216" viewBox="0 0 256 216" fill="none" xmlns="http://www.w3.org/2000/svg">
<path d="M15.584 23.48C16.8853 23.7573 17.9307 24.408 18.72 25.432C19.5093 26.4347 19.904 27.5867 19.904 28.888C19.904 30.7653 19.2427 32.2587 17.92 33.368C16.6187 34.456 14.7947 35 12.448 35H1.984V12.536H12.096C14.3787 12.536 16.16 13.0587 17.44 14.104C18.7413 15.1493 19.392 16.568 19.392 18.36C19.392 19.6827 19.04 20.7813 18.336 21.656C17.6533 22.5307 16.736 23.1387 15.584 23.48ZM7.456 21.624H11.04C11.936 21.624 12.6187 21.432 13.088 21.048C13.5787 20.6427 13.824 20.056 13.824 19.288C13.824 18.52 13.5787 17.9333 13.088 17.528C12.6187 17.1227 11.936 16.92 11.04 16.92H7.456V21.624ZM11.488 30.584C12.4053 30.584 13.1093 30.3813 13.6 29.976C14.112 29.5493 14.368 28.9413 14.368 28.152C14.368 27.3627 14.1013 26.744 13.568 26.296C13.056 25.848 12.3413 25.624 11.424 25.624H7.456V30.584H11.488ZM39.9097 25.784C39.9097 26.296 39.8778 26.8293 39.8138 27.384H27.4298C27.5151 28.4933 27.8671 29.3467 28.4858 29.944C29.1258 30.52 29.9044 30.808 30.8218 30.808C32.1871 30.808 33.1364 30.232 33.6698 29.08H39.4938C39.1951 30.2533 38.6511 31.3093 37.8618 32.248C37.0938 33.1867 36.1231 33.9227 34.9498 34.456C33.7764 34.9893 32.4644 35.256 31.0138 35.256C29.2644 35.256 27.7071 34.8827 26.3418 34.136C24.9764 33.3893 23.9098 32.3227 23.1418 30.936C22.3738 29.5493 21.9898 27.928 21.9898 26.072C21.9898 24.216 22.3631 22.5947 23.1098 21.208C23.8778 19.8213 24.9444 18.7547 26.3098 18.008C27.6751 17.2613 29.2431 16.888 31.0138 16.888C32.7418 16.888 34.2778 17.2507 35.6218 17.976C36.9658 18.7013 38.0111 19.736 38.7578 21.08C39.5258 22.424 39.9097 23.992 39.9097 25.784ZM34.3098 24.344C34.3098 23.4053 33.9898 22.6587 33.3498 22.104C32.7098 21.5493 31.9098 21.272 30.9498 21.272C30.0324 21.272 29.2538 21.5387 28.6138 22.072C27.9951 22.6053 27.6111 23.3627 27.4618 24.344H34.3098ZM50.0605 35.256C48.5032 35.256 47.1165 34.9893 45.9005 34.456C44.6845 33.9227 43.7245 33.1973 43.0205 32.28C42.3165 31.3413 41.9218 30.296 41.8365 29.144H47.2445C47.3085 29.7627 47.5965 30.264 48.1085 30.648C48.6205 31.032 49.2498 31.224 49.9965 31.224C50.6792 31.224 51.2018 31.096 51.5645 30.84C51.9485 30.5627 52.1405 30.2107 52.1405 29.784C52.1405 29.272 51.8738 28.8987 51.3405 28.664C50.8072 28.408 49.9432 28.1307 48.7485 27.832C47.4685 27.5333 46.4018 27.224 45.5485 26.904C44.6952 26.5627 43.9592 26.04 43.3405 25.336C42.7218 24.6107 42.4125 23.64 42.4125 22.424C42.4125 21.4 42.6898 20.472 43.2445 19.64C43.8205 18.7867 44.6525 18.1147 45.7405 17.624C46.8498 17.1333 48.1618 16.888 49.6765 16.888C51.9165 16.888 53.6765 17.4427 54.9565 18.552C56.2578 19.6613 57.0045 21.1333 57.1965 22.968H52.1405C52.0552 22.3493 51.7778 21.8587 51.3085 21.496C50.8605 21.1333 50.2632 20.952 49.5165 20.952C48.8765 20.952 48.3858 21.08 48.0445 21.336C47.7032 21.5707 47.5325 21.9013 47.5325 22.328C47.5325 22.84 47.7992 23.224 48.3325 23.48C48.8872 23.736 49.7405 23.992 50.8925 24.248C52.2152 24.5893 53.2925 24.9307 54.1245 25.272C54.9565 25.592 55.6818 26.1253 56.3005 26.872C56.9405 27.5973 57.2712 28.5787 57.2925 29.816C57.2925 30.8613 56.9938 31.8 56.3965 32.632C55.8205 33.4427 54.9778 34.0827 53.8685 34.552C52.7805 35.0213 51.5112 35.256 50.0605 35.256ZM70.5923 30.36V35H67.8083C65.8243 35 64.2776 34.52 63.1683 33.56C62.0589 32.5787 61.5043 30.9893 61.5043 28.792V21.688H59.3283V17.144H61.5043V12.792H66.9763V17.144H70.5603V21.688H66.9763V28.856C66.9763 29.3893 67.1043 29.7733 67.3603 30.008C67.6163 30.2427 68.0429 30.36 68.6403 30.36H70.5923ZM88.5495 35.224C86.9068 35.224 85.4348 34.9573 84.1335 34.424C82.8322 33.8907 81.7868 33.1013 80.9975 32.056C80.2295 31.0107 79.8242 29.752 79.7815 28.28H85.6055C85.6908 29.112 85.9788 29.752 86.4695 30.2C86.9602 30.6267 87.6002 30.84 88.3895 30.84C89.2002 30.84 89.8402 30.6587 90.3095 30.296C90.7788 29.912 91.0135 29.3893 91.0135 28.728C91.0135 28.1733 90.8215 27.7147 90.4375 27.352C90.0748 26.9893 89.6162 26.6907 89.0615 26.456C88.5282 26.2213 87.7602 25.9547 86.7575 25.656C85.3068 25.208 84.1228 24.76 83.2055 24.312C82.2882 23.864 81.4988 23.2027 80.8375 22.328C80.1762 21.4533 79.8455 20.312 79.8455 18.904C79.8455 16.8133 80.6028 15.1813 82.1175 14.008C83.6322 12.8133 85.6055 12.216 88.0375 12.216C90.5122 12.216 92.5068 12.8133 94.0215 14.008C95.5362 15.1813 96.3468 16.824 96.4535 18.936H90.5335C90.4908 18.2107 90.2242 17.6453 89.7335 17.24C89.2428 16.8133 88.6135 16.6 87.8455 16.6C87.1842 16.6 86.6508 16.7813 86.2455 17.144C85.8402 17.4853 85.6375 17.9867 85.6375 18.648C85.6375 19.3733 85.9788 19.9387 86.6615 20.344C87.3442 20.7493 88.4108 21.1867 89.8615 21.656C91.3122 22.1467 92.4855 22.616 93.3815 23.064C94.2988 23.512 95.0882 24.1627 95.7495 25.016C96.4108 25.8693 96.7415 26.968 96.7415 28.312C96.7415 29.592 96.4108 30.7547 95.7495 31.8C95.1095 32.8453 94.1708 33.6773 92.9335 34.296C91.6962 34.9147 90.2348 35.224 88.5495 35.224ZM116.941 25.784C116.941 26.296 116.909 26.8293 116.845 27.384H104.461C104.546 28.4933 104.898 29.3467 105.517 29.944C106.157 30.52 106.936 30.808 107.853 30.808C109.218 30.808 110.168 30.232 110.701 29.08H116.525C116.226 30.2533 115.682 31.3093 114.893 32.248C114.125 33.1867 113.154 33.9227 111.981 34.456C110.808 34.9893 109.496 35.256 108.045 35.256C106.296 35.256 104.738 34.8827 103.373 34.136C102.008 33.3893 100.941 32.3227 100.173 30.936C99.405 29.5493 99.021 27.928 99.021 26.072C99.021 24.216 99.3943 22.5947 100.141 21.208C100.909 19.8213 101.976 18.7547 103.341 18.008C104.706 17.2613 106.274 16.888 108.045 16.888C109.773 16.888 111.309 17.2507 112.653 17.976C113.997 18.7013 115.042 19.736 115.789 21.08C116.557 22.424 116.941 23.992 116.941 25.784ZM111.341 24.344C111.341 23.4053 111.021 22.6587 110.381 22.104C109.741 21.5493 108.941 21.272 107.981 21.272C107.064 21.272 106.285 21.5387 105.645 22.072C105.026 22.6053 104.642 23.3627 104.493 24.344H111.341ZM125.3 11.32V35H119.828V11.32H125.3ZM134.737 11.32V35H129.265V11.32H134.737ZM141.455 15.288C140.495 15.288 139.705 15.0107 139.087 14.456C138.489 13.88 138.191 13.176 138.191 12.344C138.191 11.4907 138.489 10.7867 139.087 10.232C139.705 9.656 140.495 9.368 141.455 9.368C142.393 9.368 143.161 9.656 143.759 10.232C144.377 10.7867 144.687 11.4907 144.687 12.344C144.687 13.176 144.377 13.88 143.759 14.456C143.161 15.0107 142.393 15.288 141.455 15.288ZM144.175 17.144V35H138.703V17.144H144.175ZM159.02 16.952C161.111 16.952 162.775 17.6347 164.012 19C165.271 20.344 165.9 22.2 165.9 24.568V35H160.46V25.304C160.46 24.1093 160.151 23.1813 159.532 22.52C158.914 21.8587 158.082 21.528 157.036 21.528C155.991 21.528 155.159 21.8587 154.54 22.52C153.922 23.1813 153.612 24.1093 153.612 25.304V35H148.14V17.144H153.612V19.512C154.167 18.7227 154.914 18.104 155.852 17.656C156.791 17.1867 157.847 16.952 159.02 16.952ZM176.487 16.888C177.745 16.888 178.844 17.144 179.783 17.656C180.743 18.168 181.479 18.84 181.991 19.672V17.144H187.463V34.968C187.463 36.6107 187.132 38.0933 186.471 39.416C185.831 40.76 184.839 41.8267 183.495 42.616C182.172 43.4053 180.519 43.8 178.535 43.8C175.889 43.8 173.745 43.1707 172.103 41.912C170.46 40.6747 169.521 38.9893 169.287 36.856H174.695C174.865 37.5387 175.271 38.072 175.911 38.456C176.551 38.8613 177.34 39.064 178.279 39.064C179.409 39.064 180.305 38.7333 180.967 38.072C181.649 37.432 181.991 36.3973 181.991 34.968V32.44C181.457 33.272 180.721 33.9547 179.783 34.488C178.844 35 177.745 35.256 176.487 35.256C175.015 35.256 173.681 34.8827 172.487 34.136C171.292 33.368 170.343 32.2907 169.639 30.904C168.956 29.496 168.615 27.8747 168.615 26.04C168.615 24.2053 168.956 22.5947 169.639 21.208C170.343 19.8213 171.292 18.7547 172.487 18.008C173.681 17.2613 175.015 16.888 176.487 16.888ZM181.991 26.072C181.991 24.7067 181.607 23.6293 180.839 22.84C180.092 22.0507 179.175 21.656 178.087 21.656C176.999 21.656 176.071 22.0507 175.303 22.84C174.556 23.608 174.183 24.6747 174.183 26.04C174.183 27.4053 174.556 28.4933 175.303 29.304C176.071 30.0933 176.999 30.488 178.087 30.488C179.175 30.488 180.092 30.0933 180.839 29.304C181.607 28.5147 181.991 27.4373 181.991 26.072ZM7.456 60.536V83H1.984V60.536H7.456ZM21.3735 78.36V83H18.5895C16.6055 83 15.0588 82.52 13.9495 81.56C12.8402 80.5787 12.2855 78.9893 12.2855 76.792V69.688H10.1095V65.144H12.2855V60.792H17.7575V65.144H21.3415V69.688H17.7575V76.856C17.7575 77.3893 17.8855 77.7733 18.1415 78.008C18.3975 78.2427 18.8242 78.36 19.4215 78.36H21.3735ZM41.2535 73.784C41.2535 74.296 41.2215 74.8293 41.1575 75.384H28.7735C28.8588 76.4933 29.2108 77.3467 29.8295 77.944C30.4695 78.52 31.2482 78.808 32.1655 78.808C33.5308 78.808 34.4802 78.232 35.0135 77.08H40.8375C40.5388 78.2533 39.9948 79.3093 39.2055 80.248C38.4375 81.1867 37.4668 81.9227 36.2935 82.456C35.1202 82.9893 33.8082 83.256 32.3575 83.256C30.6082 83.256 29.0508 82.8827 27.6855 82.136C26.3202 81.3893 25.2535 80.3227 24.4855 78.936C23.7175 77.5493 23.3335 75.928 23.3335 74.072C23.3335 72.216 23.7068 70.5947 24.4535 69.208C25.2215 67.8213 26.2882 66.7547 27.6535 66.008C29.0188 65.2613 30.5868 64.888 32.3575 64.888C34.0855 64.888 35.6215 65.2507 36.9655 65.976C38.3095 66.7013 39.3548 67.736 40.1015 69.08C40.8695 70.424 41.2535 71.992 41.2535 73.784ZM35.6535 72.344C35.6535 71.4053 35.3335 70.6587 34.6935 70.104C34.0535 69.5493 33.2535 69.272 32.2935 69.272C31.3762 69.272 30.5975 69.5387 29.9575 70.072C29.3388 70.6053 28.9548 71.3627 28.8055 72.344H35.6535ZM66.9243 64.952C69.1429 64.952 70.9029 65.624 72.2043 66.968C73.5269 68.312 74.1883 70.1787 74.1883 72.568V83H68.7483V73.304C68.7483 72.152 68.4389 71.2667 67.8203 70.648C67.2229 70.008 66.3909 69.688 65.3243 69.688C64.2576 69.688 63.4149 70.008 62.7963 70.648C62.1989 71.2667 61.9003 72.152 61.9003 73.304V83H56.4603V73.304C56.4603 72.152 56.1509 71.2667 55.5323 70.648C54.9349 70.008 54.1029 69.688 53.0363 69.688C51.9696 69.688 51.1269 70.008 50.5083 70.648C49.9109 71.2667 49.6123 72.152 49.6123 73.304V83H44.1403V65.144H49.6123V67.384C50.1669 66.6373 50.8923 66.0507 51.7883 65.624C52.6843 65.176 53.6976 64.952 54.8283 64.952C56.1723 64.952 57.3669 65.24 58.4123 65.816C59.4789 66.392 60.3109 67.2133 60.9083 68.28C61.5269 67.2987 62.3696 66.4987 63.4363 65.88C64.5029 65.2613 65.6656 64.952 66.9243 64.952ZM85.2793 83.256C83.7219 83.256 82.3353 82.9893 81.1193 82.456C79.9033 81.9227 78.9433 81.1973 78.2393 80.28C77.5353 79.3413 77.1406 78.296 77.0553 77.144H82.4633C82.5273 77.7627 82.8153 78.264 83.3273 78.648C83.8393 79.032 84.4686 79.224 85.2153 79.224C85.8979 79.224 86.4206 79.096 86.7833 78.84C87.1673 78.5627 87.3593 78.2107 87.3593 77.784C87.3593 77.272 87.0926 76.8987 86.5593 76.664C86.0259 76.408 85.1619 76.1307 83.9673 75.832C82.6873 75.5333 81.6206 75.224 80.7673 74.904C79.9139 74.5627 79.1779 74.04 78.5593 73.336C77.9406 72.6107 77.6313 71.64 77.6313 70.424C77.6313 69.4 77.9086 68.472 78.4633 67.64C79.0393 66.7867 79.8713 66.1147 80.9593 65.624C82.0686 65.1333 83.3806 64.888 84.8953 64.888C87.1353 64.888 88.8953 65.4427 90.1753 66.552C91.4766 67.6613 92.2233 69.1333 92.4153 70.968H87.3593C87.2739 70.3493 86.9966 69.8587 86.5273 69.496C86.0793 69.1333 85.4819 68.952 84.7353 68.952C84.0953 68.952 83.6046 69.08 83.2633 69.336C82.9219 69.5707 82.7513 69.9013 82.7513 70.328C82.7513 70.84 83.0179 71.224 83.5513 71.48C84.1059 71.736 84.9593 71.992 86.1113 72.248C87.4339 72.5893 88.5113 72.9307 89.3433 73.272C90.1753 73.592 90.9006 74.1253 91.5193 74.872C92.1593 75.5973 92.4899 76.5787 92.5113 77.816C92.5113 78.8613 92.2126 79.8 91.6153 80.632C91.0393 81.4427 90.1966 82.0827 89.0873 82.552C87.9993 83.0213 86.7299 83.256 85.2793 83.256Z" fill="white"/>
<path d="M3.402 117.146V120.818H7.722V122.492H3.402V126.326H8.262V128H1.35V115.472H8.262V117.146H3.402ZM10.1055 122.996C10.1055 122 10.3095 121.118 10.7175 120.35C11.1375 119.582 11.7015 118.988 12.4095 118.568C13.1295 118.136 13.9215 117.92 14.7855 117.92C15.5655 117.92 16.2435 118.076 16.8195 118.388C17.4075 118.688 17.8755 119.066 18.2235 119.522V118.082H20.2935V128H18.2235V126.524C17.8755 126.992 17.4015 127.382 16.8015 127.694C16.2015 128.006 15.5175 128.162 14.7495 128.162C13.8975 128.162 13.1175 127.946 12.4095 127.514C11.7015 127.07 11.1375 126.458 10.7175 125.678C10.3095 124.886 10.1055 123.992 10.1055 122.996ZM18.2235 123.032C18.2235 122.348 18.0795 121.754 17.7915 121.25C17.5155 120.746 17.1495 120.362 16.6935 120.098C16.2375 119.834 15.7455 119.702 15.2175 119.702C14.6895 119.702 14.1975 119.834 13.7415 120.098C13.2855 120.35 12.9135 120.728 12.6255 121.232C12.3495 121.724 12.2115 122.312 12.2115 122.996C12.2115 123.68 12.3495 124.28 12.6255 124.796C12.9135 125.312 13.2855 125.708 13.7415 125.984C14.2095 126.248 14.7015 126.38 15.2175 126.38C15.7455 126.38 16.2375 126.248 16.6935 125.984C17.1495 125.72 17.5155 125.336 17.7915 124.832C18.0795 124.316 18.2235 123.716 18.2235 123.032ZM26.5887 128.162C25.8087 128.162 25.1067 128.024 24.4827 127.748C23.8707 127.46 23.3847 127.076 23.0247 126.596C22.6647 126.104 22.4727 125.558 22.4487 124.958H24.5727C24.6087 125.378 24.8067 125.732 25.1667 126.02C25.5387 126.296 26.0007 126.434 26.5527 126.434C27.1287 126.434 27.5727 126.326 27.8847 126.11C28.2087 125.882 28.3707 125.594 28.3707 125.246C28.3707 124.874 28.1907 124.598 27.8307 124.418C27.4827 124.238 26.9247 124.04 26.1567 123.824C25.4127 123.62 24.8067 123.422 24.3387 123.23C23.8707 123.038 23.4627 122.744 23.1147 122.348C22.7787 121.952 22.6107 121.43 22.6107 120.782C22.6107 120.254 22.7667 119.774 23.0787 119.342C23.3907 118.898 23.8347 118.55 24.4107 118.298C24.9987 118.046 25.6707 117.92 26.4267 117.92C27.5547 117.92 28.4607 118.208 29.1447 118.784C29.8407 119.348 30.2127 120.122 30.2607 121.106H28.2087C28.1727 120.662 27.9927 120.308 27.6687 120.044C27.3447 119.78 26.9067 119.648 26.3547 119.648C25.8147 119.648 25.4007 119.75 25.1127 119.954C24.8247 120.158 24.6807 120.428 24.6807 120.764C24.6807 121.028 24.7767 121.25 24.9687 121.43C25.1607 121.61 25.3947 121.754 25.6707 121.862C25.9467 121.958 26.3547 122.084 26.8947 122.24C27.6147 122.432 28.2027 122.63 28.6587 122.834C29.1267 123.026 29.5287 123.314 29.8647 123.698C30.2007 124.082 30.3747 124.592 30.3867 125.228C30.3867 125.792 30.2307 126.296 29.9187 126.74C29.6067 127.184 29.1627 127.532 28.5867 127.784C28.0227 128.036 27.3567 128.162 26.5887 128.162ZM33.6479 116.768C33.2759 116.768 32.9639 116.642 32.7119 116.39C32.4599 116.138 32.3339 115.826 32.3339 115.454C32.3339 115.082 32.4599 114.77 32.7119 114.518C32.9639 114.266 33.2759 114.14 33.6479 114.14C34.0079 114.14 34.3139 114.266 34.5659 114.518C34.8179 114.77 34.9439 115.082 34.9439 115.454C34.9439 115.826 34.8179 116.138 34.5659 116.39C34.3139 116.642 34.0079 116.768 33.6479 116.768ZM34.6559 118.082V128H32.6039V118.082H34.6559ZM46.44 122.798C46.44 123.17 46.416 123.506 46.368 123.806H38.79C38.85 124.598 39.144 125.234 39.672 125.714C40.2 126.194 40.848 126.434 41.616 126.434C42.72 126.434 43.5 125.972 43.956 125.048H46.17C45.87 125.96 45.324 126.71 44.532 127.298C43.752 127.874 42.78 128.162 41.616 128.162C40.668 128.162 39.816 127.952 39.06 127.532C38.316 127.1 37.728 126.5 37.296 125.732C36.876 124.952 36.666 124.052 36.666 123.032C36.666 122.012 36.87 121.118 37.278 120.35C37.698 119.57 38.28 118.97 39.024 118.55C39.78 118.13 40.644 117.92 41.616 117.92C42.552 117.92 43.386 118.124 44.118 118.532C44.85 118.94 45.42 119.516 45.828 120.26C46.236 120.992 46.44 121.838 46.44 122.798ZM44.298 122.15C44.286 121.394 44.016 120.788 43.488 120.332C42.96 119.876 42.306 119.648 41.526 119.648C40.818 119.648 40.212 119.876 39.708 120.332C39.204 120.776 38.904 121.382 38.808 122.15H44.298ZM52.0594 128.162C51.2794 128.162 50.5774 128.024 49.9534 127.748C49.3414 127.46 48.8554 127.076 48.4954 126.596C48.1354 126.104 47.9434 125.558 47.9194 124.958H50.0434C50.0794 125.378 50.2774 125.732 50.6374 126.02C51.0094 126.296 51.4714 126.434 52.0234 126.434C52.5994 126.434 53.0434 126.326 53.3554 126.11C53.6794 125.882 53.8414 125.594 53.8414 125.246C53.8414 124.874 53.6614 124.598 53.3014 124.418C52.9534 124.238 52.3954 124.04 51.6274 123.824C50.8834 123.62 50.2774 123.422 49.8094 123.23C49.3414 123.038 48.9334 122.744 48.5854 122.348C48.2494 121.952 48.0814 121.43 48.0814 120.782C48.0814 120.254 48.2374 119.774 48.5494 119.342C48.8614 118.898 49.3054 118.55 49.8814 118.298C50.4694 118.046 51.1414 117.92 51.8974 117.92C53.0254 117.92 53.9314 118.208 54.6154 118.784C55.3114 119.348 55.6834 120.122 55.7314 121.106H53.6794C53.6434 120.662 53.4634 120.308 53.1394 120.044C52.8154 119.78 52.3774 119.648 51.8254 119.648C51.2854 119.648 50.8714 119.75 50.5834 119.954C50.2954 120.158 50.1514 120.428 50.1514 120.764C50.1514 121.028 50.2474 121.25 50.4394 121.43C50.6314 121.61 50.8654 121.754 51.1414 121.862C51.4174 121.958 51.8254 122.084 52.3654 122.24C53.0854 122.432 53.6734 122.63 54.1294 122.834C54.5974 123.026 54.9994 123.314 55.3354 123.698C55.6714 124.082 55.8454 124.592 55.8574 125.228C55.8574 125.792 55.7014 126.296 55.3894 126.74C55.0774 127.184 54.6334 127.532 54.0574 127.784C53.4934 128.036 52.8274 128.162 52.0594 128.162ZM60.4686 119.756V125.246C60.4686 125.618 60.5526 125.888 60.7206 126.056C60.9006 126.212 61.2006 126.29 61.6206 126.29H62.8806V128H61.2606C60.3366 128 59.6286 127.784 59.1366 127.352C58.6446 126.92 58.3986 126.218 58.3986 125.246V119.756H57.2286V118.082H58.3986V115.616H60.4686V118.082H62.8806V119.756H60.4686ZM82.7677 118.082L79.6897 128H77.5297L75.5317 120.674L73.5337 128H71.3737L68.2777 118.082H70.3657L72.4357 126.056L74.5417 118.082H76.6837L78.6997 126.02L80.7517 118.082H82.7677ZM83.6172 122.996C83.6172 122 83.8212 121.118 84.2292 120.35C84.6492 119.582 85.2132 118.988 85.9212 118.568C86.6412 118.136 87.4332 117.92 88.2972 117.92C89.0772 117.92 89.7552 118.076 90.3312 118.388C90.9192 118.688 91.3872 119.066 91.7352 119.522V118.082H93.8052V128H91.7352V126.524C91.3872 126.992 90.9132 127.382 90.3132 127.694C89.7132 128.006 89.0292 128.162 88.2612 128.162C87.4092 128.162 86.6292 127.946 85.9212 127.514C85.2132 127.07 84.6492 126.458 84.2292 125.678C83.8212 124.886 83.6172 123.992 83.6172 122.996ZM91.7352 123.032C91.7352 122.348 91.5912 121.754 91.3032 121.25C91.0272 120.746 90.6612 120.362 90.2052 120.098C89.7492 119.834 89.2572 119.702 88.7292 119.702C88.2012 119.702 87.7092 119.834 87.2532 120.098C86.7972 120.35 86.4252 120.728 86.1372 121.232C85.8612 121.724 85.7232 122.312 85.7232 122.996C85.7232 123.68 85.8612 124.28 86.1372 124.796C86.4252 125.312 86.7972 125.708 87.2532 125.984C87.7212 126.248 88.2132 126.38 88.7292 126.38C89.2572 126.38 89.7492 126.248 90.2052 125.984C90.6612 125.72 91.0272 125.336 91.3032 124.832C91.5912 124.316 91.7352 123.716 91.7352 123.032ZM105.428 118.082L99.3444 132.662H97.2204L99.2364 127.838L95.3304 118.082H97.6164L100.406 125.642L103.304 118.082H105.428ZM114.047 119.756V125.246C114.047 125.618 114.131 125.888 114.299 126.056C114.479 126.212 114.779 126.29 115.199 126.29H116.459V128H114.839C113.915 128 113.207 127.784 112.715 127.352C112.223 126.92 111.977 126.218 111.977 125.246V119.756H110.807V118.082H111.977V115.616H114.047V118.082H116.459V119.756H114.047ZM122.652 128.162C121.716 128.162 120.87 127.952 120.114 127.532C119.358 127.1 118.764 126.5 118.332 125.732C117.9 124.952 117.684 124.052 117.684 123.032C117.684 122.024 117.906 121.13 118.35 120.35C118.794 119.57 119.4 118.97 120.168 118.55C120.936 118.13 121.794 117.92 122.742 117.92C123.69 117.92 124.548 118.13 125.316 118.55C126.084 118.97 126.69 119.57 127.134 120.35C127.578 121.13 127.8 122.024 127.8 123.032C127.8 124.04 127.572 124.934 127.116 125.714C126.66 126.494 126.036 127.1 125.244 127.532C124.464 127.952 123.6 128.162 122.652 128.162ZM122.652 126.38C123.18 126.38 123.672 126.254 124.128 126.002C124.596 125.75 124.974 125.372 125.262 124.868C125.55 124.364 125.694 123.752 125.694 123.032C125.694 122.312 125.556 121.706 125.28 121.214C125.004 120.71 124.638 120.332 124.182 120.08C123.726 119.828 123.234 119.702 122.706 119.702C122.178 119.702 121.686 119.828 121.23 120.08C120.786 120.332 120.432 120.71 120.168 121.214C119.904 121.706 119.772 122.312 119.772 123.032C119.772 124.1 120.042 124.928 120.582 125.516C121.134 126.092 121.824 126.38 122.652 126.38ZM3.402 141.68V155H1.35V141.68H3.402ZM15.0781 145.082V155H13.0261V153.83C12.7021 154.238 12.2761 154.562 11.7481 154.802C11.2321 155.03 10.6801 155.144 10.0921 155.144C9.31209 155.144 8.61009 154.982 7.98609 154.658C7.37409 154.334 6.88809 153.854 6.52809 153.218C6.18009 152.582 6.00609 151.814 6.00609 150.914V145.082H8.04009V150.608C8.04009 151.496 8.26209 152.18 8.70609 152.66C9.15009 153.128 9.75609 153.362 10.5241 153.362C11.2921 153.362 11.8981 153.128 12.3421 152.66C12.7981 152.18 13.0261 151.496 13.0261 150.608V145.082H15.0781ZM22.0335 149.978L25.2375 155H22.9155L20.7735 151.634L18.7575 155H16.6155L19.8195 150.122L16.6155 145.082H18.9375L21.0795 148.448L23.0955 145.082H25.2375L22.0335 149.978ZM35.75 145.082V155H33.698V153.83C33.374 154.238 32.948 154.562 32.42 154.802C31.904 155.03 31.352 155.144 30.764 155.144C29.984 155.144 29.282 154.982 28.658 154.658C28.046 154.334 27.56 153.854 27.2 153.218C26.852 152.582 26.678 151.814 26.678 150.914V145.082H28.712V150.608C28.712 151.496 28.934 152.18 29.378 152.66C29.822 153.128 30.428 153.362 31.196 153.362C31.964 153.362 32.57 153.128 33.014 152.66C33.47 152.18 33.698 151.496 33.698 150.608V145.082H35.75ZM40.5094 146.522C40.8094 146.018 41.2054 145.628 41.6974 145.352C42.2014 145.064 42.7954 144.92 43.4794 144.92V147.044H42.9574C42.1534 147.044 41.5414 147.248 41.1214 147.656C40.7134 148.064 40.5094 148.772 40.5094 149.78V155H38.4574V145.082H40.5094V146.522ZM46.4096 143.768C46.0376 143.768 45.7256 143.642 45.4736 143.39C45.2216 143.138 45.0956 142.826 45.0956 142.454C45.0956 142.082 45.2216 141.77 45.4736 141.518C45.7256 141.266 46.0376 141.14 46.4096 141.14C46.7696 141.14 47.0756 141.266 47.3276 141.518C47.5796 141.77 47.7056 142.082 47.7056 142.454C47.7056 142.826 47.5796 143.138 47.3276 143.39C47.0756 143.642 46.7696 143.768 46.4096 143.768ZM47.4176 145.082V155H45.3656V145.082H47.4176ZM54.4137 155.162C53.4777 155.162 52.6317 154.952 51.8757 154.532C51.1197 154.1 50.5257 153.5 50.0937 152.732C49.6617 151.952 49.4457 151.052 49.4457 150.032C49.4457 149.024 49.6677 148.13 50.1117 147.35C50.5557 146.57 51.1617 145.97 51.9297 145.55C52.6977 145.13 53.5557 144.92 54.5037 144.92C55.4517 144.92 56.3097 145.13 57.0777 145.55C57.8457 145.97 58.4517 146.57 58.8957 147.35C59.3397 148.13 59.5617 149.024 59.5617 150.032C59.5617 151.04 59.3337 151.934 58.8777 152.714C58.4217 153.494 57.7977 154.1 57.0057 154.532C56.2257 154.952 55.3617 155.162 54.4137 155.162ZM54.4137 153.38C54.9417 153.38 55.4337 153.254 55.8897 153.002C56.3577 152.75 56.7357 152.372 57.0237 151.868C57.3117 151.364 57.4557 150.752 57.4557 150.032C57.4557 149.312 57.3177 148.706 57.0417 148.214C56.7657 147.71 56.3997 147.332 55.9437 147.08C55.4877 146.828 54.9957 146.702 54.4677 146.702C53.9397 146.702 53.4477 146.828 52.9917 147.08C52.5477 147.332 52.1937 147.71 51.9297 148.214C51.6657 148.706 51.5337 149.312 51.5337 150.032C51.5337 151.1 51.8037 151.928 52.3437 152.516C52.8957 153.092 53.5857 153.38 54.4137 153.38ZM70.5722 145.082V155H68.5202V153.83C68.1962 154.238 67.7702 154.562 67.2422 154.802C66.7262 155.03 66.1742 155.144 65.5862 155.144C64.8062 155.144 64.1042 154.982 63.4802 154.658C62.8682 154.334 62.3822 153.854 62.0222 153.218C61.6742 152.582 61.5002 151.814 61.5002 150.914V145.082H63.5342V150.608C63.5342 151.496 63.7562 152.18 64.2002 152.66C64.6442 153.128 65.2502 153.362 66.0182 153.362C66.7862 153.362 67.3922 153.128 67.8362 152.66C68.2922 152.18 68.5202 151.496 68.5202 150.608V145.082H70.5722ZM76.8797 155.162C76.0997 155.162 75.3977 155.024 74.7737 154.748C74.1617 154.46 73.6757 154.076 73.3157 153.596C72.9557 153.104 72.7637 152.558 72.7397 151.958H74.8637C74.8997 152.378 75.0977 152.732 75.4577 153.02C75.8297 153.296 76.2917 153.434 76.8437 153.434C77.4197 153.434 77.8637 153.326 78.1757 153.11C78.4997 152.882 78.6617 152.594 78.6617 152.246C78.6617 151.874 78.4817 151.598 78.1217 151.418C77.7737 151.238 77.2157 151.04 76.4477 150.824C75.7037 150.62 75.0977 150.422 74.6297 150.23C74.1617 150.038 73.7537 149.744 73.4057 149.348C73.0697 148.952 72.9017 148.43 72.9017 147.782C72.9017 147.254 73.0577 146.774 73.3697 146.342C73.6817 145.898 74.1257 145.55 74.7017 145.298C75.2897 145.046 75.9617 144.92 76.7177 144.92C77.8457 144.92 78.7517 145.208 79.4357 145.784C80.1317 146.348 80.5037 147.122 80.5517 148.106H78.4997C78.4637 147.662 78.2837 147.308 77.9597 147.044C77.6357 146.78 77.1977 146.648 76.6457 146.648C76.1057 146.648 75.6917 146.75 75.4037 146.954C75.1157 147.158 74.9717 147.428 74.9717 147.764C74.9717 148.028 75.0677 148.25 75.2597 148.43C75.4517 148.61 75.6857 148.754 75.9617 148.862C76.2377 148.958 76.6457 149.084 77.1857 149.24C77.9057 149.432 78.4937 149.63 78.9497 149.834C79.4177 150.026 79.8197 150.314 80.1557 150.698C80.4917 151.082 80.6657 151.592 80.6777 152.228C80.6777 152.792 80.5217 153.296 80.2097 153.74C79.8977 154.184 79.4537 154.532 78.8777 154.784C78.3137 155.036 77.6477 155.162 76.8797 155.162ZM89.6227 141.68V155H87.5707V141.68H89.6227ZM93.3608 143.768C92.9888 143.768 92.6768 143.642 92.4248 143.39C92.1728 143.138 92.0468 142.826 92.0468 142.454C92.0468 142.082 92.1728 141.77 92.4248 141.518C92.6768 141.266 92.9888 141.14 93.3608 141.14C93.7208 141.14 94.0268 141.266 94.2788 141.518C94.5308 141.77 94.6568 142.082 94.6568 142.454C94.6568 142.826 94.5308 143.138 94.2788 143.39C94.0268 143.642 93.7208 143.768 93.3608 143.768ZM94.3688 145.082V155H92.3168V145.082H94.3688ZM101.221 146.756H99.3849V155H97.3149V146.756H96.1449V145.082H97.3149V144.38C97.3149 143.24 97.6149 142.412 98.2149 141.896C98.8269 141.368 99.7809 141.104 101.077 141.104V142.814C100.453 142.814 100.015 142.934 99.7629 143.174C99.5109 143.402 99.3849 143.804 99.3849 144.38V145.082H101.221V146.756ZM112.129 149.798C112.129 150.17 112.105 150.506 112.057 150.806H104.479C104.539 151.598 104.833 152.234 105.361 152.714C105.889 153.194 106.537 153.434 107.305 153.434C108.409 153.434 109.189 152.972 109.645 152.048H111.859C111.559 152.96 111.013 153.71 110.221 154.298C109.441 154.874 108.469 155.162 107.305 155.162C106.357 155.162 105.505 154.952 104.749 154.532C104.005 154.1 103.417 153.5 102.985 152.732C102.565 151.952 102.355 151.052 102.355 150.032C102.355 149.012 102.559 148.118 102.967 147.35C103.387 146.57 103.969 145.97 104.713 145.55C105.469 145.13 106.333 144.92 107.305 144.92C108.241 144.92 109.075 145.124 109.807 145.532C110.539 145.94 111.109 146.516 111.517 147.26C111.925 147.992 112.129 148.838 112.129 149.798ZM109.987 149.15C109.975 148.394 109.705 147.788 109.177 147.332C108.649 146.876 107.995 146.648 107.215 146.648C106.507 146.648 105.901 146.876 105.397 147.332C104.893 147.776 104.593 148.382 104.497 149.15H109.987ZM120.877 146.558C121.225 146.078 121.699 145.688 122.299 145.388C122.911 145.076 123.589 144.92 124.333 144.92C125.209 144.92 126.001 145.13 126.709 145.55C127.417 145.97 127.975 146.57 128.383 147.35C128.791 148.118 128.995 149 128.995 149.996C128.995 150.992 128.791 151.886 128.383 152.678C127.975 153.458 127.411 154.07 126.691 154.514C125.983 154.946 125.197 155.162 124.333 155.162C123.565 155.162 122.881 155.012 122.281 154.712C121.693 154.412 121.225 154.028 120.877 153.56V155H118.825V141.68H120.877V146.558ZM126.907 149.996C126.907 149.312 126.763 148.724 126.475 148.232C126.199 147.728 125.827 147.35 125.359 147.098C124.903 146.834 124.411 146.702 123.883 146.702C123.367 146.702 122.875 146.834 122.407 147.098C121.951 147.362 121.579 147.746 121.291 148.25C121.015 148.754 120.877 149.348 120.877 150.032C120.877 150.716 121.015 151.316 121.291 151.832C121.579 152.336 121.951 152.72 122.407 152.984C122.875 153.248 123.367 153.38 123.883 153.38C124.411 153.38 124.903 153.248 125.359 152.984C125.827 152.708 126.199 152.312 126.475 151.796C126.763 151.28 126.907 150.68 126.907 149.996ZM139.952 145.082L133.868 159.662H131.744L133.76 154.838L129.854 145.082H132.14L134.93 152.642L137.828 145.082H139.952ZM3.402 173.558C3.75 173.078 4.224 172.688 4.824 172.388C5.436 172.076 6.114 171.92 6.858 171.92C7.734 171.92 8.526 172.13 9.234 172.55C9.942 172.97 10.5 173.57 10.908 174.35C11.316 175.118 11.52 176 11.52 176.996C11.52 177.992 11.316 178.886 10.908 179.678C10.5 180.458 9.936 181.07 9.216 181.514C8.508 181.946 7.722 182.162 6.858 182.162C6.09 182.162 5.406 182.012 4.806 181.712C4.218 181.412 3.75 181.028 3.402 180.56V182H1.35V168.68H3.402V173.558ZM9.432 176.996C9.432 176.312 9.288 175.724 9 175.232C8.724 174.728 8.352 174.35 7.884 174.098C7.428 173.834 6.936 173.702 6.408 173.702C5.892 173.702 5.4 173.834 4.932 174.098C4.476 174.362 4.104 174.746 3.816 175.25C3.54 175.754 3.402 176.348 3.402 177.032C3.402 177.716 3.54 178.316 3.816 178.832C4.104 179.336 4.476 179.72 4.932 179.984C5.4 180.248 5.892 180.38 6.408 180.38C6.936 180.38 7.428 180.248 7.884 179.984C8.352 179.708 8.724 179.312 9 178.796C9.288 178.28 9.432 177.68 9.432 176.996ZM22.5312 172.082V182H20.4792V180.83C20.1552 181.238 19.7292 181.562 19.2012 181.802C18.6852 182.03 18.1332 182.144 17.5452 182.144C16.7652 182.144 16.0632 181.982 15.4392 181.658C14.8272 181.334 14.3412 180.854 13.9812 180.218C13.6332 179.582 13.4592 178.814 13.4592 177.914V172.082H15.4932V177.608C15.4932 178.496 15.7152 179.18 16.1592 179.66C16.6032 180.128 17.2092 180.362 17.9772 180.362C18.7452 180.362 19.3512 180.128 19.7952 179.66C20.2512 179.18 20.4792 178.496 20.4792 177.608V172.082H22.5312ZM34.1667 172.082L28.0827 186.662H25.9587L27.9747 181.838L24.0687 172.082H26.3547L29.1447 179.642L32.0427 172.082H34.1667ZM36.7592 170.768C36.3872 170.768 36.0752 170.642 35.8232 170.39C35.5712 170.138 35.4452 169.826 35.4452 169.454C35.4452 169.082 35.5712 168.77 35.8232 168.518C36.0752 168.266 36.3872 168.14 36.7592 168.14C37.1192 168.14 37.4252 168.266 37.6772 168.518C37.9292 168.77 38.0552 169.082 38.0552 169.454C38.0552 169.826 37.9292 170.138 37.6772 170.39C37.4252 170.642 37.1192 170.768 36.7592 170.768ZM37.7672 172.082V182H35.7152V172.082H37.7672ZM45.4653 171.92C46.2453 171.92 46.9413 172.082 47.5533 172.406C48.1773 172.73 48.6633 173.21 49.0113 173.846C49.3593 174.482 49.5333 175.25 49.5333 176.15V182H47.4993V176.456C47.4993 175.568 47.2773 174.89 46.8333 174.422C46.3893 173.942 45.7833 173.702 45.0153 173.702C44.2473 173.702 43.6353 173.942 43.1793 174.422C42.7353 174.89 42.5133 175.568 42.5133 176.456V182H40.4613V172.082H42.5133V173.216C42.8493 172.808 43.2753 172.49 43.7913 172.262C44.3193 172.034 44.8773 171.92 45.4653 171.92ZM56.1468 171.92C56.9148 171.92 57.5928 172.076 58.1808 172.388C58.7808 172.688 59.2488 173.066 59.5848 173.522V172.082H61.6548V182.162C61.6548 183.074 61.4628 183.884 61.0788 184.592C60.6948 185.312 60.1368 185.876 59.4048 186.284C58.6848 186.692 57.8208 186.896 56.8128 186.896C55.4688 186.896 54.3528 186.578 53.4648 185.942C52.5768 185.318 52.0728 184.466 51.9528 183.386H53.9868C54.1428 183.902 54.4728 184.316 54.9768 184.628C55.4928 184.952 56.1048 185.114 56.8128 185.114C57.6408 185.114 58.3068 184.862 58.8108 184.358C59.3268 183.854 59.5848 183.122 59.5848 182.162V180.506C59.2368 180.974 58.7628 181.37 58.1628 181.694C57.5748 182.006 56.9028 182.162 56.1468 182.162C55.2828 182.162 54.4908 181.946 53.7708 181.514C53.0628 181.07 52.4988 180.458 52.0788 179.678C51.6708 178.886 51.4668 177.992 51.4668 176.996C51.4668 176 51.6708 175.118 52.0788 174.35C52.4988 173.582 53.0628 172.988 53.7708 172.568C54.4908 172.136 55.2828 171.92 56.1468 171.92ZM59.5848 177.032C59.5848 176.348 59.4408 175.754 59.1528 175.25C58.8768 174.746 58.5108 174.362 58.0548 174.098C57.5988 173.834 57.1068 173.702 56.5788 173.702C56.0508 173.702 55.5588 173.834 55.1028 174.098C54.6468 174.35 54.2748 174.728 53.9868 175.232C53.7108 175.724 53.5728 176.312 53.5728 176.996C53.5728 177.68 53.7108 178.28 53.9868 178.796C54.2748 179.312 54.6468 179.708 55.1028 179.984C55.5708 180.248 56.0628 180.38 56.5788 180.38C57.1068 180.38 57.5988 180.248 58.0548 179.984C58.5108 179.72 58.8768 179.336 59.1528 178.832C59.4408 178.316 59.5848 177.716 59.5848 177.032ZM77.9538 172.082L71.8698 186.662H69.7458L71.7618 181.838L67.8558 172.082H70.1418L72.9318 179.642L75.8298 172.082H77.9538ZM83.8043 182.162C82.8683 182.162 82.0223 181.952 81.2663 181.532C80.5103 181.1 79.9163 180.5 79.4843 179.732C79.0523 178.952 78.8363 178.052 78.8363 177.032C78.8363 176.024 79.0583 175.13 79.5023 174.35C79.9463 173.57 80.5523 172.97 81.3203 172.55C82.0883 172.13 82.9463 171.92 83.8943 171.92C84.8423 171.92 85.7003 172.13 86.4683 172.55C87.2363 172.97 87.8423 173.57 88.2863 174.35C88.7303 175.13 88.9523 176.024 88.9523 177.032C88.9523 178.04 88.7243 178.934 88.2683 179.714C87.8123 180.494 87.1883 181.1 86.3963 181.532C85.6163 181.952 84.7523 182.162 83.8043 182.162ZM83.8043 180.38C84.3323 180.38 84.8243 180.254 85.2803 180.002C85.7483 179.75 86.1263 179.372 86.4143 178.868C86.7023 178.364 86.8463 177.752 86.8463 177.032C86.8463 176.312 86.7083 175.706 86.4323 175.214C86.1563 174.71 85.7903 174.332 85.3343 174.08C84.8783 173.828 84.3863 173.702 83.8583 173.702C83.3303 173.702 82.8383 173.828 82.3823 174.08C81.9383 174.332 81.5843 174.71 81.3203 175.214C81.0563 175.706 80.9243 176.312 80.9243 177.032C80.9243 178.1 81.1943 178.928 81.7343 179.516C82.2863 180.092 82.9763 180.38 83.8043 180.38ZM99.9629 172.082V182H97.9109V180.83C97.5869 181.238 97.1609 181.562 96.6329 181.802C96.1169 182.03 95.5649 182.144 94.9769 182.144C94.1969 182.144 93.4949 181.982 92.8709 181.658C92.2589 181.334 91.7729 180.854 91.4129 180.218C91.0649 179.582 90.8909 178.814 90.8909 177.914V172.082H92.9249V177.608C92.9249 178.496 93.1469 179.18 93.5909 179.66C94.0349 180.128 94.6409 180.362 95.4089 180.362C96.1769 180.362 96.7829 180.128 97.2269 179.66C97.6829 179.18 97.9109 178.496 97.9109 177.608V172.082H99.9629ZM104.722 173.522C105.022 173.018 105.418 172.628 105.91 172.352C106.414 172.064 107.008 171.92 107.692 171.92V174.044H107.17C106.366 174.044 105.754 174.248 105.334 174.656C104.926 175.064 104.722 175.772 104.722 176.78V182H102.67V172.082H104.722V173.522ZM118.412 173.756H116.576V182H114.506V173.756H113.336V172.082H114.506V171.38C114.506 170.24 114.806 169.412 115.406 168.896C116.018 168.368 116.972 168.104 118.268 168.104V169.814C117.644 169.814 117.206 169.934 116.954 170.174C116.702 170.402 116.576 170.804 116.576 171.38V172.082H118.412V173.756ZM119.547 176.996C119.547 176 119.751 175.118 120.159 174.35C120.579 173.582 121.143 172.988 121.851 172.568C122.571 172.136 123.363 171.92 124.227 171.92C125.007 171.92 125.685 172.076 126.261 172.388C126.849 172.688 127.317 173.066 127.665 173.522V172.082H129.735V182H127.665V180.524C127.317 180.992 126.843 181.382 126.243 181.694C125.643 182.006 124.959 182.162 124.191 182.162C123.339 182.162 122.559 181.946 121.851 181.514C121.143 181.07 120.579 180.458 120.159 179.678C119.751 178.886 119.547 177.992 119.547 176.996ZM127.665 177.032C127.665 176.348 127.521 175.754 127.233 175.25C126.957 174.746 126.591 174.362 126.135 174.098C125.679 173.834 125.187 173.702 124.659 173.702C124.131 173.702 123.639 173.834 123.183 174.098C122.727 174.35 122.355 174.728 122.067 175.232C121.791 175.724 121.653 176.312 121.653 176.996C121.653 177.68 121.791 178.28 122.067 178.796C122.355 179.312 122.727 179.708 123.183 179.984C123.651 180.248 124.143 180.38 124.659 180.38C125.187 180.38 125.679 180.248 126.135 179.984C126.591 179.72 126.957 179.336 127.233 178.832C127.521 178.316 127.665 177.716 127.665 177.032ZM136.264 180.164L139.072 172.082H141.25L137.47 182H135.022L131.26 172.082H133.456L136.264 180.164ZM147.103 182.162C146.167 182.162 145.321 181.952 144.565 181.532C143.809 181.1 143.215 180.5 142.783 179.732C142.351 178.952 142.135 178.052 142.135 177.032C142.135 176.024 142.357 175.13 142.801 174.35C143.245 173.57 143.851 172.97 144.619 172.55C145.387 172.13 146.245 171.92 147.193 171.92C148.141 171.92 148.999 172.13 149.767 172.55C150.535 172.97 151.141 173.57 151.585 174.35C152.029 175.13 152.251 176.024 152.251 177.032C152.251 178.04 152.023 178.934 151.567 179.714C151.111 180.494 150.487 181.1 149.695 181.532C148.915 181.952 148.051 182.162 147.103 182.162ZM147.103 180.38C147.631 180.38 148.123 180.254 148.579 180.002C149.047 179.75 149.425 179.372 149.713 178.868C150.001 178.364 150.145 177.752 150.145 177.032C150.145 176.312 150.007 175.706 149.731 175.214C149.455 174.71 149.089 174.332 148.633 174.08C148.177 173.828 147.685 173.702 147.157 173.702C146.629 173.702 146.137 173.828 145.681 174.08C145.237 174.332 144.883 174.71 144.619 175.214C144.355 175.706 144.223 176.312 144.223 177.032C144.223 178.1 144.493 178.928 145.033 179.516C145.585 180.092 146.275 180.38 147.103 180.38ZM163.262 172.082V182H161.21V180.83C160.886 181.238 160.46 181.562 159.932 181.802C159.416 182.03 158.864 182.144 158.276 182.144C157.496 182.144 156.794 181.982 156.17 181.658C155.558 181.334 155.072 180.854 154.712 180.218C154.364 179.582 154.19 178.814 154.19 177.914V172.082H156.224V177.608C156.224 178.496 156.446 179.18 156.89 179.66C157.334 180.128 157.94 180.362 158.708 180.362C159.476 180.362 160.082 180.128 160.526 179.66C160.982 179.18 161.21 178.496 161.21 177.608V172.082H163.262ZM168.021 173.522C168.321 173.018 168.717 172.628 169.209 172.352C169.713 172.064 170.307 171.92 170.991 171.92V174.044H170.469C169.665 174.044 169.053 174.248 168.633 174.656C168.225 175.064 168.021 175.772 168.021 176.78V182H165.969V172.082H168.021V173.522ZM173.921 170.768C173.549 170.768 173.237 170.642 172.985 170.39C172.733 170.138 172.607 169.826 172.607 169.454C172.607 169.082 172.733 168.77 172.985 168.518C173.237 168.266 173.549 168.14 173.921 168.14C174.281 168.14 174.587 168.266 174.839 168.518C175.091 168.77 175.217 169.082 175.217 169.454C175.217 169.826 175.091 170.138 174.839 170.39C174.587 170.642 174.281 170.768 173.921 170.768ZM174.929 172.082V182H172.877V172.082H174.929ZM180.017 173.756V179.246C180.017 179.618 180.101 179.888 180.269 180.056C180.449 180.212 180.749 180.29 181.169 180.29H182.429V182H180.809C179.885 182 179.177 181.784 178.685 181.352C178.193 180.92 177.947 180.218 177.947 179.246V173.756H176.777V172.082H177.947V169.616H180.017V172.082H182.429V173.756H180.017ZM193.411 176.798C193.411 177.17 193.387 177.506 193.339 177.806H185.761C185.821 178.598 186.115 179.234 186.643 179.714C187.171 180.194 187.819 180.434 188.587 180.434C189.691 180.434 190.471 179.972 190.927 179.048H193.141C192.841 179.96 192.295 180.71 191.503 181.298C190.723 181.874 189.751 182.162 188.587 182.162C187.639 182.162 186.787 181.952 186.031 181.532C185.287 181.1 184.699 180.5 184.267 179.732C183.847 178.952 183.637 178.052 183.637 177.032C183.637 176.012 183.841 175.118 184.249 174.35C184.669 173.57 185.251 172.97 185.995 172.55C186.751 172.13 187.615 171.92 188.587 171.92C189.523 171.92 190.357 172.124 191.089 172.532C191.821 172.94 192.391 173.516 192.799 174.26C193.207 174.992 193.411 175.838 193.411 176.798ZM191.269 176.15C191.257 175.394 190.987 174.788 190.459 174.332C189.931 173.876 189.277 173.648 188.497 173.648C187.789 173.648 187.183 173.876 186.679 174.332C186.175 174.776 185.875 175.382 185.779 176.15H191.269ZM5.508 200.756H3.672V209H1.602V200.756H0.432V199.082H1.602V198.38C1.602 197.24 1.902 196.412 2.502 195.896C3.114 195.368 4.068 195.104 5.364 195.104V196.814C4.74 196.814 4.302 196.934 4.05 197.174C3.798 197.402 3.672 197.804 3.672 198.38V199.082H5.508V200.756ZM16.3086 199.082V209H14.2566V207.83C13.9326 208.238 13.5066 208.562 12.9786 208.802C12.4626 209.03 11.9106 209.144 11.3226 209.144C10.5426 209.144 9.84056 208.982 9.21656 208.658C8.60456 208.334 8.11856 207.854 7.75856 207.218C7.41056 206.582 7.23656 205.814 7.23656 204.914V199.082H9.27056V204.608C9.27056 205.496 9.49256 206.18 9.93656 206.66C10.3806 207.128 10.9866 207.362 11.7546 207.362C12.5226 207.362 13.1286 207.128 13.5726 206.66C14.0286 206.18 14.2566 205.496 14.2566 204.608V199.082H16.3086ZM21.068 200.522C21.368 200.018 21.764 199.628 22.256 199.352C22.76 199.064 23.354 198.92 24.038 198.92V201.044H23.516C22.712 201.044 22.1 201.248 21.68 201.656C21.272 202.064 21.068 202.772 21.068 203.78V209H19.016V199.082H21.068V200.522ZM30.9282 198.92C31.7082 198.92 32.4042 199.082 33.0162 199.406C33.6402 199.73 34.1262 200.21 34.4742 200.846C34.8222 201.482 34.9962 202.25 34.9962 203.15V209H32.9622V203.456C32.9622 202.568 32.7402 201.89 32.2962 201.422C31.8522 200.942 31.2462 200.702 30.4782 200.702C29.7102 200.702 29.0982 200.942 28.6422 201.422C28.1982 201.89 27.9762 202.568 27.9762 203.456V209H25.9242V199.082H27.9762V200.216C28.3122 199.808 28.7382 199.49 29.2542 199.262C29.7822 199.034 30.3402 198.92 30.9282 198.92ZM38.6577 197.768C38.2857 197.768 37.9737 197.642 37.7217 197.39C37.4697 197.138 37.3437 196.826 37.3437 196.454C37.3437 196.082 37.4697 195.77 37.7217 195.518C37.9737 195.266 38.2857 195.14 38.6577 195.14C39.0177 195.14 39.3237 195.266 39.5757 195.518C39.8277 195.77 39.9537 196.082 39.9537 196.454C39.9537 196.826 39.8277 197.138 39.5757 197.39C39.3237 197.642 39.0177 197.768 38.6577 197.768ZM39.6657 199.082V209H37.6137V199.082H39.6657ZM44.7538 200.756V206.246C44.7538 206.618 44.8378 206.888 45.0058 207.056C45.1858 207.212 45.4858 207.29 45.9058 207.29H47.1658V209H45.5458C44.6218 209 43.9138 208.784 43.4218 208.352C42.9298 207.92 42.6838 207.218 42.6838 206.246V200.756H41.5138V199.082H42.6838V196.616H44.7538V199.082H47.1658V200.756H44.7538ZM58.039 199.082V209H55.987V207.83C55.663 208.238 55.237 208.562 54.709 208.802C54.193 209.03 53.641 209.144 53.053 209.144C52.273 209.144 51.571 208.982 50.947 208.658C50.335 208.334 49.849 207.854 49.489 207.218C49.141 206.582 48.967 205.814 48.967 204.914V199.082H51.001V204.608C51.001 205.496 51.223 206.18 51.667 206.66C52.111 207.128 52.717 207.362 53.485 207.362C54.253 207.362 54.859 207.128 55.303 206.66C55.759 206.18 55.987 205.496 55.987 204.608V199.082H58.039ZM62.7985 200.522C63.0985 200.018 63.4945 199.628 63.9865 199.352C64.4905 199.064 65.0845 198.92 65.7685 198.92V201.044H65.2465C64.4425 201.044 63.8305 201.248 63.4105 201.656C63.0025 202.064 62.7985 202.772 62.7985 203.78V209H60.7465V199.082H62.7985V200.522ZM76.7447 203.798C76.7447 204.17 76.7207 204.506 76.6727 204.806H69.0947C69.1547 205.598 69.4487 206.234 69.9767 206.714C70.5047 207.194 71.1527 207.434 71.9207 207.434C73.0247 207.434 73.8047 206.972 74.2607 206.048H76.4747C76.1747 206.96 75.6287 207.71 74.8367 208.298C74.0567 208.874 73.0847 209.162 71.9207 209.162C70.9727 209.162 70.1207 208.952 69.3647 208.532C68.6207 208.1 68.0327 207.5 67.6007 206.732C67.1807 205.952 66.9707 205.052 66.9707 204.032C66.9707 203.012 67.1747 202.118 67.5827 201.35C68.0027 200.57 68.5847 199.97 69.3287 199.55C70.0847 199.13 70.9487 198.92 71.9207 198.92C72.8567 198.92 73.6907 199.124 74.4227 199.532C75.1547 199.94 75.7247 200.516 76.1327 201.26C76.5407 201.992 76.7447 202.838 76.7447 203.798ZM74.6027 203.15C74.5907 202.394 74.3207 201.788 73.7927 201.332C73.2647 200.876 72.6107 200.648 71.8307 200.648C71.1227 200.648 70.5167 200.876 70.0127 201.332C69.5087 201.776 69.2087 202.382 69.1127 203.15H74.6027Z" fill="#C7C7C7"/>
</svg>
