<svg width="361" height="255" viewBox="0 0 361 255" fill="none" xmlns="http://www.w3.org/2000/svg">
<path d="M77.686 24.54C77.338 24.54 77.062 24.438 76.858 24.234C76.666 24.042 76.528 23.766 76.444 23.406C76.372 23.046 76.336 22.596 76.336 22.056C76.336 21.276 76.342 20.688 76.354 20.292C76.366 18.696 76.348 17.406 76.3 16.422C76.264 15.438 76.138 14.502 75.922 13.614C75.706 12.726 75.352 11.994 74.86 11.418C75.304 11.094 75.79 10.932 76.318 10.932C76.93 10.932 77.392 11.148 77.704 11.58C78.028 12.012 78.25 12.714 78.37 13.686C78.49 14.658 78.55 16.044 78.55 17.844V21.84C78.55 22.068 78.544 22.254 78.532 22.398C78.532 22.542 78.532 22.668 78.532 22.776H78.766C80.338 20.844 81.502 19.086 82.258 17.502C83.014 15.906 83.494 14.664 83.698 13.776C83.71 13.74 83.716 13.71 83.716 13.686C83.728 13.65 83.734 13.62 83.734 13.596C83.734 13.488 83.698 13.35 83.626 13.182C83.566 13.014 83.488 12.828 83.392 12.624C83.344 12.528 83.302 12.438 83.266 12.354C83.23 12.27 83.206 12.198 83.194 12.138C83.422 11.922 83.608 11.778 83.752 11.706C83.908 11.622 84.076 11.58 84.256 11.58C84.652 11.58 84.97 11.718 85.21 11.994C85.45 12.258 85.57 12.624 85.57 13.092C85.57 13.548 85.48 14.034 85.3 14.55C85.132 15.054 84.886 15.606 84.562 16.206C84.25 16.794 83.746 17.7 83.05 18.924C83.014 18.972 82.972 19.044 82.924 19.14C82.084 20.616 81.37 21.744 80.782 22.524C80.194 23.304 79.66 23.832 79.18 24.108C78.712 24.396 78.214 24.54 77.686 24.54ZM85.444 24.54C84.94 24.54 84.55 24.42 84.274 24.18C84.01 23.952 83.824 23.64 83.716 23.244C83.608 22.836 83.536 22.326 83.5 21.714L82.798 12.138C82.93 11.97 83.122 11.838 83.374 11.742C83.638 11.634 83.932 11.58 84.256 11.58L84.796 12.894L85.138 22.776H85.354C86.938 20.28 88.084 18.27 88.792 16.746C89.512 15.21 89.872 14.046 89.872 13.254C89.872 12.534 89.716 11.922 89.404 11.418C89.764 11.226 90.052 11.1 90.268 11.04C90.496 10.968 90.742 10.932 91.006 10.932C91.354 10.932 91.624 11.076 91.816 11.364C92.02 11.652 92.122 12.036 92.122 12.516C92.122 13.104 91.936 13.902 91.564 14.91C91.204 15.906 90.664 17.1 89.944 18.492C89.224 19.872 88.336 21.432 87.28 23.172L87.604 23.784C87.4 24 87.088 24.18 86.668 24.324C86.26 24.468 85.852 24.54 85.444 24.54ZM94.8664 24.45C94.4464 24.45 94.1344 24.342 93.9304 24.126C93.7264 23.91 93.6244 23.592 93.6244 23.172C93.6244 22.752 93.7264 21.966 93.9304 20.814C94.1344 19.65 94.4764 17.826 94.9564 15.342C95.0764 14.742 95.1964 14.142 95.3164 13.542C95.4364 12.93 95.5504 12.324 95.6584 11.724L94.8664 10.824C95.1424 10.584 95.4724 10.398 95.8564 10.266C96.2524 10.122 96.6124 10.05 96.9364 10.05C97.2724 10.05 97.5124 10.128 97.6564 10.284C97.8004 10.428 97.8724 10.68 97.8724 11.04C97.8724 11.268 97.8364 11.568 97.7644 11.94C97.6924 12.3 97.5724 12.816 97.4044 13.488C97.0804 14.796 96.8464 15.81 96.7024 16.53L96.8824 16.62C97.5424 15.432 98.3044 14.568 99.1684 14.028C100.032 13.476 100.902 13.2 101.778 13.2C102.546 13.2 103.122 13.398 103.506 13.794C103.89 14.178 104.082 14.778 104.082 15.594C104.082 16.074 104.028 16.572 103.92 17.088C103.824 17.604 103.68 18.252 103.488 19.032C103.26 19.944 103.092 20.694 102.984 21.282C102.876 21.858 102.822 22.434 102.822 23.01C102.822 23.466 102.9 23.778 103.056 23.946C102.684 24.282 102.3 24.45 101.904 24.45C101.484 24.45 101.178 24.342 100.986 24.126C100.794 23.91 100.698 23.592 100.698 23.172C100.698 22.716 100.746 22.206 100.842 21.642C100.95 21.066 101.1 20.322 101.292 19.41C101.472 18.654 101.604 18.024 101.688 17.52C101.784 17.004 101.832 16.56 101.832 16.188C101.832 15.216 101.466 14.73 100.734 14.73C100.002 14.73 99.2464 15.09 98.4664 15.81C97.6984 16.53 97.0564 17.526 96.5404 18.798C96.0244 20.058 95.7664 21.462 95.7664 23.01C95.7664 23.454 95.8384 23.766 95.9824 23.946C95.6344 24.282 95.2624 24.45 94.8664 24.45ZM108.498 24.45C108.09 24.45 107.784 24.348 107.58 24.144C107.376 23.94 107.274 23.616 107.274 23.172C107.274 22.68 107.388 21.804 107.616 20.544C107.856 19.284 108.258 17.388 108.822 14.856L108.03 13.956C108.318 13.728 108.648 13.548 109.02 13.416C109.404 13.272 109.752 13.2 110.064 13.2C110.424 13.2 110.676 13.278 110.82 13.434C110.976 13.578 111.054 13.83 111.054 14.19C111.054 14.25 111.018 14.43 110.946 14.73C110.886 15.03 110.808 15.366 110.712 15.738C110.34 17.262 110.028 18.642 109.776 19.878C109.536 21.114 109.416 22.158 109.416 23.01C109.416 23.466 109.524 23.784 109.74 23.964C109.344 24.288 108.93 24.45 108.498 24.45ZM110.1 11.67C109.716 11.67 109.41 11.58 109.182 11.4C108.954 11.208 108.84 10.956 108.84 10.644C108.84 10.404 108.906 10.182 109.038 9.978C109.182 9.774 109.374 9.612 109.614 9.492C109.854 9.36 110.13 9.294 110.442 9.294C110.838 9.294 111.144 9.39 111.36 9.582C111.588 9.762 111.702 10.002 111.702 10.302C111.702 10.686 111.552 11.01 111.252 11.274C110.952 11.538 110.568 11.67 110.1 11.67ZM117.204 24.45C116.016 24.45 115.08 24.288 114.396 23.964C113.712 23.64 113.37 23.19 113.37 22.614C113.37 22.374 113.442 22.146 113.586 21.93C113.73 21.714 113.934 21.534 114.198 21.39C114.498 21.99 114.9 22.452 115.404 22.776C115.908 23.088 116.466 23.244 117.078 23.244C117.942 23.244 118.638 23.082 119.166 22.758C119.694 22.434 119.958 21.966 119.958 21.354C119.958 20.982 119.76 20.682 119.364 20.454C118.98 20.226 118.386 19.974 117.582 19.698C116.838 19.446 116.226 19.206 115.746 18.978C115.266 18.75 114.858 18.444 114.522 18.06C114.186 17.664 114.018 17.178 114.018 16.602C114.018 15.942 114.246 15.354 114.702 14.838C115.158 14.322 115.788 13.92 116.592 13.632C117.408 13.344 118.344 13.2 119.4 13.2C120.36 13.2 121.146 13.344 121.758 13.632C122.382 13.92 122.694 14.286 122.694 14.73C122.694 15.162 122.55 15.498 122.262 15.738C121.974 15.966 121.596 16.08 121.128 16.08C120.672 16.08 120.282 15.936 119.958 15.648C119.634 15.36 119.388 14.94 119.22 14.388C118.236 14.496 117.462 14.73 116.898 15.09C116.346 15.438 116.07 15.864 116.07 16.368C116.07 16.62 116.166 16.836 116.358 17.016C116.562 17.196 116.814 17.352 117.114 17.484C117.414 17.604 117.84 17.76 118.392 17.952C119.16 18.216 119.778 18.462 120.246 18.69C120.726 18.918 121.134 19.23 121.47 19.626C121.818 20.01 121.992 20.496 121.992 21.084C121.992 21.72 121.8 22.296 121.416 22.812C121.032 23.316 120.474 23.712 119.742 24C119.022 24.3 118.176 24.45 117.204 24.45ZM127.305 24.45C126.933 24.45 126.639 24.342 126.423 24.126C126.207 23.91 126.099 23.508 126.099 22.92C126.099 22.332 126.177 21.66 126.333 20.904C126.489 20.148 126.717 19.176 127.017 17.988C127.293 16.908 127.497 16.05 127.629 15.414C127.761 14.766 127.827 14.208 127.827 13.74C127.827 13.308 127.767 12.822 127.647 12.282L127.611 12.138C127.815 11.922 128.085 11.754 128.421 11.634C128.757 11.502 129.087 11.436 129.411 11.436C129.759 11.436 130.011 11.514 130.167 11.67C130.323 11.826 130.401 12.084 130.401 12.444C130.401 12.732 130.341 13.104 130.221 13.56C130.113 14.016 129.933 14.658 129.681 15.486C129.225 16.998 128.865 18.318 128.601 19.446C128.349 20.562 128.229 21.69 128.241 22.83L128.817 23.802C128.601 24.018 128.355 24.18 128.079 24.288C127.815 24.396 127.557 24.45 127.305 24.45ZM126.387 16.116C126.087 16.116 125.871 16.062 125.739 15.954C125.607 15.834 125.541 15.654 125.541 15.414C125.541 15.102 125.637 14.808 125.829 14.532C126.165 14.64 126.711 14.694 127.467 14.694C127.923 14.694 128.523 14.628 129.267 14.496C129.579 14.448 129.903 14.406 130.239 14.37C130.575 14.322 130.881 14.298 131.157 14.298C131.469 14.298 131.685 14.358 131.805 14.478C131.925 14.598 131.985 14.778 131.985 15.018C131.985 15.33 131.889 15.612 131.697 15.864C131.517 15.816 131.271 15.78 130.959 15.756C130.659 15.72 130.377 15.702 130.113 15.702C129.861 15.702 129.573 15.726 129.249 15.774C128.925 15.81 128.613 15.852 128.313 15.9C127.449 16.044 126.807 16.116 126.387 16.116ZM134.475 24.45C134.115 24.45 133.839 24.33 133.647 24.09C133.455 23.862 133.359 23.508 133.359 23.028C133.359 22.56 133.491 21.444 133.755 19.68C134.019 17.904 134.319 16.026 134.655 14.046C134.727 13.626 134.799 13.224 134.871 12.84C134.943 12.444 135.009 12.072 135.069 11.724L134.277 10.824C134.553 10.584 134.883 10.398 135.267 10.266C135.663 10.122 136.023 10.05 136.347 10.05C136.683 10.05 136.923 10.128 137.067 10.284C137.211 10.428 137.283 10.68 137.283 11.04C137.283 11.196 137.235 11.526 137.139 12.03C137.043 12.534 136.929 13.098 136.797 13.722C136.401 15.654 136.077 17.37 135.825 18.87C135.585 20.358 135.465 21.684 135.465 22.848C135.465 23.076 135.495 23.292 135.555 23.496C135.627 23.688 135.717 23.838 135.825 23.946C135.645 24.102 135.441 24.222 135.213 24.306C134.985 24.402 134.739 24.45 134.475 24.45ZM143.781 24.45C142.509 24.45 141.513 24.06 140.793 23.28C140.073 22.5 139.713 21.426 139.713 20.058C139.713 18.762 139.995 17.592 140.559 16.548C141.123 15.504 141.903 14.688 142.899 14.1C143.895 13.5 145.005 13.2 146.229 13.2C147.177 13.2 147.915 13.428 148.443 13.884C148.983 14.34 149.253 14.97 149.253 15.774C149.253 16.626 148.947 17.358 148.335 17.97C147.723 18.57 146.829 19.032 145.653 19.356C144.489 19.668 143.079 19.824 141.423 19.824L141.639 18.816C143.427 18.828 144.813 18.564 145.797 18.024C146.793 17.472 147.291 16.704 147.291 15.72C147.291 15.3 147.165 14.964 146.913 14.712C146.661 14.46 146.331 14.334 145.923 14.334C145.215 14.334 144.555 14.598 143.943 15.126C143.331 15.642 142.845 16.35 142.485 17.25C142.125 18.138 141.945 19.11 141.945 20.166C141.945 21.126 142.125 21.882 142.485 22.434C142.845 22.974 143.337 23.244 143.961 23.244C144.741 23.244 145.377 22.998 145.869 22.506C146.361 22.014 146.631 21.36 146.679 20.544C147.147 20.544 147.507 20.634 147.759 20.814C148.011 20.982 148.137 21.252 148.137 21.624C148.137 22.104 147.945 22.566 147.561 23.01C147.177 23.442 146.649 23.79 145.977 24.054C145.317 24.318 144.585 24.45 143.781 24.45ZM159.668 24.45C159.32 24.45 159.056 24.378 158.876 24.234C158.696 24.102 158.564 23.88 158.48 23.568C158.408 23.244 158.372 22.782 158.372 22.182C158.372 21.546 158.378 21.066 158.39 20.742C158.402 19.422 158.39 18.378 158.354 17.61C158.318 16.842 158.216 16.104 158.048 15.396C157.88 14.688 157.604 14.106 157.22 13.65C157.604 13.35 158.03 13.2 158.498 13.2C159.002 13.2 159.386 13.374 159.65 13.722C159.926 14.07 160.118 14.64 160.226 15.432C160.334 16.212 160.388 17.322 160.388 18.762V21.03C160.388 22.074 160.382 22.698 160.37 22.902H160.55C161.786 21.354 162.692 19.932 163.268 18.636C163.844 17.328 164.204 16.32 164.348 15.612C164.36 15.588 164.366 15.57 164.366 15.558C164.366 15.534 164.366 15.516 164.366 15.504C164.366 15.384 164.318 15.24 164.222 15.072C164.126 14.892 164.03 14.724 163.934 14.568C163.814 14.412 163.736 14.286 163.7 14.19C163.928 14.022 164.126 13.908 164.294 13.848C164.474 13.776 164.66 13.74 164.852 13.74C165.2 13.74 165.47 13.854 165.662 14.082C165.866 14.31 165.968 14.628 165.968 15.036C165.968 15.576 165.836 16.17 165.572 16.818C165.308 17.454 164.858 18.348 164.222 19.5C164.162 19.596 164.102 19.698 164.042 19.806C163.982 19.914 163.922 20.028 163.862 20.148C163.214 21.312 162.662 22.2 162.206 22.812C161.75 23.424 161.324 23.85 160.928 24.09C160.544 24.33 160.124 24.45 159.668 24.45ZM165.896 24.45C165.464 24.45 165.128 24.348 164.888 24.144C164.648 23.94 164.474 23.664 164.366 23.316C164.27 22.956 164.204 22.494 164.168 21.93L163.61 14.208C163.754 14.052 163.934 13.938 164.15 13.866C164.366 13.782 164.6 13.74 164.852 13.74L165.32 14.82L165.608 22.902H165.788C167 20.91 167.882 19.284 168.434 18.024C168.998 16.752 169.28 15.792 169.28 15.144C169.28 14.556 169.16 14.058 168.92 13.65C169.22 13.482 169.472 13.368 169.676 13.308C169.892 13.236 170.12 13.2 170.36 13.2C170.672 13.2 170.912 13.32 171.08 13.56C171.26 13.8 171.35 14.124 171.35 14.532C171.35 15.012 171.212 15.648 170.936 16.44C170.672 17.22 170.264 18.168 169.712 19.284C169.16 20.4 168.464 21.684 167.624 23.136L167.912 23.676C167.696 23.904 167.396 24.09 167.012 24.234C166.628 24.378 166.256 24.45 165.896 24.45ZM178.083 24.45C177.219 24.45 176.457 24.258 175.797 23.874C175.149 23.478 174.645 22.926 174.285 22.218C173.937 21.498 173.763 20.664 173.763 19.716C173.763 18.444 174.027 17.316 174.555 16.332C175.095 15.348 175.845 14.58 176.805 14.028C177.765 13.476 178.851 13.2 180.063 13.2C180.567 13.2 181.029 13.248 181.449 13.344C181.581 13.536 181.659 13.818 181.683 14.19C180.483 14.19 179.457 14.43 178.605 14.91C177.753 15.39 177.105 16.062 176.661 16.926C176.217 17.778 175.995 18.75 175.995 19.842C175.995 20.91 176.193 21.744 176.589 22.344C176.985 22.944 177.549 23.244 178.281 23.244C178.989 23.244 179.625 23.046 180.189 22.65C180.765 22.254 181.233 21.69 181.593 20.958C181.965 20.226 182.199 19.374 182.295 18.402C181.803 18.09 181.443 17.748 181.215 17.376C180.999 17.004 180.891 16.566 180.891 16.062C180.891 15.762 180.951 15.492 181.071 15.252C181.203 15 181.377 14.808 181.593 14.676C181.809 14.532 182.055 14.46 182.331 14.46C182.883 14.46 183.315 14.706 183.627 15.198C183.939 15.69 184.095 16.374 184.095 17.25C184.095 18.57 183.825 19.782 183.285 20.886C182.757 21.978 182.031 22.848 181.107 23.496C180.195 24.132 179.187 24.45 178.083 24.45ZM191.126 24.45C190.262 24.45 189.5 24.258 188.84 23.874C188.192 23.478 187.688 22.926 187.328 22.218C186.98 21.498 186.806 20.664 186.806 19.716C186.806 18.444 187.07 17.316 187.598 16.332C188.138 15.348 188.888 14.58 189.848 14.028C190.808 13.476 191.894 13.2 193.106 13.2C193.61 13.2 194.072 13.248 194.492 13.344C194.624 13.536 194.702 13.818 194.726 14.19C193.526 14.19 192.5 14.43 191.648 14.91C190.796 15.39 190.148 16.062 189.704 16.926C189.26 17.778 189.038 18.75 189.038 19.842C189.038 20.91 189.236 21.744 189.632 22.344C190.028 22.944 190.592 23.244 191.324 23.244C192.032 23.244 192.668 23.046 193.232 22.65C193.808 22.254 194.276 21.69 194.636 20.958C195.008 20.226 195.242 19.374 195.338 18.402C194.846 18.09 194.486 17.748 194.258 17.376C194.042 17.004 193.934 16.566 193.934 16.062C193.934 15.762 193.994 15.492 194.114 15.252C194.246 15 194.42 14.808 194.636 14.676C194.852 14.532 195.098 14.46 195.374 14.46C195.926 14.46 196.358 14.706 196.67 15.198C196.982 15.69 197.138 16.374 197.138 17.25C197.138 18.57 196.868 19.782 196.328 20.886C195.8 21.978 195.074 22.848 194.15 23.496C193.238 24.132 192.23 24.45 191.126 24.45ZM203.017 24.45C202.369 24.45 201.793 24.276 201.289 23.928C200.797 23.58 200.413 23.088 200.137 22.452C199.873 21.804 199.741 21.06 199.741 20.22C199.741 19.008 200.047 17.904 200.659 16.908C201.271 15.9 202.105 15.108 203.161 14.532C204.217 13.944 205.381 13.65 206.653 13.65C207.301 13.65 207.865 13.698 208.345 13.794C208.489 14.022 208.561 14.304 208.561 14.64C207.229 14.64 206.065 14.874 205.069 15.342C204.073 15.81 203.305 16.464 202.765 17.304C202.225 18.132 201.955 19.086 201.955 20.166C201.955 20.982 202.123 21.618 202.459 22.074C202.795 22.53 203.269 22.758 203.881 22.758C204.541 22.758 205.189 22.464 205.825 21.876C206.461 21.288 206.953 20.496 207.301 19.5L207.139 21.948L206.779 21.804C206.347 22.644 205.801 23.298 205.141 23.766C204.493 24.222 203.785 24.45 203.017 24.45ZM208.021 24.45C207.649 24.45 207.367 24.33 207.175 24.09C206.983 23.862 206.887 23.508 206.887 23.028C206.887 22.572 207.013 21.51 207.265 19.842C207.517 18.162 207.823 16.23 208.183 14.046C208.267 13.626 208.339 13.224 208.399 12.84C208.471 12.444 208.537 12.072 208.597 11.724L207.805 10.824C208.093 10.584 208.429 10.398 208.813 10.266C209.197 10.122 209.551 10.05 209.875 10.05C210.211 10.05 210.451 10.128 210.595 10.284C210.739 10.428 210.811 10.68 210.811 11.04C210.811 11.28 210.757 11.652 210.649 12.156C210.553 12.66 210.439 13.212 210.307 13.812C209.911 15.564 209.593 17.148 209.353 18.564C209.113 19.968 208.993 21.396 208.993 22.848C208.993 23.064 209.023 23.274 209.083 23.478C209.155 23.682 209.251 23.838 209.371 23.946C209.179 24.102 208.969 24.222 208.741 24.306C208.525 24.402 208.285 24.45 208.021 24.45Z" fill="white"/>
<path d="M92.14 67.49L88.432 80H86.11L83.482 70.532L80.692 80L78.388 80.018L74.842 67.49H77.02L79.612 77.678L82.42 67.49H84.724L87.334 77.624L89.944 67.49H92.14ZM102.922 74.798C102.922 75.17 102.898 75.506 102.85 75.806H95.2724C95.3324 76.598 95.6264 77.234 96.1544 77.714C96.6824 78.194 97.3304 78.434 98.0984 78.434C99.2024 78.434 99.9824 77.972 100.438 77.048H102.652C102.352 77.96 101.806 78.71 101.014 79.298C100.234 79.874 99.2624 80.162 98.0984 80.162C97.1504 80.162 96.2984 79.952 95.5424 79.532C94.7984 79.1 94.2104 78.5 93.7784 77.732C93.3584 76.952 93.1484 76.052 93.1484 75.032C93.1484 74.012 93.3524 73.118 93.7604 72.35C94.1804 71.57 94.7624 70.97 95.5064 70.55C96.2624 70.13 97.1264 69.92 98.0984 69.92C99.0344 69.92 99.8684 70.124 100.6 70.532C101.332 70.94 101.902 71.516 102.31 72.26C102.718 72.992 102.922 73.838 102.922 74.798ZM100.78 74.15C100.768 73.394 100.498 72.788 99.9704 72.332C99.4424 71.876 98.7884 71.648 98.0084 71.648C97.3004 71.648 96.6944 71.876 96.1904 72.332C95.6864 72.776 95.3864 73.382 95.2904 74.15H100.78ZM114.748 69.92C115.504 69.92 116.176 70.082 116.764 70.406C117.364 70.73 117.832 71.21 118.168 71.846C118.516 72.482 118.69 73.25 118.69 74.15V80H116.656V74.456C116.656 73.568 116.434 72.89 115.99 72.422C115.546 71.942 114.94 71.702 114.172 71.702C113.404 71.702 112.792 71.942 112.336 72.422C111.892 72.89 111.67 73.568 111.67 74.456V80H109.618V66.68H111.67V71.234C112.018 70.814 112.456 70.49 112.984 70.262C113.524 70.034 114.112 69.92 114.748 69.92ZM130.397 74.798C130.397 75.17 130.373 75.506 130.325 75.806H122.747C122.807 76.598 123.101 77.234 123.629 77.714C124.157 78.194 124.805 78.434 125.573 78.434C126.677 78.434 127.457 77.972 127.913 77.048H130.127C129.827 77.96 129.281 78.71 128.489 79.298C127.709 79.874 126.737 80.162 125.573 80.162C124.625 80.162 123.773 79.952 123.017 79.532C122.273 79.1 121.685 78.5 121.253 77.732C120.833 76.952 120.623 76.052 120.623 75.032C120.623 74.012 120.827 73.118 121.235 72.35C121.655 71.57 122.237 70.97 122.981 70.55C123.737 70.13 124.601 69.92 125.573 69.92C126.509 69.92 127.343 70.124 128.075 70.532C128.807 70.94 129.377 71.516 129.785 72.26C130.193 72.992 130.397 73.838 130.397 74.798ZM128.255 74.15C128.243 73.394 127.973 72.788 127.445 72.332C126.917 71.876 126.263 71.648 125.483 71.648C124.775 71.648 124.169 71.876 123.665 72.332C123.161 72.776 122.861 73.382 122.765 74.15H128.255ZM134.468 66.68V80H132.416V66.68H134.468ZM139.215 71.54C139.563 71.084 140.037 70.7 140.637 70.388C141.237 70.076 141.915 69.92 142.671 69.92C143.535 69.92 144.321 70.136 145.029 70.568C145.749 70.988 146.313 71.582 146.721 72.35C147.129 73.118 147.333 74 147.333 74.996C147.333 75.992 147.129 76.886 146.721 77.678C146.313 78.458 145.749 79.07 145.029 79.514C144.321 79.946 143.535 80.162 142.671 80.162C141.915 80.162 141.243 80.012 140.655 79.712C140.067 79.4 139.587 79.016 139.215 78.56V84.716H137.163V70.082H139.215V71.54ZM145.245 74.996C145.245 74.312 145.101 73.724 144.812 73.232C144.537 72.728 144.165 72.35 143.697 72.098C143.241 71.834 142.749 71.702 142.221 71.702C141.705 71.702 141.213 71.834 140.745 72.098C140.289 72.362 139.917 72.746 139.629 73.25C139.353 73.754 139.215 74.348 139.215 75.032C139.215 75.716 139.353 76.316 139.629 76.832C139.917 77.336 140.289 77.72 140.745 77.984C141.213 78.248 141.705 78.38 142.221 78.38C142.749 78.38 143.241 78.248 143.697 77.984C144.165 77.708 144.537 77.312 144.812 76.796C145.101 76.28 145.245 75.68 145.245 74.996ZM162.966 70.082L156.882 84.662H154.758L156.774 79.838L152.868 70.082H155.154L157.944 77.642L160.842 70.082H162.966ZM168.816 80.162C167.88 80.162 167.034 79.952 166.278 79.532C165.522 79.1 164.928 78.5 164.496 77.732C164.064 76.952 163.848 76.052 163.848 75.032C163.848 74.024 164.07 73.13 164.514 72.35C164.958 71.57 165.564 70.97 166.332 70.55C167.1 70.13 167.958 69.92 168.906 69.92C169.854 69.92 170.712 70.13 171.48 70.55C172.248 70.97 172.854 71.57 173.298 72.35C173.742 73.13 173.964 74.024 173.964 75.032C173.964 76.04 173.736 76.934 173.28 77.714C172.824 78.494 172.2 79.1 171.408 79.532C170.628 79.952 169.764 80.162 168.816 80.162ZM168.816 78.38C169.344 78.38 169.836 78.254 170.292 78.002C170.76 77.75 171.138 77.372 171.426 76.868C171.714 76.364 171.858 75.752 171.858 75.032C171.858 74.312 171.72 73.706 171.444 73.214C171.168 72.71 170.802 72.332 170.346 72.08C169.89 71.828 169.398 71.702 168.87 71.702C168.342 71.702 167.85 71.828 167.394 72.08C166.95 72.332 166.596 72.71 166.332 73.214C166.068 73.706 165.936 74.312 165.936 75.032C165.936 76.1 166.206 76.928 166.746 77.516C167.298 78.092 167.988 78.38 168.816 78.38ZM184.975 70.082V80H182.923V78.83C182.599 79.238 182.173 79.562 181.645 79.802C181.129 80.03 180.577 80.144 179.989 80.144C179.209 80.144 178.507 79.982 177.883 79.658C177.271 79.334 176.785 78.854 176.425 78.218C176.077 77.582 175.903 76.814 175.903 75.914V70.082H177.937V75.608C177.937 76.496 178.159 77.18 178.603 77.66C179.047 78.128 179.653 78.362 180.421 78.362C181.189 78.362 181.795 78.128 182.239 77.66C182.695 77.18 182.923 76.496 182.923 75.608V70.082H184.975ZM196.516 71.756H194.68V80H192.61V71.756H191.44V70.082H192.61V69.38C192.61 68.24 192.91 67.412 193.51 66.896C194.122 66.368 195.076 66.104 196.372 66.104V67.814C195.748 67.814 195.31 67.934 195.058 68.174C194.806 68.402 194.68 68.804 194.68 69.38V70.082H196.516V71.756ZM199.378 68.768C199.006 68.768 198.694 68.642 198.442 68.39C198.19 68.138 198.064 67.826 198.064 67.454C198.064 67.082 198.19 66.77 198.442 66.518C198.694 66.266 199.006 66.14 199.378 66.14C199.738 66.14 200.044 66.266 200.296 66.518C200.548 66.77 200.674 67.082 200.674 67.454C200.674 67.826 200.548 68.138 200.296 68.39C200.044 68.642 199.738 68.768 199.378 68.768ZM200.386 70.082V80H198.334V70.082H200.386ZM208.084 69.92C208.864 69.92 209.56 70.082 210.172 70.406C210.796 70.73 211.282 71.21 211.63 71.846C211.978 72.482 212.152 73.25 212.152 74.15V80H210.118V74.456C210.118 73.568 209.896 72.89 209.452 72.422C209.008 71.942 208.402 71.702 207.634 71.702C206.866 71.702 206.254 71.942 205.798 72.422C205.354 72.89 205.132 73.568 205.132 74.456V80H203.08V70.082H205.132V71.216C205.468 70.808 205.894 70.49 206.41 70.262C206.938 70.034 207.496 69.92 208.084 69.92ZM214.086 74.996C214.086 74 214.29 73.118 214.698 72.35C215.118 71.582 215.682 70.988 216.39 70.568C217.11 70.136 217.908 69.92 218.784 69.92C219.432 69.92 220.068 70.064 220.692 70.352C221.328 70.628 221.832 71 222.204 71.468V66.68H224.274V80H222.204V78.506C221.868 78.986 221.4 79.382 220.8 79.694C220.212 80.006 219.534 80.162 218.766 80.162C217.902 80.162 217.11 79.946 216.39 79.514C215.682 79.07 215.118 78.458 214.698 77.678C214.29 76.886 214.086 75.992 214.086 74.996ZM222.204 75.032C222.204 74.348 222.06 73.754 221.772 73.25C221.496 72.746 221.13 72.362 220.674 72.098C220.218 71.834 219.726 71.702 219.198 71.702C218.67 71.702 218.178 71.834 217.722 72.098C217.266 72.35 216.894 72.728 216.606 73.232C216.33 73.724 216.192 74.312 216.192 74.996C216.192 75.68 216.33 76.28 216.606 76.796C216.894 77.312 217.266 77.708 217.722 77.984C218.19 78.248 218.682 78.38 219.198 78.38C219.726 78.38 220.218 78.248 220.674 77.984C221.13 77.72 221.496 77.336 221.772 76.832C222.06 76.316 222.204 75.716 222.204 75.032ZM84.778 97.082L78.694 111.662H76.57L78.586 106.838L74.68 97.082H76.966L79.756 104.642L82.654 97.082H84.778ZM90.6286 107.162C89.6926 107.162 88.8466 106.952 88.0906 106.532C87.3346 106.1 86.7406 105.5 86.3086 104.732C85.8766 103.952 85.6606 103.052 85.6606 102.032C85.6606 101.024 85.8826 100.13 86.3266 99.35C86.7706 98.57 87.3766 97.97 88.1446 97.55C88.9126 97.13 89.7706 96.92 90.7186 96.92C91.6666 96.92 92.5246 97.13 93.2926 97.55C94.0606 97.97 94.6666 98.57 95.1106 99.35C95.5546 100.13 95.7766 101.024 95.7766 102.032C95.7766 103.04 95.5486 103.934 95.0926 104.714C94.6366 105.494 94.0126 106.1 93.2206 106.532C92.4406 106.952 91.5766 107.162 90.6286 107.162ZM90.6286 105.38C91.1566 105.38 91.6486 105.254 92.1046 105.002C92.5726 104.75 92.9506 104.372 93.2386 103.868C93.5266 103.364 93.6706 102.752 93.6706 102.032C93.6706 101.312 93.5326 100.706 93.2566 100.214C92.9806 99.71 92.6146 99.332 92.1586 99.08C91.7026 98.828 91.2106 98.702 90.6826 98.702C90.1546 98.702 89.6626 98.828 89.2066 99.08C88.7626 99.332 88.4086 99.71 88.1446 100.214C87.8806 100.706 87.7486 101.312 87.7486 102.032C87.7486 103.1 88.0186 103.928 88.5586 104.516C89.1106 105.092 89.8006 105.38 90.6286 105.38ZM106.787 97.082V107H104.735V105.83C104.411 106.238 103.985 106.562 103.457 106.802C102.941 107.03 102.389 107.144 101.801 107.144C101.021 107.144 100.319 106.982 99.6951 106.658C99.0831 106.334 98.5971 105.854 98.2371 105.218C97.8891 104.582 97.7151 103.814 97.7151 102.914V97.082H99.7491V102.608C99.7491 103.496 99.9711 104.18 100.415 104.66C100.859 105.128 101.465 105.362 102.233 105.362C103.001 105.362 103.607 105.128 104.051 104.66C104.507 104.18 104.735 103.496 104.735 102.608V97.082H106.787ZM111.547 98.522C111.847 98.018 112.243 97.628 112.735 97.352C113.239 97.064 113.833 96.92 114.517 96.92V99.044H113.995C113.191 99.044 112.579 99.248 112.159 99.656C111.751 100.064 111.547 100.772 111.547 101.78V107H109.495V97.082H111.547V98.522ZM120.395 101.996C120.395 101 120.599 100.118 121.007 99.35C121.427 98.582 121.991 97.988 122.699 97.568C123.419 97.136 124.217 96.92 125.093 96.92C125.741 96.92 126.377 97.064 127.001 97.352C127.637 97.628 128.141 98 128.513 98.468V93.68H130.583V107H128.513V105.506C128.177 105.986 127.709 106.382 127.109 106.694C126.521 107.006 125.843 107.162 125.075 107.162C124.211 107.162 123.419 106.946 122.699 106.514C121.991 106.07 121.427 105.458 121.007 104.678C120.599 103.886 120.395 102.992 120.395 101.996ZM128.513 102.032C128.513 101.348 128.369 100.754 128.081 100.25C127.805 99.746 127.439 99.362 126.983 99.098C126.527 98.834 126.035 98.702 125.507 98.702C124.979 98.702 124.487 98.834 124.031 99.098C123.575 99.35 123.203 99.728 122.915 100.232C122.639 100.724 122.501 101.312 122.501 101.996C122.501 102.68 122.639 103.28 122.915 103.796C123.203 104.312 123.575 104.708 124.031 104.984C124.499 105.248 124.991 105.38 125.507 105.38C126.035 105.38 126.527 105.248 126.983 104.984C127.439 104.72 127.805 104.336 128.081 103.832C128.369 103.316 128.513 102.716 128.513 102.032ZM135.33 98.522C135.63 98.018 136.026 97.628 136.518 97.352C137.022 97.064 137.616 96.92 138.3 96.92V99.044H137.778C136.974 99.044 136.362 99.248 135.942 99.656C135.534 100.064 135.33 100.772 135.33 101.78V107H133.278V97.082H135.33V98.522ZM149.276 101.798C149.276 102.17 149.252 102.506 149.204 102.806H141.626C141.686 103.598 141.98 104.234 142.508 104.714C143.036 105.194 143.684 105.434 144.452 105.434C145.556 105.434 146.336 104.972 146.792 104.048H149.006C148.706 104.96 148.16 105.71 147.368 106.298C146.588 106.874 145.616 107.162 144.452 107.162C143.504 107.162 142.652 106.952 141.896 106.532C141.152 106.1 140.564 105.5 140.132 104.732C139.712 103.952 139.502 103.052 139.502 102.032C139.502 101.012 139.706 100.118 140.114 99.35C140.534 98.57 141.116 97.97 141.86 97.55C142.616 97.13 143.48 96.92 144.452 96.92C145.388 96.92 146.222 97.124 146.954 97.532C147.686 97.94 148.256 98.516 148.664 99.26C149.072 99.992 149.276 100.838 149.276 101.798ZM147.134 101.15C147.122 100.394 146.852 99.788 146.324 99.332C145.796 98.876 145.142 98.648 144.362 98.648C143.654 98.648 143.048 98.876 142.544 99.332C142.04 99.776 141.74 100.382 141.644 101.15H147.134ZM150.611 101.996C150.611 101 150.815 100.118 151.223 99.35C151.643 98.582 152.207 97.988 152.915 97.568C153.635 97.136 154.427 96.92 155.291 96.92C156.071 96.92 156.749 97.076 157.325 97.388C157.913 97.688 158.381 98.066 158.729 98.522V97.082H160.799V107H158.729V105.524C158.381 105.992 157.907 106.382 157.307 106.694C156.707 107.006 156.023 107.162 155.255 107.162C154.403 107.162 153.623 106.946 152.915 106.514C152.207 106.07 151.643 105.458 151.223 104.678C150.815 103.886 150.611 102.992 150.611 101.996ZM158.729 102.032C158.729 101.348 158.585 100.754 158.297 100.25C158.021 99.746 157.655 99.362 157.199 99.098C156.743 98.834 156.251 98.702 155.723 98.702C155.195 98.702 154.703 98.834 154.247 99.098C153.791 99.35 153.419 99.728 153.131 100.232C152.855 100.724 152.717 101.312 152.717 101.996C152.717 102.68 152.855 103.28 153.131 103.796C153.419 104.312 153.791 104.708 154.247 104.984C154.715 105.248 155.207 105.38 155.723 105.38C156.251 105.38 156.743 105.248 157.199 104.984C157.655 104.72 158.021 104.336 158.297 103.832C158.585 103.316 158.729 102.716 158.729 102.032ZM175.501 96.92C176.281 96.92 176.977 97.082 177.589 97.406C178.213 97.73 178.699 98.21 179.047 98.846C179.407 99.482 179.587 100.25 179.587 101.15V107H177.553V101.456C177.553 100.568 177.331 99.89 176.887 99.422C176.443 98.942 175.837 98.702 175.069 98.702C174.301 98.702 173.689 98.942 173.233 99.422C172.789 99.89 172.567 100.568 172.567 101.456V107H170.533V101.456C170.533 100.568 170.311 99.89 169.867 99.422C169.423 98.942 168.817 98.702 168.049 98.702C167.281 98.702 166.669 98.942 166.213 99.422C165.769 99.89 165.547 100.568 165.547 101.456V107H163.495V97.082H165.547V98.216C165.883 97.808 166.309 97.49 166.825 97.262C167.341 97.034 167.893 96.92 168.481 96.92C169.273 96.92 169.981 97.088 170.605 97.424C171.229 97.76 171.709 98.246 172.045 98.882C172.345 98.282 172.813 97.808 173.449 97.46C174.085 97.1 174.769 96.92 175.501 96.92ZM191.031 98.756H189.195V107H187.125V98.756H185.955V97.082H187.125V96.38C187.125 95.24 187.425 94.412 188.025 93.896C188.637 93.368 189.591 93.104 190.887 93.104V94.814C190.263 94.814 189.825 94.934 189.573 95.174C189.321 95.402 189.195 95.804 189.195 96.38V97.082H191.031V98.756ZM201.832 97.082V107H199.78V105.83C199.456 106.238 199.03 106.562 198.502 106.802C197.986 107.03 197.434 107.144 196.846 107.144C196.066 107.144 195.364 106.982 194.74 106.658C194.128 106.334 193.642 105.854 193.282 105.218C192.934 104.582 192.76 103.814 192.76 102.914V97.082H194.794V102.608C194.794 103.496 195.016 104.18 195.46 104.66C195.904 105.128 196.51 105.362 197.278 105.362C198.046 105.362 198.652 105.128 199.096 104.66C199.552 104.18 199.78 103.496 199.78 102.608V97.082H201.832ZM206.591 98.522C206.891 98.018 207.287 97.628 207.779 97.352C208.283 97.064 208.877 96.92 209.561 96.92V99.044H209.039C208.235 99.044 207.623 99.248 207.203 99.656C206.795 100.064 206.591 100.772 206.591 101.78V107H204.539V97.082H206.591V98.522ZM216.452 96.92C217.232 96.92 217.928 97.082 218.54 97.406C219.164 97.73 219.65 98.21 219.998 98.846C220.346 99.482 220.52 100.25 220.52 101.15V107H218.486V101.456C218.486 100.568 218.264 99.89 217.82 99.422C217.376 98.942 216.77 98.702 216.002 98.702C215.234 98.702 214.622 98.942 214.166 99.422C213.722 99.89 213.5 100.568 213.5 101.456V107H211.448V97.082H213.5V98.216C213.836 97.808 214.262 97.49 214.778 97.262C215.306 97.034 215.864 96.92 216.452 96.92ZM224.181 95.768C223.809 95.768 223.497 95.642 223.245 95.39C222.993 95.138 222.867 94.826 222.867 94.454C222.867 94.082 222.993 93.77 223.245 93.518C223.497 93.266 223.809 93.14 224.181 93.14C224.541 93.14 224.847 93.266 225.099 93.518C225.351 93.77 225.477 94.082 225.477 94.454C225.477 94.826 225.351 95.138 225.099 95.39C224.847 95.642 224.541 95.768 224.181 95.768ZM225.189 97.082V107H223.137V97.082H225.189ZM230.277 98.756V104.246C230.277 104.618 230.361 104.888 230.529 105.056C230.709 105.212 231.009 105.29 231.429 105.29H232.689V107H231.069C230.145 107 229.437 106.784 228.945 106.352C228.453 105.92 228.207 105.218 228.207 104.246V98.756H227.037V97.082H228.207V94.616H230.277V97.082H232.689V98.756H230.277ZM243.562 97.082V107H241.51V105.83C241.186 106.238 240.76 106.562 240.232 106.802C239.716 107.03 239.164 107.144 238.576 107.144C237.796 107.144 237.094 106.982 236.47 106.658C235.858 106.334 235.372 105.854 235.012 105.218C234.664 104.582 234.49 103.814 234.49 102.914V97.082H236.524V102.608C236.524 103.496 236.746 104.18 237.19 104.66C237.634 105.128 238.24 105.362 239.008 105.362C239.776 105.362 240.382 105.128 240.826 104.66C241.282 104.18 241.51 103.496 241.51 102.608V97.082H243.562ZM248.322 98.522C248.622 98.018 249.018 97.628 249.51 97.352C250.014 97.064 250.608 96.92 251.292 96.92V99.044H250.77C249.966 99.044 249.354 99.248 248.934 99.656C248.526 100.064 248.322 100.772 248.322 101.78V107H246.27V97.082H248.322V98.522ZM262.268 101.798C262.268 102.17 262.244 102.506 262.196 102.806H254.618C254.678 103.598 254.972 104.234 255.5 104.714C256.028 105.194 256.676 105.434 257.444 105.434C258.548 105.434 259.328 104.972 259.784 104.048H261.998C261.698 104.96 261.152 105.71 260.36 106.298C259.58 106.874 258.608 107.162 257.444 107.162C256.496 107.162 255.644 106.952 254.888 106.532C254.144 106.1 253.556 105.5 253.124 104.732C252.704 103.952 252.494 103.052 252.494 102.032C252.494 101.012 252.698 100.118 253.106 99.35C253.526 98.57 254.108 97.97 254.852 97.55C255.608 97.13 256.472 96.92 257.444 96.92C258.38 96.92 259.214 97.124 259.946 97.532C260.678 97.94 261.248 98.516 261.656 99.26C262.064 99.992 262.268 100.838 262.268 101.798ZM260.126 101.15C260.114 100.394 259.844 99.788 259.316 99.332C258.788 98.876 258.134 98.648 257.354 98.648C256.646 98.648 256.04 98.876 255.536 99.332C255.032 99.776 254.732 100.382 254.636 101.15H260.126Z" fill="#F9F9F9"/>
<path d="M94.6649 169.917H97.9982V163.242H101.002L101.332 159.925H97.9982V158.25C97.9982 158.029 98.086 157.817 98.2423 157.661C98.3986 157.505 98.6105 157.417 98.8315 157.417H101.332V154.083H98.8315C97.7265 154.083 96.6667 154.522 95.8853 155.304C95.1039 156.085 94.6649 157.145 94.6649 158.25V159.925H92.9982L92.6682 163.242H94.6649V169.917Z" fill="white"/>
<circle cx="97" cy="162" r="23.5" stroke="#F9F9F9"/>
<circle cx="169" cy="162" r="23.5" stroke="#F9F9F9"/>
<path d="M169 153.667C171.264 153.667 171.547 153.675 172.435 153.717C173.322 153.758 173.927 153.897 174.458 154.104C175.008 154.316 175.472 154.602 175.935 155.065C176.359 155.482 176.686 155.985 176.896 156.542C177.102 157.072 177.242 157.677 177.283 158.565C177.322 159.453 177.333 159.736 177.333 162C177.333 164.264 177.325 164.547 177.283 165.435C177.242 166.322 177.102 166.927 176.896 167.458C176.687 168.015 176.359 168.519 175.935 168.935C175.518 169.359 175.014 169.686 174.458 169.896C173.927 170.102 173.322 170.242 172.435 170.283C171.547 170.322 171.264 170.333 169 170.333C166.736 170.333 166.453 170.325 165.565 170.283C164.677 170.242 164.073 170.102 163.542 169.896C162.985 169.687 162.481 169.359 162.065 168.935C161.641 168.518 161.313 168.015 161.104 167.458C160.897 166.927 160.758 166.322 160.717 165.435C160.677 164.547 160.667 164.264 160.667 162C160.667 159.736 160.675 159.453 160.717 158.565C160.758 157.677 160.897 157.073 161.104 156.542C161.313 155.985 161.641 155.481 162.065 155.065C162.481 154.641 162.985 154.313 163.542 154.104C164.073 153.897 164.677 153.758 165.565 153.717C166.453 153.677 166.736 153.667 169 153.667ZM169 157.833C167.895 157.833 166.835 158.272 166.054 159.054C165.272 159.835 164.833 160.895 164.833 162C164.833 163.105 165.272 164.165 166.054 164.946C166.835 165.728 167.895 166.167 169 166.167C170.105 166.167 171.165 165.728 171.946 164.946C172.728 164.165 173.167 163.105 173.167 162C173.167 160.895 172.728 159.835 171.946 159.054C171.165 158.272 170.105 157.833 169 157.833ZM174.417 157.625C174.417 157.349 174.307 157.084 174.111 156.888C173.916 156.693 173.651 156.583 173.375 156.583C173.099 156.583 172.834 156.693 172.638 156.888C172.443 157.084 172.333 157.349 172.333 157.625C172.333 157.901 172.443 158.166 172.638 158.362C172.834 158.557 173.099 158.667 173.375 158.667C173.651 158.667 173.916 158.557 174.111 158.362C174.307 158.166 174.417 157.901 174.417 157.625ZM169 159.5C169.663 159.5 170.299 159.763 170.768 160.232C171.236 160.701 171.5 161.337 171.5 162C171.5 162.663 171.236 163.299 170.768 163.768C170.299 164.237 169.663 164.5 169 164.5C168.337 164.5 167.701 164.237 167.232 163.768C166.763 163.299 166.5 162.663 166.5 162C166.5 161.337 166.763 160.701 167.232 160.232C167.701 159.763 168.337 159.5 169 159.5Z" fill="white"/>
<circle cx="241" cy="162" r="23.5" stroke="#F9F9F9"/>
<path d="M237.283 170.251C244.83 170.251 248.959 163.997 248.959 158.583C248.959 158.408 248.959 158.231 248.951 158.056C249.755 157.474 250.449 156.754 251 155.928C250.249 156.259 249.453 156.478 248.639 156.576C249.497 156.063 250.14 155.256 250.448 154.305C249.641 154.782 248.759 155.118 247.839 155.296C247.22 154.637 246.402 154.201 245.51 154.054C244.618 153.908 243.703 154.06 242.907 154.486C242.11 154.912 241.476 155.589 241.103 156.412C240.73 157.235 240.639 158.158 240.844 159.038C239.212 158.957 237.616 158.533 236.159 157.794C234.702 157.056 233.416 156.019 232.385 154.752C231.862 155.656 231.702 156.725 231.938 157.742C232.175 158.76 232.789 159.649 233.657 160.23C233.007 160.208 232.371 160.033 231.8 159.72V159.776C231.801 160.723 232.129 161.64 232.729 162.373C233.328 163.106 234.162 163.609 235.09 163.798C234.738 163.895 234.374 163.944 234.009 163.942C233.751 163.943 233.494 163.919 233.241 163.871C233.503 164.686 234.014 165.399 234.702 165.909C235.389 166.419 236.219 166.702 237.075 166.717C235.621 167.859 233.824 168.479 231.975 168.476C231.649 168.477 231.324 168.458 231 168.42C232.877 169.616 235.057 170.252 237.283 170.251Z" fill="white"/>
</svg>
