<svg width="206" height="189" viewBox="0 0 206 189" fill="none" xmlns="http://www.w3.org/2000/svg">
<path d="M103 0C46.1598 0 0 42.3505 0 94.5C0 146.649 46.1598 189 103 189C159.84 189 206 146.649 206 94.5C206 42.3505 159.84 0 103 0ZM103 7.28377C155.554 7.28377 198.077 46.2832 198.077 94.5C198.077 142.717 155.554 181.731 103 181.731C50.4462 181.731 7.92308 142.717 7.92308 94.5C7.92308 46.2832 50.4462 7.28377 103 7.28377ZM55.4615 36.3462V65.4231H47.5385V72.6923H55.4615V109.038H47.5385V116.308H55.4615V145.385H150.538V36.3462H55.4615ZM63.3846 43.6154H142.615V138.115H63.3846V116.308H71.3077V109.038H63.3846V72.6923H71.3077V65.4231H63.3846V43.6154ZM103 50.8846C94.2925 50.8846 87.1538 57.4342 87.1538 65.4231C87.1538 69.0359 88.6592 72.2998 91.0678 74.8513C85.2296 77.0387 80.2328 80.7706 76.7139 85.572C73.195 90.3734 71.313 96.0269 71.3077 101.813H79.2308C79.2193 98.9471 79.825 96.1076 81.0131 93.4573C82.2011 90.807 83.9482 88.3981 86.1539 86.369C88.3596 84.3399 90.9804 82.7307 93.866 81.6336C96.7515 80.5365 99.8448 79.9732 102.968 79.9761C116.136 79.9761 126.738 89.6587 126.769 101.74H134.692C134.665 95.9697 132.768 90.3369 129.244 85.5571C125.72 80.7773 120.728 77.0662 114.9 74.8949C117.325 72.3288 118.846 69.0504 118.846 65.4231C118.846 57.4342 111.707 50.8846 103 50.8846ZM103 58.1538C107.421 58.1538 110.923 61.3668 110.923 65.4231C110.923 69.4793 107.421 72.6923 103 72.6923C98.5789 72.6923 95.0769 69.4793 95.0769 65.4231C95.0769 61.3668 98.5789 58.1538 103 58.1538ZM79.2308 109.038V116.308H126.769V109.038H79.2308ZM79.2308 123.577V130.846H126.769V123.577H79.2308Z" fill="#DBDBDB"/>
</svg>
