<svg width="312" height="42" viewBox="0 0 312 42" fill="none" xmlns="http://www.w3.org/2000/svg">
<path d="M47.8902 4.39774V5.4317C47.2353 5.56956 46.5116 5.96591 45.7189 6.62075C44.9262 7.24113 44.2886 8.34402 43.806 9.92943L34.0351 41.2585C33.9662 41.2585 33.8972 41.2585 33.8283 41.2585C33.7594 41.2585 33.6904 41.2585 33.6215 41.2585C33.5526 41.2585 33.4836 41.2585 33.4147 41.2585C33.3458 41.2585 33.2769 41.2585 33.2079 41.2585L22.2479 8.74038C21.7999 7.39623 21.3001 6.51736 20.7487 6.10377C20.1972 5.69019 19.6803 5.46616 19.1977 5.4317V4.39774C19.8181 4.4322 20.5936 4.46667 21.5242 4.50113C22.4547 4.5356 23.3508 4.55283 24.2125 4.55283C25.5566 4.55283 26.8146 4.5356 27.9864 4.50113C29.1582 4.46667 30.106 4.4322 30.8298 4.39774V5.4317C29.7959 5.46616 28.9687 5.56956 28.3483 5.74189C27.7624 5.91421 27.4177 6.29333 27.3143 6.87924C27.2454 7.46516 27.4177 8.43019 27.8313 9.77434L35.5343 33.6072L34.8106 34.2275L41.6347 12.7728C42.2551 10.8772 42.5308 9.41245 42.4619 8.37849C42.4274 7.31006 42.0483 6.56905 41.3245 6.15547C40.6008 5.70742 39.5151 5.46616 38.0675 5.4317V4.39774C39.067 4.4322 40.0838 4.46667 41.1177 4.50113C42.1517 4.5356 43.1167 4.55283 44.0128 4.55283C44.9089 4.55283 45.6499 4.5356 46.2359 4.50113C46.8218 4.46667 47.3732 4.4322 47.8902 4.39774ZM11.7532 4.39774V5.4317C10.8571 5.50063 10.2023 5.67295 9.78868 5.94868C9.40956 6.2244 9.22 6.67245 9.22 7.29283C9.25447 7.87874 9.44403 8.70591 9.78868 9.77434L17.8019 34.2275L16.5094 35.52L23.7472 12.4109L24.5226 13.6517L15.9925 41.2585C15.9235 41.2585 15.8546 41.2585 15.7857 41.2585C15.7167 41.2585 15.6478 41.2585 15.5789 41.2585C15.5099 41.2585 15.441 41.2585 15.3721 41.2585C15.3031 41.2585 15.2342 41.2585 15.1653 41.2585L4.20528 8.74038C3.75723 7.39623 3.18855 6.51736 2.49925 6.10377C1.80994 5.69019 1.18956 5.46616 0.638113 5.4317V4.39774C1.32742 4.4322 2.17182 4.46667 3.17132 4.50113C4.20528 4.5356 5.20478 4.55283 6.16981 4.55283C7.30717 4.55283 8.35836 4.5356 9.3234 4.50113C10.3229 4.46667 11.1328 4.4322 11.7532 4.39774ZM57.0634 0.520375V19.8555C57.9595 17.5118 59.2002 15.8919 60.7856 14.9958C62.4055 14.0997 64.0943 13.6517 65.852 13.6517C67.1617 13.6517 68.2474 13.824 69.109 14.1687C70.0051 14.5133 70.7461 14.9958 71.332 15.6162C71.9869 16.3055 72.4522 17.1672 72.7279 18.2011C73.0036 19.2351 73.1415 20.6309 73.1415 22.3887V36.1921C73.1415 37.6396 73.4344 38.6219 74.0204 39.1389C74.6407 39.6558 75.6575 39.9143 77.0705 39.9143V41C76.4846 40.9655 75.5885 40.9311 74.3822 40.8966C73.176 40.8277 72.0041 40.7932 70.8668 40.7932C69.7294 40.7932 68.6093 40.8277 67.5064 40.8966C66.438 40.9311 65.628 40.9655 65.0766 41V39.9143C66.3173 39.9143 67.1962 39.6558 67.7132 39.1389C68.2302 38.6219 68.4887 37.6396 68.4887 36.1921V21.2513C68.4887 20.1829 68.4025 19.2006 68.2302 18.3045C68.0578 17.4084 67.6615 16.6847 67.0411 16.1332C66.4552 15.5818 65.5419 15.306 64.3011 15.306C62.888 15.306 61.63 15.7024 60.5271 16.4951C59.4587 17.2878 58.6143 18.3907 57.9939 19.8038C57.3736 21.2169 57.0634 22.8367 57.0634 24.6634V36.1921C57.0634 37.6396 57.3219 38.6219 57.8388 39.1389C58.3558 39.6558 59.2347 39.9143 60.4754 39.9143V41C59.924 40.9655 59.0968 40.9311 57.9939 40.8966C56.9255 40.8277 55.8226 40.7932 54.6853 40.7932C53.5479 40.7932 52.3761 40.8277 51.1698 40.8966C49.9635 40.9311 49.0674 40.9655 48.4815 41V39.9143C49.8946 39.9143 50.8941 39.6558 51.48 39.1389C52.1004 38.6219 52.4105 37.6396 52.4105 36.1921V6.72415C52.4105 5.17321 52.1348 4.03585 51.5834 3.31207C51.0319 2.55383 49.998 2.17472 48.4815 2.17472V1.08906C49.5844 1.19245 50.6528 1.24415 51.6868 1.24415C52.6863 1.24415 53.6341 1.19245 54.5302 1.08906C55.4607 0.951194 56.3051 0.761634 57.0634 0.520375ZM85.2332 1.45094C86.1293 1.45094 86.9048 1.77836 87.5596 2.43321C88.2144 3.08805 88.5419 3.86352 88.5419 4.75962C88.5419 5.65572 88.2144 6.43119 87.5596 7.08604C86.9048 7.74088 86.1293 8.0683 85.2332 8.0683C84.3371 8.0683 83.5616 7.74088 82.9068 7.08604C82.2519 6.43119 81.9245 5.65572 81.9245 4.75962C81.9245 3.86352 82.2519 3.08805 82.9068 2.43321C83.5616 1.77836 84.3371 1.45094 85.2332 1.45094ZM87.9215 13.8068V36.1921C87.9215 37.6396 88.2144 38.6219 88.8004 39.1389C89.4207 39.6558 90.4375 39.9143 91.8505 39.9143V41C91.2646 40.9655 90.3685 40.9311 89.1622 40.8966C87.9904 40.8277 86.8014 40.7932 85.5951 40.7932C84.4232 40.7932 83.2342 40.8277 82.0279 40.8966C80.8216 40.9311 79.9255 40.9655 79.3396 41V39.9143C80.7527 39.9143 81.7522 39.6558 82.3381 39.1389C82.9585 38.6219 83.2687 37.6396 83.2687 36.1921V20.0106C83.2687 18.4596 82.9929 17.3223 82.4415 16.5985C81.89 15.8403 80.8561 15.4611 79.3396 15.4611V14.3755C80.4425 14.4789 81.5109 14.5306 82.5449 14.5306C83.5444 14.5306 84.4922 14.4789 85.3883 14.3755C86.3188 14.2376 87.1632 14.048 87.9215 13.8068ZM103.739 13.6517C105.118 13.6517 106.29 13.8757 107.255 14.3238C108.22 14.7718 108.927 15.1854 109.375 15.5645C110.512 16.4951 111.201 15.8747 111.443 13.7034H112.632C112.563 14.6684 112.511 15.823 112.476 17.1672C112.442 18.4769 112.425 20.2518 112.425 22.4921H111.236C111.029 21.2169 110.667 19.9761 110.15 18.7698C109.668 17.5635 108.944 16.5813 107.979 15.823C107.014 15.0303 105.756 14.634 104.205 14.634C102.998 14.634 101.982 14.9786 101.155 15.6679C100.362 16.3228 99.9655 17.305 99.9655 18.6147C99.9655 19.6487 100.276 20.5448 100.896 21.303C101.516 22.0268 102.326 22.7161 103.326 23.3709C104.325 23.9913 105.411 24.6806 106.583 25.4389C107.893 26.266 109.082 27.1104 110.15 27.9721C111.218 28.8337 112.063 29.7815 112.683 30.8155C113.338 31.8494 113.666 33.073 113.666 34.486C113.666 36.0714 113.252 37.3984 112.425 38.4668C111.598 39.5352 110.512 40.3452 109.168 40.8966C107.858 41.4481 106.411 41.7238 104.825 41.7238C104.067 41.7238 103.343 41.6548 102.654 41.517C101.999 41.4136 101.361 41.2413 100.741 41C100.396 40.8277 100.034 40.6209 99.6553 40.3796C99.3107 40.1384 98.966 39.8799 98.6214 39.6042C98.2767 39.3284 97.9665 39.3457 97.6908 39.6558C97.4151 39.9316 97.2083 40.5003 97.0704 41.3619H95.8814C95.9503 40.259 96.002 38.9148 96.0365 37.3294C96.0709 35.744 96.0882 33.6416 96.0882 31.0223H97.2772C97.5185 32.9523 97.8631 34.6411 98.3112 36.0887C98.7592 37.5362 99.4658 38.6736 100.431 39.5008C101.396 40.2935 102.74 40.6898 104.463 40.6898C105.153 40.6898 105.842 40.5347 106.531 40.2245C107.255 39.9143 107.858 39.3974 108.341 38.6736C108.823 37.9498 109.064 36.9848 109.064 35.7785C109.064 34.262 108.513 33.0213 107.41 32.0562C106.307 31.0912 104.911 30.0745 103.223 29.006C101.982 28.2133 100.81 27.4206 99.707 26.6279C98.6386 25.8352 97.7597 24.9391 97.0704 23.9396C96.4156 22.9401 96.0882 21.7338 96.0882 20.3208C96.0882 18.7698 96.4328 17.5118 97.1221 16.5468C97.8459 15.5473 98.7937 14.8235 99.9655 14.3755C101.137 13.893 102.395 13.6517 103.739 13.6517ZM125.932 5.79358V14.4272H133.583V15.4611H125.932V35.4683C125.932 37.0882 126.225 38.2255 126.811 38.8804C127.396 39.5352 128.206 39.8626 129.24 39.8626C130.274 39.8626 131.17 39.4491 131.929 38.6219C132.687 37.7603 133.342 36.3299 133.893 34.3309L134.927 34.5894C134.583 36.5884 133.893 38.2772 132.859 39.6558C131.86 41.0345 130.309 41.7238 128.206 41.7238C127.035 41.7238 126.07 41.5687 125.311 41.2585C124.553 40.9828 123.881 40.5692 123.295 40.0177C122.537 39.225 122.003 38.2772 121.692 37.1743C121.417 36.0714 121.279 34.6067 121.279 32.78V15.4611H116.316V14.4272H121.279V6.51736C122.141 6.48289 122.968 6.41396 123.76 6.31057C124.553 6.20717 125.277 6.03484 125.932 5.79358ZM144.104 0.468678V36.1921C144.104 37.6396 144.397 38.6219 144.983 39.1389C145.604 39.6558 146.62 39.9143 148.033 39.9143V41C147.448 40.9655 146.551 40.9311 145.345 40.8966C144.173 40.8277 142.984 40.7932 141.778 40.7932C140.606 40.7932 139.417 40.8277 138.211 40.8966C137.005 40.9311 136.108 40.9655 135.523 41V39.9143C136.936 39.9143 137.935 39.6558 138.521 39.1389C139.141 38.6219 139.452 37.6396 139.452 36.1921V6.67245C139.452 5.12151 139.176 3.98415 138.624 3.26038C138.073 2.50214 137.039 2.12302 135.523 2.12302V1.03736C136.625 1.14075 137.694 1.19245 138.728 1.19245C139.727 1.19245 140.675 1.14075 141.571 1.03736C142.502 0.899496 143.346 0.709937 144.104 0.468678ZM162.735 13.6517C165.768 13.6517 168.129 14.5823 169.817 16.4434C171.541 18.2701 172.402 21.1307 172.402 25.0253H154.153L154.101 24.043H167.439C167.508 22.3542 167.37 20.8033 167.026 19.3902C166.681 17.9426 166.13 16.7881 165.371 15.9264C164.648 15.0648 163.7 14.634 162.528 14.634C160.943 14.634 159.529 15.4267 158.289 17.0121C157.082 18.5975 156.359 21.1135 156.117 24.56L156.272 24.7668C156.204 25.2838 156.152 25.8525 156.117 26.4728C156.083 27.0932 156.066 27.7136 156.066 28.334C156.066 30.6776 156.445 32.6938 157.203 34.3826C157.961 36.0714 158.944 37.3639 160.15 38.26C161.391 39.1216 162.666 39.5525 163.975 39.5525C165.009 39.5525 165.992 39.3974 166.922 39.0872C167.853 38.7425 168.714 38.1911 169.507 37.4328C170.3 36.6746 170.989 35.6579 171.575 34.3826L172.609 34.7962C172.23 35.9336 171.61 37.0365 170.748 38.1049C169.886 39.1733 168.801 40.0522 167.491 40.7415C166.181 41.3964 164.665 41.7238 162.942 41.7238C160.46 41.7238 158.323 41.1551 156.531 40.0177C154.773 38.8804 153.412 37.3122 152.447 35.3132C151.516 33.2797 151.051 30.9533 151.051 28.334C151.051 25.301 151.533 22.6989 152.498 20.5275C153.464 18.3218 154.825 16.633 156.583 15.4611C158.34 14.2548 160.391 13.6517 162.735 13.6517ZM197.606 14.3755V15.4611C196.744 15.4611 195.986 15.5301 195.331 15.6679C194.676 15.7713 194.246 16.116 194.039 16.7019C193.832 17.2878 193.987 18.3218 194.504 19.8038L199.881 35.2098L199.519 35.1581L207.118 14.1687L208.152 14.5823L198.692 41.2585C198.554 41.2585 198.416 41.2585 198.278 41.2585C198.14 41.2585 197.985 41.2585 197.813 41.2585L189.334 18.3562C188.783 16.9776 188.231 16.1504 187.68 15.8747C187.163 15.599 186.715 15.4611 186.336 15.4611V14.3755C187.025 14.4789 187.732 14.565 188.455 14.634C189.214 14.6684 190.024 14.6857 190.885 14.6857C191.954 14.6857 193.074 14.6512 194.246 14.5823C195.452 14.5133 196.572 14.4444 197.606 14.3755ZM225.988 14.3755V15.4094C225.333 15.4784 224.713 15.7713 224.127 16.2883C223.576 16.7708 223.076 17.6842 222.628 19.0283L215.132 41.2585C214.994 41.2585 214.856 41.2585 214.718 41.2585C214.58 41.2585 214.425 41.2585 214.253 41.2585L205.929 20.114L207.118 14.1687C207.325 14.1687 207.515 14.1687 207.687 14.1687C207.894 14.1687 208.101 14.1687 208.307 14.1687L216.372 35.52L215.959 35.8302L221.077 20.2691C221.456 19.0972 221.594 18.1839 221.49 17.5291C221.421 16.8397 221.077 16.34 220.456 16.0298C219.871 15.6852 218.957 15.4784 217.716 15.4094V14.3755C218.337 14.4099 218.871 14.4444 219.319 14.4789C219.767 14.4789 220.198 14.4961 220.612 14.5306C221.06 14.5306 221.542 14.5306 222.059 14.5306C222.852 14.5306 223.558 14.5133 224.179 14.4789C224.834 14.4444 225.437 14.4099 225.988 14.3755ZM239.83 13.6517C242.036 13.6517 244.017 14.1342 245.775 15.0992C247.533 16.0643 248.929 17.5808 249.963 19.6487C251.031 21.7166 251.565 24.4049 251.565 27.7136C251.565 31.0223 251.031 33.7106 249.963 35.7785C248.929 37.8119 247.533 39.3112 245.775 40.2762C244.017 41.2413 242.036 41.7238 239.83 41.7238C237.659 41.7238 235.677 41.2413 233.885 40.2762C232.127 39.3112 230.714 37.8119 229.645 35.7785C228.611 33.7106 228.094 31.0223 228.094 27.7136C228.094 24.4049 228.611 21.7166 229.645 19.6487C230.714 17.5808 232.127 16.0643 233.885 15.0992C235.677 14.1342 237.659 13.6517 239.83 13.6517ZM239.83 14.6857C237.865 14.6857 236.246 15.7024 234.97 17.7358C233.73 19.7693 233.109 23.0952 233.109 27.7136C233.109 32.3319 233.73 35.6579 234.97 37.6913C236.246 39.6903 237.865 40.6898 239.83 40.6898C241.794 40.6898 243.397 39.6903 244.638 37.6913C245.913 35.6579 246.551 32.3319 246.551 27.7136C246.551 23.0952 245.913 19.7693 244.638 17.7358C243.397 15.7024 241.794 14.6857 239.83 14.6857ZM268.153 13.6517C270.359 13.6517 272.34 14.1342 274.098 15.0992C275.856 16.0643 277.252 17.5808 278.286 19.6487C279.354 21.7166 279.888 24.4049 279.888 27.7136C279.888 31.0223 279.354 33.7106 278.286 35.7785C277.252 37.8119 275.856 39.3112 274.098 40.2762C272.34 41.2413 270.359 41.7238 268.153 41.7238C265.981 41.7238 264 41.2413 262.208 40.2762C260.45 39.3112 259.037 37.8119 257.968 35.7785C256.934 33.7106 256.417 31.0223 256.417 27.7136C256.417 24.4049 256.934 21.7166 257.968 19.6487C259.037 17.5808 260.45 16.0643 262.208 15.0992C264 14.1342 265.981 13.6517 268.153 13.6517ZM268.153 14.6857C266.188 14.6857 264.568 15.7024 263.293 17.7358C262.052 19.7693 261.432 23.0952 261.432 27.7136C261.432 32.3319 262.052 35.6579 263.293 37.6913C264.568 39.6903 266.188 40.6898 268.153 40.6898C270.117 40.6898 271.72 39.6903 272.961 37.6913C274.236 35.6579 274.874 32.3319 274.874 27.7136C274.874 23.0952 274.236 19.7693 272.961 17.7358C271.72 15.7024 270.117 14.6857 268.153 14.6857ZM307.332 0.468678V35.3649C307.332 36.9158 307.608 38.0704 308.159 38.8287C308.745 39.5525 309.779 39.9143 311.261 39.9143V41C310.193 40.8966 309.125 40.8449 308.056 40.8449C307.057 40.8449 306.092 40.8966 305.161 41C304.265 41.1034 303.438 41.293 302.679 41.5687V6.67245C302.679 5.12151 302.404 3.98415 301.852 3.26038C301.301 2.50214 300.267 2.12302 298.75 2.12302V1.03736C299.853 1.14075 300.922 1.19245 301.956 1.19245C302.955 1.19245 303.903 1.14075 304.799 1.03736C305.73 0.899496 306.574 0.709937 307.332 0.468678ZM296.476 13.6517C297.992 13.6517 299.405 14.0136 300.715 14.7374C302.059 15.4611 302.955 16.7019 303.403 18.4596L302.731 18.9766C302.249 17.5291 301.49 16.4779 300.456 15.823C299.457 15.1682 298.268 14.8408 296.889 14.8408C294.856 14.8408 293.15 15.8919 291.771 17.9943C290.427 20.0967 289.772 23.3365 289.807 27.7136C289.807 30.5053 290.065 32.8317 290.582 34.6928C291.134 36.5195 291.926 37.8981 292.96 38.8287C294.029 39.7248 295.321 40.1728 296.838 40.1728C298.285 40.1728 299.595 39.5525 300.767 38.3117C301.938 37.0709 302.645 35.2443 302.886 32.8317L303.507 33.5555C303.231 36.1748 302.387 38.1911 300.973 39.6042C299.595 41.0172 297.716 41.7238 295.338 41.7238C293.201 41.7238 291.323 41.2068 289.703 40.1728C288.118 39.1389 286.894 37.5879 286.033 35.52C285.206 33.4521 284.792 30.8499 284.792 27.7136C284.792 24.5772 285.326 21.9751 286.395 19.9072C287.497 17.8048 288.928 16.2366 290.686 15.2026C292.478 14.1687 294.408 13.6517 296.476 13.6517Z" fill="white"/>
</svg>
