<svg width="171" height="48" viewBox="0 0 171 48" fill="none" xmlns="http://www.w3.org/2000/svg">
<path d="M38.632 1.688V2.968C37.8213 3.13867 37.0107 3.672 36.2 4.568C35.3893 5.42133 34.4933 6.78667 33.512 8.664L20.584 34.264H19.496L4.52 6.616C3.66667 5.03733 2.94133 4.056 2.344 3.672C1.78933 3.24533 1.27733 3.032 0.808 3.032V1.688C1.66133 1.73067 2.536 1.77333 3.432 1.816C4.37067 1.85866 5.37333 1.88 6.44 1.88C7.848 1.88 9.34133 1.88 10.92 1.88C12.5413 1.83733 14.0347 1.77333 15.4 1.688V3.032C14.3333 3.032 13.3947 3.16 12.584 3.416C11.7733 3.672 11.24 4.14133 10.984 4.824C10.728 5.50667 10.92 6.46667 11.56 7.704L22.376 28.44L21.864 28.824L30.376 11.864C31.5707 9.51733 32.1467 7.704 32.104 6.424C32.104 5.144 31.6133 4.26933 30.632 3.8C29.6507 3.288 28.264 3.01066 26.472 2.968V1.688C27.7093 1.73067 28.968 1.77333 30.248 1.816C31.528 1.85866 32.7227 1.88 33.832 1.88C34.9413 1.88 35.8587 1.85866 36.584 1.816C37.3093 1.77333 37.992 1.73067 38.632 1.688ZM23.464 27.544V40.216C23.464 41.752 23.592 42.904 23.848 43.672C24.104 44.44 24.5947 44.952 25.32 45.208C26.088 45.464 27.1973 45.6347 28.648 45.72V47C27.6667 46.9147 26.4293 46.872 24.936 46.872C23.4853 46.8293 22.0133 46.808 20.52 46.808C18.856 46.808 17.2987 46.8293 15.848 46.872C14.3973 46.872 13.224 46.9147 12.328 47V45.72C13.7787 45.6347 14.8667 45.464 15.592 45.208C16.36 44.952 16.872 44.44 17.128 43.672C17.384 42.904 17.512 41.752 17.512 40.216V27.096L20.968 31.064L23.464 27.544ZM61.0565 0.791996C65.1098 0.791996 68.6512 1.70933 71.6805 3.544C74.7525 5.37866 77.1205 8.024 78.7845 11.48C80.4912 14.8933 81.3445 19.0533 81.3445 23.96C81.3445 28.7387 80.4698 32.92 78.7205 36.504C77.0138 40.088 74.6245 42.8827 71.5525 44.888C68.4805 46.8933 64.9605 47.896 60.9925 47.896C56.9392 47.896 53.3765 46.9787 50.3045 45.144C47.2752 43.3093 44.9072 40.664 43.2005 37.208C41.5365 33.752 40.7045 29.592 40.7045 24.728C40.7045 19.9493 41.5792 15.768 43.3285 12.184C45.0778 8.6 47.4672 5.80533 50.4965 3.8C53.5685 1.79466 57.0885 0.791996 61.0565 0.791996ZM60.8005 1.944C58.0272 1.944 55.6165 2.904 53.5685 4.824C51.5205 6.744 49.9205 9.38933 48.7685 12.76C47.6592 16.1307 47.1045 20.0347 47.1045 24.472C47.1045 28.9947 47.7232 32.9413 48.9605 36.312C50.2405 39.64 51.9472 42.2213 54.0805 44.056C56.2565 45.848 58.6458 46.744 61.2485 46.744C64.0218 46.744 66.4325 45.784 68.4805 43.864C70.5285 41.944 72.1072 39.2987 73.2165 35.928C74.3685 32.5147 74.9445 28.6107 74.9445 24.216C74.9445 19.6507 74.3045 15.704 73.0245 12.376C71.7872 9.048 70.1018 6.488 67.9685 4.696C65.8352 2.86133 63.4458 1.944 60.8005 1.944ZM126.295 1.688V2.968C124.844 3.01066 123.735 3.224 122.967 3.608C122.242 3.992 121.751 4.61066 121.495 5.464C121.239 6.31733 121.111 7.53333 121.111 9.112V28.376C121.111 31.3627 120.919 33.9653 120.535 36.184C120.151 38.4027 119.468 40.3227 118.487 41.944C117.42 43.736 115.863 45.1867 113.815 46.296C111.767 47.3627 109.42 47.896 106.775 47.896C104.727 47.896 102.764 47.64 100.887 47.128C99.0523 46.6587 97.431 45.7627 96.023 44.44C94.7857 43.2453 93.8043 41.9867 93.079 40.664C92.3963 39.3413 91.927 37.72 91.671 35.8C91.415 33.88 91.287 31.4693 91.287 28.568V8.472C91.287 6.89333 91.159 5.74133 90.903 5.016C90.647 4.248 90.135 3.736 89.367 3.48C88.6417 3.18133 87.5537 3.01066 86.103 2.968V1.688C86.999 1.73067 88.1723 1.77333 89.623 1.816C91.0737 1.85866 92.631 1.88 94.295 1.88C95.7883 1.88 97.2603 1.85866 98.711 1.816C100.204 1.77333 101.442 1.73067 102.423 1.688V2.968C100.972 3.01066 99.863 3.18133 99.095 3.48C98.3697 3.736 97.879 4.248 97.623 5.016C97.367 5.74133 97.239 6.89333 97.239 8.472V29.656C97.239 31.832 97.3457 33.9013 97.559 35.864C97.7723 37.784 98.199 39.4907 98.839 40.984C99.5217 42.4347 100.546 43.5867 101.911 44.44C103.276 45.2507 105.09 45.656 107.351 45.656C110.594 45.656 113.09 44.952 114.839 43.544C116.631 42.0933 117.868 40.1093 118.551 37.592C119.276 35.0747 119.639 32.2373 119.639 29.08V9.112C119.639 7.53333 119.447 6.31733 119.063 5.464C118.722 4.61066 118.124 3.992 117.271 3.608C116.418 3.224 115.266 3.01066 113.815 2.968V1.688C114.583 1.73067 115.586 1.77333 116.823 1.816C118.103 1.85866 119.276 1.88 120.343 1.88C121.452 1.88 122.54 1.85866 123.607 1.816C124.716 1.77333 125.612 1.73067 126.295 1.688ZM130.688 1.688C131.584 1.73067 132.757 1.77333 134.208 1.816C135.659 1.85866 137.088 1.88 138.496 1.88C140.501 1.88 142.421 1.85866 144.256 1.816C146.091 1.77333 147.392 1.752 148.16 1.752C151.616 1.752 154.475 2.24267 156.736 3.224C159.04 4.20533 160.747 5.54933 161.856 7.256C163.008 8.92 163.584 10.7973 163.584 12.888C163.584 14.168 163.328 15.5333 162.816 16.984C162.304 18.4347 161.408 19.8 160.128 21.08C158.891 22.36 157.184 23.4267 155.008 24.28C152.832 25.0907 150.08 25.496 146.752 25.496H140.608V24.216H146.112C149.141 24.216 151.445 23.7467 153.024 22.808C154.645 21.8267 155.733 20.5467 156.288 18.968C156.885 17.3467 157.184 15.5547 157.184 13.592C157.184 10.2213 156.373 7.61867 154.752 5.784C153.173 3.90666 150.443 2.968 146.56 2.968C144.597 2.968 143.317 3.33067 142.72 4.056C142.123 4.78133 141.824 6.25333 141.824 8.472V40.216C141.824 41.752 141.952 42.904 142.208 43.672C142.464 44.44 142.955 44.952 143.68 45.208C144.448 45.464 145.557 45.6347 147.008 45.72V47C146.027 46.9147 144.789 46.872 143.296 46.872C141.845 46.8293 140.373 46.808 138.88 46.808C137.216 46.808 135.659 46.8293 134.208 46.872C132.757 46.872 131.584 46.9147 130.688 47V45.72C132.139 45.6347 133.227 45.464 133.952 45.208C134.72 44.952 135.232 44.44 135.488 43.672C135.744 42.904 135.872 41.752 135.872 40.216V8.472C135.872 6.89333 135.744 5.74133 135.488 5.016C135.232 4.248 134.72 3.736 133.952 3.48C133.227 3.18133 132.139 3.01066 130.688 2.968V1.688ZM140.864 24.408C143.168 24.4933 144.981 24.6 146.304 24.728C147.627 24.8133 148.693 24.8987 149.504 24.984C150.357 25.0693 151.168 25.176 151.936 25.304C154.795 25.7733 156.843 26.648 158.08 27.928C159.36 29.1653 160.299 31.1067 160.896 33.752L162.496 40.28C162.923 42.1573 163.349 43.5227 163.776 44.376C164.245 45.1867 164.949 45.5707 165.888 45.528C166.613 45.4853 167.211 45.2507 167.68 44.824C168.192 44.3973 168.725 43.8213 169.28 43.096L170.24 43.8C169.344 45.1227 168.405 46.1467 167.424 46.872C166.485 47.5547 165.141 47.896 163.392 47.896C161.813 47.896 160.427 47.4267 159.232 46.488C158.037 45.5493 157.141 43.7147 156.544 40.984L155.136 34.584C154.752 32.7493 154.304 31.1707 153.792 29.848C153.323 28.4827 152.64 27.416 151.744 26.648C150.891 25.88 149.611 25.496 147.904 25.496H140.992L140.864 24.408Z" fill="white"/>
</svg>
